<svg width="28" height="24" viewBox="0 0 28 24" fill="none" xmlns="http://www.w3.org/2000/svg">
<path d="M27.616 3.54124C26.5985 3.99137 25.5195 4.28707 24.4147 4.41857C25.5788 3.72142 26.4498 2.62489 26.8654 1.33324C25.772 1.9839 24.5734 2.4399 23.3254 2.68657C22.4862 1.78867 21.3739 1.19319 20.1613 0.992682C18.9488 0.792177 17.704 0.99789 16.6204 1.57784C15.5368 2.15779 14.6752 3.07948 14.1695 4.19963C13.6638 5.31977 13.5424 6.57561 13.824 7.7719C11.6066 7.66096 9.43734 7.08487 7.45703 6.08105C5.47673 5.07723 3.7297 3.66813 2.32938 1.94524C1.83376 2.7965 1.57332 3.7642 1.57471 4.74924C1.57471 6.68257 2.56004 8.39057 4.05471 9.39057C3.1694 9.36265 2.30357 9.12356 1.52938 8.69324V8.76124C1.52934 10.0491 1.97476 11.2973 2.79009 12.2941C3.60542 13.291 4.74046 13.9752 6.00271 14.2306C5.1809 14.4535 4.3191 14.4863 3.48271 14.3266C3.83861 15.4351 4.53233 16.4045 5.46671 17.0991C6.40109 17.7937 7.52932 18.1786 8.69338 18.1999C7.53652 19.1085 6.21189 19.7801 4.79526 20.1764C3.37862 20.5727 1.89776 20.6858 0.437378 20.5092C2.98634 22.1484 5.95352 23.0187 8.98405 23.0159C19.2427 23.0159 24.8507 14.5186 24.8507 7.14924C24.8507 6.90924 24.8454 6.66657 24.8347 6.4279C25.9259 5.63905 26.8678 4.66065 27.616 3.54124Z" fill="white"/>
</svg>
