<svg width="158" height="159" viewBox="0 0 158 159" fill="none" xmlns="http://www.w3.org/2000/svg">
<g clip-path="url(#clip0_1294_862)">
<path d="M136.135 145.749L133.446 148.438C130.511 151.408 126.95 153.751 122.833 155.394C122.732 155.442 122.627 155.477 122.522 155.521C120.805 156.187 118.992 156.734 117.091 157.155C114.971 157.623 112.741 157.939 110.402 158.092C108.716 158.201 106.973 158.223 105.173 158.162C104.008 158.127 102.821 158.044 101.612 157.926C100.342 157.803 99.0495 157.641 97.7355 157.431C95.9529 157.155 94.1308 156.8 92.2736 156.357C91.5509 156.187 90.8195 156.003 90.0836 155.81C89.961 155.779 89.8384 155.744 89.7157 155.709C89.5624 155.674 89.4047 155.63 89.2558 155.582C86.5139 154.829 83.7721 153.927 81.0389 152.884C80.6009 152.718 80.1629 152.547 79.7205 152.372C79.2563 152.188 78.7876 151.995 78.3233 151.798C76.5275 151.053 74.7317 150.252 72.9534 149.393C72.2526 149.06 71.5518 148.71 70.8554 148.36C70.0188 147.939 69.191 147.505 68.3588 147.059C66.9879 146.323 65.6257 145.556 64.2635 144.755C63.3218 144.203 62.3845 143.634 61.4515 143.051C60.6763 142.569 59.901 142.074 59.1301 141.575C58.8454 141.391 58.5564 141.198 58.276 141.006C56.3883 139.762 54.5311 138.461 52.6959 137.103C51.9644 136.569 51.2417 136.03 50.5278 135.474C50.519 135.465 50.5059 135.456 50.4971 135.447C48.6707 134.054 46.8705 132.6 45.1054 131.102C44.8995 130.936 44.698 130.761 44.4965 130.59C43.8133 130.012 43.1387 129.425 42.4686 128.829C40.9838 127.515 39.5252 126.17 38.0886 124.791C37.6637 124.383 37.2389 123.972 36.8228 123.56C36.1833 122.934 35.5482 122.299 34.9262 121.663C34.3524 121.085 33.7918 120.503 33.2312 119.911C32.0135 118.637 30.8222 117.34 29.6571 116.022C29.0614 115.356 28.4701 114.682 27.8919 113.998C27.5722 113.622 27.2568 113.254 26.9415 112.873C25.588 111.265 24.2697 109.632 22.9995 107.976C22.8681 107.805 22.741 107.634 22.6096 107.463C22.1935 106.916 21.7774 106.364 21.3701 105.808C19.8721 103.789 18.4399 101.739 17.0777 99.6627C17.012 99.5663 16.9551 99.4699 16.8894 99.3736C16.3857 98.6071 15.8907 97.8362 15.4089 97.0653C14.7037 95.9397 14.0161 94.7965 13.3459 93.6577C12.6758 92.5013 12.0188 91.3363 11.3924 90.1668C10.9413 89.339 10.5077 88.5112 10.0872 87.6746C9.62292 86.7635 9.17178 85.8481 8.73378 84.9327C7.98918 83.369 7.284 81.7966 6.62699 80.2198C6.33791 79.5321 6.05321 78.8401 5.78165 78.1481C5.69843 77.9422 5.61959 77.732 5.53637 77.5173C4.48517 74.7974 3.56537 72.0642 2.80325 69.3399C2.69375 68.9676 2.58863 68.5909 2.48789 68.2142C2.48351 68.1879 2.47037 68.1616 2.46599 68.1354C2.30393 67.5309 2.15501 66.9352 2.00609 66.3396C1.48925 64.2065 1.07315 62.126 0.762165 60.0937C0.604485 59.0731 0.473084 58.0701 0.363584 57.0759C0.232184 55.8801 0.140204 54.7106 0.0832637 53.5587C-0.0218565 51.4344 -0.00871645 49.3846 0.122684 47.4048C0.249704 45.5083 0.486224 43.6687 0.819105 41.9079C1.16075 40.1165 1.61189 38.3951 2.16815 36.7614C2.37839 36.1438 2.60177 35.535 2.84267 34.9393C4.44575 30.9316 6.71459 27.4495 9.57036 24.5631L12.2684 21.8606C8.65056 31.317 8.5104 43.0861 12.0013 56.2393C17.0514 75.2397 29.1534 95.0199 46.0733 111.94C62.9977 128.864 82.7778 140.962 101.778 146.016C114.927 149.507 126.687 149.367 136.148 145.753L136.135 145.749Z" fill="#CA9C28"/>
<path d="M24.4799 9.63615C4.68666 29.4294 16.3725 73.212 50.5804 107.42C84.7882 141.628 128.571 153.314 148.364 133.52C168.157 113.727 156.471 69.9445 122.264 35.7366C88.0557 1.52876 44.2732 -10.1615 24.4799 9.63615ZM144.177 86.9958C146.178 94.5032 146.708 101.437 145.749 107.608C144.759 113.99 142.206 119.276 138.159 123.324C134.111 127.371 128.829 129.92 122.443 130.914C116.272 131.873 109.338 131.343 101.831 129.342C94.3235 127.34 86.6322 123.963 78.9628 119.312C71.0306 114.498 63.4664 108.515 56.4759 101.524C49.4854 94.5338 43.5023 86.9696 38.6887 79.0374C34.0371 71.368 30.6601 63.6767 28.6584 56.1693C26.6568 48.662 26.1268 41.7285 27.086 35.557C28.0759 29.1754 30.6294 23.8887 34.6766 19.8416C38.7237 15.7944 44.006 13.2453 50.392 12.251C56.5635 11.2918 63.497 11.8218 71.0044 13.8234C78.5117 15.8251 86.203 19.2021 93.8724 23.8537C101.805 28.6673 109.369 34.6504 116.359 41.6409C123.35 48.6314 129.333 56.1956 134.147 64.1278C138.798 71.7972 142.175 79.4885 144.177 86.9958Z" fill="#CA9C28"/>
<path d="M103.824 62.9715C102.116 62.2356 100.42 61.7757 98.7473 61.6005C97.0742 61.4253 95.4799 61.6356 93.9731 62.2356C94.2666 60.7464 94.271 59.2222 93.9863 57.6542C93.706 56.0861 93.2022 54.5225 92.4839 52.9632C91.7656 51.4039 90.8546 49.8665 89.7508 48.351C88.647 46.8355 87.3856 45.3682 85.9621 43.9447C83.0582 41.0408 80.2374 38.8245 77.5043 37.2871C74.7668 35.7541 72.1213 34.8562 69.5677 34.589C67.0142 34.3262 64.5701 34.6766 62.24 35.6402C61.9071 35.776 61.5742 35.9293 61.2457 36.0914L54.7151 29.5608L50.5935 33.6824L56.3839 39.4727C56.1211 39.7137 55.8627 39.9633 55.6043 40.2217L52.4769 43.3491L46.6997 37.5718L42.5781 41.6934L48.3554 47.4706L43.003 52.823L105.173 114.993L110.525 109.64L116.302 115.418L120.424 111.296L114.647 105.519L118.541 101.625L124.318 107.402L128.439 103.281L122.18 97.0217C123.902 93.9557 124.484 90.6225 123.928 87.0221C123.1 81.7004 119.671 76.0195 113.635 69.9839C112.128 68.4772 110.543 67.115 108.883 65.8973C107.223 64.6841 105.536 63.7073 103.828 62.9671L103.824 62.9715ZM72.3228 47.9743C74.5084 48.2634 77.0094 49.8183 79.8301 52.6391C82.2785 55.0875 83.702 57.4352 84.105 59.6821C84.5079 61.929 83.7896 64.0271 81.95 65.9762L76.4662 71.4599L60.7946 55.7883L65.9849 50.598C68.026 48.5569 70.1415 47.6809 72.3271 47.97L72.3228 47.9743ZM108.983 80.8288C109.741 82.0333 110.254 83.229 110.521 84.416C110.784 85.603 110.779 86.7505 110.499 87.8543C110.219 88.9581 109.601 89.9874 108.646 90.9422L102.295 97.2932L85.5153 80.5134L92.1379 73.8908C93.0752 72.9535 94.0826 72.3447 95.1557 72.0688C96.2288 71.7928 97.3545 71.8191 98.5283 72.1564C99.7022 72.4892 100.924 73.0937 102.186 73.9609C103.451 74.8325 104.752 75.9363 106.088 77.2722C107.258 78.4417 108.217 79.6243 108.979 80.8288H108.983Z" fill="#CA9C28"/>
</g>
<defs>
<clipPath id="clip0_1294_862">
<rect width="158" height="158.201" fill="white"/>
</clipPath>
</defs>
</svg>
