<svg width="131" height="132" viewBox="0 0 131 132" fill="none" xmlns="http://www.w3.org/2000/svg">
<g clip-path="url(#clip0_1294_870)">
<path d="M39.5371 115.322L37.3101 114.365C34.8592 113.328 32.6313 111.773 30.6871 109.722C30.6348 109.674 30.5892 109.62 30.5385 109.568C29.7391 108.709 28.987 107.764 28.2894 106.738C27.5116 105.593 26.7987 104.348 26.1559 102.999C25.6931 102.027 25.2688 101 24.8802 99.9192C24.626 99.2211 24.3951 98.4986 24.1799 97.7549C23.9527 96.9739 23.7437 96.1706 23.5581 95.343C23.3008 94.2223 23.0808 93.0597 22.9045 91.8557C22.835 91.3875 22.7713 90.911 22.7118 90.4298C22.701 90.35 22.6928 90.2691 22.6846 90.1882C22.6692 90.0892 22.6579 89.9854 22.6513 89.8859C22.4503 88.0846 22.3374 86.2482 22.3096 84.3839C22.3048 84.0853 22.3026 83.7856 22.3019 83.4824C22.3012 83.164 22.3047 82.8411 22.3119 82.5197C22.3289 81.2806 22.3797 80.0282 22.4683 78.7726C22.5001 78.2791 22.5421 77.7815 22.5852 77.2865C22.6368 76.6919 22.6982 76.0994 22.7663 75.5012C22.8784 74.5158 23.0108 73.5284 23.1639 72.5326C23.2684 71.8448 23.3844 71.1555 23.5091 70.4656C23.6114 69.8928 23.7215 69.317 23.8352 68.7427C23.877 68.5307 23.9228 68.3141 23.9708 68.1026C24.2618 66.6913 24.5938 65.2847 24.9646 63.8776C25.1084 63.3184 25.2568 62.7633 25.4177 62.2093C25.4208 62.2021 25.4229 62.1922 25.426 62.185C25.8196 60.7748 26.2558 59.3657 26.7262 57.9671C26.7761 57.8059 26.8323 57.6453 26.8859 57.4856C27.067 56.9446 27.2553 56.4067 27.4499 55.8694C27.8775 54.6801 28.3294 53.4991 28.8073 52.3229C28.9482 51.9752 29.0917 51.6265 29.2373 51.2829C29.4572 50.7565 29.6834 50.2305 29.9126 49.7124C30.1196 49.2362 30.3322 48.7668 30.55 48.2953C31.0173 47.2735 31.5038 46.2621 32.0094 45.2611C32.263 44.7513 32.5229 44.242 32.791 43.7384C32.9386 43.4602 33.082 43.1866 33.2332 42.91C33.8655 41.7293 34.5217 40.5631 35.2023 39.4202C35.2724 39.3021 35.3436 39.1866 35.4137 39.0685C35.6397 38.6929 35.8682 38.3163 36.1015 37.9438C36.9435 36.5803 37.8192 35.2485 38.727 33.952C38.7686 33.8904 38.8122 33.8339 38.8537 33.7723C39.1887 33.2931 39.5283 32.8181 39.8711 32.3509C40.3711 31.6677 40.8857 30.9908 41.4018 30.3252C41.9284 29.6555 42.4631 28.9916 43.0078 28.3447C43.3914 27.8822 43.7793 27.4301 44.1754 26.9837C44.6052 26.4938 45.0408 26.0106 45.4794 25.5353C46.2295 24.7253 46.9942 23.9367 47.7727 23.1756C48.1117 22.8421 48.4542 22.5102 48.7999 22.1861C48.9021 22.0882 49.008 21.992 49.1155 21.892C50.4779 20.6277 51.8791 19.438 53.3123 18.3438C53.5069 18.1911 53.7051 18.04 53.9044 17.8914C53.9189 17.8827 53.9314 17.8687 53.9459 17.8599C54.2656 17.6213 54.5831 17.3925 54.9007 17.1638C56.0417 16.3543 57.1753 15.6169 58.3053 14.9532C58.8723 14.619 59.4352 14.3044 59.9981 14.005C60.6751 13.645 61.3458 13.3145 62.0144 13.0089C63.2474 12.4453 64.4642 11.9693 65.6675 11.5799C66.8204 11.2075 67.9654 10.9134 69.0865 10.695C70.2279 10.4745 71.3536 10.3354 72.4522 10.2792C72.8675 10.2579 73.2807 10.2465 73.6902 10.2485C76.4415 10.2519 79.0387 10.7735 81.4218 11.7832L83.6586 12.7429C77.2056 12.8325 70.2041 15.5271 63.24 20.6982C53.1816 28.1726 44.3259 40.0063 38.3008 54.0178C32.274 68.0329 29.7792 82.5998 31.2706 95.0429C32.3068 103.652 35.1653 110.582 39.5376 115.331L39.5371 115.322Z" fill="#CA9C28"/>
<path d="M93.7788 17.0882C77.3879 10.0398 54.2222 27.2919 42.0408 55.6195C29.8595 83.9472 33.2731 112.629 49.664 119.677C66.0549 126.725 89.2206 109.473 101.402 81.1457C113.583 52.8181 110.172 24.1355 93.7788 17.0882ZM76.2229 106.218C72.2502 109.175 68.2699 111.125 64.3895 112.013C60.3773 112.933 56.6444 112.669 53.2929 111.228C49.9415 109.787 47.1855 107.261 45.0897 103.714C43.0652 100.287 41.7427 96.0561 41.1561 91.1386C40.5696 86.2211 40.7539 80.8701 41.6981 75.2312C42.6762 69.3986 44.4336 63.5077 46.9229 57.7189C49.4122 51.93 52.479 46.6022 56.0396 41.8801C59.4829 37.3159 63.2399 33.5012 67.2126 30.5443C71.1853 27.5873 75.1656 25.6372 79.0461 24.7487C83.0583 23.8287 86.7911 24.0929 90.1426 25.5341C93.494 26.9753 96.25 29.5013 98.3459 33.0479C100.37 36.4756 101.693 40.706 102.279 45.6235C102.866 50.541 102.682 55.892 101.737 61.5308C100.759 67.3635 99.0019 73.2544 96.5126 79.0432C94.0233 84.8321 90.9565 90.1598 87.3959 94.882C83.9526 99.4462 80.1956 103.261 76.2229 106.218Z" fill="#CA9C28"/>
<path d="M80.9242 76.6549C80.9568 75.4699 80.8291 74.3577 80.5379 73.3256C80.2468 72.2936 79.746 71.3992 79.0352 70.6487C79.9862 70.471 80.8897 70.1139 81.751 69.5753C82.6132 69.0392 83.4202 68.3719 84.1739 67.5786C84.9277 66.7853 85.6229 65.8831 86.2598 64.8719C86.8966 63.8607 87.4677 62.7675 87.9746 61.5887C89.0087 59.1839 89.6552 56.9907 89.9205 55.0096C90.1821 53.0269 90.0894 51.2486 89.645 49.6736C89.1979 48.0996 88.4137 46.7352 87.2932 45.5829C87.1342 45.4179 86.9649 45.2569 86.7914 45.1007L89.1169 39.6927L85.7038 38.225L83.6419 43.02C83.4372 42.9213 83.2284 42.8272 83.0144 42.7351L80.4247 41.6215L82.4819 36.8374L79.0688 35.3697L77.0116 40.1538L72.5793 38.2479L50.4408 89.7309L54.8731 91.6369L52.8158 96.421L56.2289 97.8887L58.2862 93.1046L61.5107 94.4912L59.4534 99.2753L62.8665 100.743L65.0953 95.5599C67.317 95.8555 69.428 95.4138 71.4285 94.2347C74.3841 92.4886 76.9384 89.1173 79.0877 84.1191C79.6242 82.8714 80.0566 81.6111 80.3858 80.3408C80.7124 79.0716 80.8927 77.8426 80.9279 76.6565L80.9242 76.6549ZM82.3697 54.4638C82.7144 55.8261 82.3839 57.6739 81.3795 60.0098C80.5076 62.0373 79.4535 63.4343 78.2182 64.2031C76.9829 64.972 75.5711 65.0418 73.9829 64.4126L69.4418 62.4598L75.0224 49.4821L79.3205 51.3303C81.0107 52.0572 82.0287 53.103 82.3733 54.4654L82.3697 54.4638ZM71.5686 83.9244C71.0343 84.6573 70.4472 85.2429 69.8075 85.6812C69.1667 86.117 68.4862 86.3852 67.7665 86.4797C67.0468 86.5742 66.2916 86.4515 65.5009 86.1115L60.2416 83.8499L66.2168 69.9545L71.701 72.3127C72.4772 72.6465 73.0754 73.0993 73.4921 73.6696C73.9087 74.2398 74.1588 74.9126 74.2361 75.6872C74.3161 76.4608 74.2466 77.327 74.0308 78.2786C73.8134 79.2338 73.4669 80.2645 72.9912 81.3708C72.5748 82.3392 72.1009 83.1862 71.5676 83.9218L71.5686 83.9244Z" fill="#CA9C28"/>
</g>
<defs>
<clipPath id="clip0_1294_870">
<rect width="100.709" height="100.838" fill="white" transform="translate(93.7069 0.31958) rotate(68.2684)"/>
</clipPath>
</defs>
</svg>
