<svg xmlns="http://www.w3.org/2000/svg" width="251" height="191" viewBox="0 0 251 191" fill="none">
  <path d="M6.52142 88.4551C11.1988 93.9698 18.8253 94.5683 25.1571 92.1136C39.3138 86.6258 51.1267 71.9681 55.2157 57.4651C56.5271 52.8179 57.3375 48.0094 58.3328 43.2714C58.5312 42.3232 58.7397 41.3783 58.9583 40.4401C60.8044 28.6305 66.0265 16.8109 76.1783 9.71237C94.397 -3.032 119.617 1.36632 136.877 13.2499C137.6 13.6937 138.293 14.1376 138.972 14.568C142.365 16.7268 145.371 18.6032 149.514 18.9764C154.827 19.4573 160.342 18.9092 165.601 18.1559C197.647 13.5559 245.298 19.9785 259.092 54.6943C264.166 67.4622 262.636 81.6491 258.631 94.4809C257.646 97.6384 256.405 100.766 256.193 104.068C255.44 115.635 267.626 121.638 274.261 129.072C281.568 137.26 286.911 147.234 289.541 157.92C289.769 158.855 289.981 159.837 289.762 160.772C289.46 162.06 288.411 163.015 287.392 163.855C283.787 166.821 273.36 176.405 268.948 172.366C265.367 169.088 265.531 162.43 263.215 158.354C259.102 151.124 253.433 144.907 247.693 138.965C241.361 132.415 235.372 125.114 230.489 117.414C228.633 114.489 224.665 109.014 225.651 105.218C227.349 98.6607 234.763 103.624 237.104 107.229C244.347 118.399 244.939 133.841 244.908 146.719C244.892 153.596 245.534 160.452 245.13 167.352C244.76 173.637 244.007 179.552 243.291 185.719C243.234 186.213 243.17 186.721 242.914 187.145C240.94 190.387 226.051 188.83 223.357 186.509C220.317 183.893 223.283 177.582 223.774 174.323C224.447 169.834 224.891 165.278 224.649 160.735C224.433 156.76 223.62 152.796 222.046 149.134C216.239 135.599 198.998 129.704 185.662 126.94C173.627 124.445 157.507 125.417 157.611 141.383C157.695 154.43 159.841 167.951 158.906 180.89C158.849 181.694 158.724 182.595 158.085 183.083C157.561 183.483 156.841 183.48 156.182 183.456C152.796 183.342 139.671 186.476 139.54 181.721C139.288 172.477 138.471 163.815 136.675 154.733C134.816 145.341 133.061 135.814 134.984 126.275C136.447 119.025 140.287 111.916 146.666 108.237C149.04 106.869 152.665 106.334 154.01 108.732C154.918 110.349 154.191 112.373 153.334 114.018C150.186 120.064 145.304 125.148 139.507 128.672C134.406 131.776 129.264 131.641 124.079 133.686C117.367 136.329 113.218 143.626 110.504 149.934C109.014 153.394 107.804 157.029 106.997 160.715C106.516 162.921 107.091 168.049 105.645 169.76C103.382 172.44 80.9701 174.31 79.588 170.893C78.5725 168.351 81.7569 161.159 82.5572 158.616C83.7577 154.8 85.17 151.05 86.8076 147.402C87.0194 146.928 87.2414 146.457 87.47 145.993C92.208 136.369 98.069 127.014 104.192 118.228C108.755 111.681 106.923 103.247 104.112 96.1555C101.61 89.8472 98.0051 84.0433 95.157 77.8863C94.6291 76.7464 94.1549 75.6435 93.7279 74.5674C93.3042 73.4914 92.9276 72.4456 92.6048 71.4133C90.9033 65.7775 89.9718 59.9265 90.1433 54.1529C90.1736 52.9962 90.2509 51.8428 90.3652 50.686C93.1293 23.0082 118.093 6.69609 143.354 20.8696C144.315 21.411 145.257 21.9927 146.175 22.6181C151.548 26.6533 157.097 31.5762 157.749 38.4729C158.401 44.3811 153.832 48.6516 149.564 52.0882C148.734 52.6935 147.876 53.2618 146.992 53.7931C144.335 55.387 141.43 56.6278 138.491 57.5155C137.513 58.1712 137.187 59.486 136.756 60.7941C136.578 61.5843 136.47 62.4115 136.379 63.2488C136.01 66.5879 135.885 69.9774 134.157 72.792C125.703 86.572 106.664 75.0483 94.3466 75.6435C89.1883 75.8923 83.8384 75.3476 78.9054 77.2239C75.2401 78.6194 72.0288 80.99 68.9957 83.4818C64.4797 87.1941 59.9772 91.7168 59.1634 97.5275C59.002 98.6842 59.1701 100.147 60.2495 100.574C60.7337 100.766 61.2785 100.682 61.7829 100.561C67.4859 99.2155 71.4269 94.0068 74.1305 88.7813C75.9396 85.2841 79.9444 76.6993 74.5878 75.3946C70.4181 74.3791 67.2169 78.6362 64.9068 81.3431C55.2459 92.6584 41.5298 102.312 26.7745 100.796C21.8315 100.288 17.0229 98.5127 12.9272 95.6814C2.54679 88.5089 -1.03105 71.3965 4.82665 60.5654C8.73066 53.3492 12.9978 46.2978 16.0881 38.6949C19.1784 31.092 21.0715 22.7863 19.9518 14.6487C19.5718 11.888 18.8085 10.4757 17.1776 8.34714C14.8372 5.30396 11.4309 3.10817 7.7017 2.25406" stroke="#CA9C28" stroke-width="4" stroke-linecap="round" stroke-linejoin="round"/>
</svg>