<svg xmlns="http://www.w3.org/2000/svg" width="293" height="183" viewBox="0 0 293 183" fill="none">
  <path d="M91.941 10.623C88.8364 9.34464 81.5161 8.11191 78.2441 7.65535C77.331 6.9705 74.6829 5.14425 71.3956 3.31799C67.2865 1.03517 65.6886 2.17658 62.2643 3.31799C58.8401 4.4594 56.329 4.91596 53.3613 6.74222C50.3937 8.56848 47.1977 7.65535 41.4906 8.79676C35.7836 9.93817 33.2725 12.9058 29.3917 14.0473C25.5109 15.1887 20.0321 11.7644 17.521 14.0473C15.0099 16.3301 12.2705 16.5584 8.38973 16.5584C4.50893 16.5584 8.38973 20.8957 4.73721 23.4068C1.0847 25.9179 1.76954 32.3098 2.91096 34.3644C4.05237 36.4189 3.5958 44.1805 4.73721 48.9744C5.87862 53.7684 6.79175 55.5946 4.73721 63.1279C2.68267 70.6612 6.10691 70.6612 6.79175 78.6511C7.4766 86.641 12.4988 87.0976 16.3796 93.7177C20.2604 100.338 23.9129 97.142 33.2725 101.479C42.6321 105.817 39.6644 108.328 47.1977 108.556C54.731 108.784 57.927 111.524 62.2643 116.089C66.6017 120.655 71.8522 124.308 76.6461 124.308C81.44 124.308 84.1794 129.33 88.7451 131.384C93.3107 133.439 108.377 131.841 110.888 124.308C113.4 116.774 124.814 118.372 128.238 119.97C131.662 121.568 139.652 119.97 149.696 119.97C159.741 119.97 158.599 119.97 163.165 124.308C167.731 128.645 167.046 138.918 172.296 145.538C177.547 152.158 188.733 150.788 198.092 158.778C207.452 166.768 218.181 168.138 227.312 168.138C236.444 168.138 223.432 145.994 224.345 133.667C225.258 121.34 239.868 128.417 246.488 129.33C253.108 130.243 264.294 128.873 270.458 126.59C276.621 124.308 282.785 116.089 288.035 116.089C293.286 116.089 290.318 121.112 299.678 119.97C309.037 118.829 317.027 122.253 326.159 124.308C335.29 126.362 333.235 146.907 333.692 150.788C334.148 154.669 344.878 157.865 353.096 158.778C361.314 159.691 368.391 163.116 375.924 166.083C383.457 169.051 407.884 181.378 412.449 180.465C417.015 179.552 419.526 169.507 421.809 170.421C424.092 171.334 431.168 171.79 435.506 170.421C439.843 169.051 447.605 166.996 453.54 166.083C459.475 165.17 459.475 156.039 461.986 153.071C464.498 150.103 464.498 144.168 464.498 139.146C464.498 134.124 459.932 129.786 459.475 126.59C459.019 123.394 456.508 118.6 454.681 116.089C452.855 113.578 454.453 110.154 453.54 106.273C452.627 102.392 450.801 99.4248 449.888 95.544C448.974 91.6632 443.267 88.9238 442.126 85.7279C440.984 82.5319 442.126 78.6511 439.158 77.2814C436.191 75.9117 430.712 70.8895 428.886 68.1501C427.059 65.4107 425.461 56.9643 424.092 54.9098C422.722 52.8552 422.722 48.0613 420.211 44.6371C417.7 41.2128 412.221 35.7341 407.655 35.7341C403.09 35.7341 395.556 37.5603 390.078 37.5603C384.599 37.5603 380.718 35.7341 376.152 37.5603C371.587 39.3866 365.88 40.2997 361.086 40.2997C356.292 40.2997 347.161 45.5502 346.932 35.7341C346.704 25.9179 336.888 23.4068 333.464 23.4068C330.039 23.4068 329.583 24.7765 323.876 24.7765C318.169 24.7765 312.005 30.7119 310.407 30.7119C308.809 30.7119 303.102 30.7119 298.993 32.3098C294.884 33.9078 291.003 32.3098 282.785 32.3098C274.567 32.3098 273.654 34.3644 271.599 37.5603C269.545 40.7563 264.066 39.8431 258.815 40.2997C253.565 40.7563 245.118 33.6795 242.607 34.3644C240.096 35.0492 230.737 32.3098 226.628 27.9725C222.518 23.6351 214.529 23.4068 210.419 23.4068C206.31 23.4068 205.169 24.7765 198.321 23.4068C191.472 22.0371 168.644 24.7765 164.306 26.3745C159.969 27.9725 150.381 30.2553 147.414 30.7119C144.446 31.1684 136.913 30.027 135.086 32.3098C133.26 34.5926 122.303 34.5926 121.389 32.3098C120.476 30.027 117.052 25.4614 114.541 24.7765C112.03 24.0917 105.638 18.8412 104.497 16.5584C103.355 14.2755 95.8218 12.221 91.941 10.623Z" stroke="#CA9C28" stroke-width="3"/>
</svg>