<svg xmlns="http://www.w3.org/2000/svg" width="116" height="379" viewBox="0 0 116 379" fill="none">
<path d="M42.5877 53.5868C46.282 55.8957 55.6715 57.884 59.9045 58.5895C62.021 78.7923 53.555 102.459 49.1296 103.036C44.7043 103.613 40.2788 103.036 37.5851 104.383C34.8914 105.73 26.8102 103.228 23.9241 104.383C21.038 105.537 16.805 103.998 15.6506 107.076C14.4961 110.155 6.79977 109.578 2.75919 112.849C-1.28138 116.12 12.1872 117.082 10.8403 120.545C9.49349 124.008 12.3796 125.74 19.3063 127.472C26.233 129.203 26.8102 127.087 30.0812 127.472C33.3521 127.857 30.2736 129.973 35.4686 130.935C40.6637 131.897 41.6257 138.439 41.2409 142.287C40.8561 146.135 47.2055 144.596 53.555 145.558C59.9045 146.52 56.826 156.525 55.0943 159.604C53.3626 162.682 53.7474 168.262 56.826 173.842C59.9045 179.422 55.0943 189.235 50.6689 202.126C46.2683 214.945 33.877 214.256 26.9273 213.87L26.8102 213.863C19.8835 213.478 27.1951 220.02 28.9267 220.79C30.6584 221.559 33.3521 228.871 37.0079 227.909C40.6637 226.947 41.8181 229.256 47.2055 235.028C52.593 240.8 51.0537 258.887 47.2055 261.965C43.3574 265.044 48.36 268.315 47.2055 274.472C46.0511 280.629 54.3246 281.591 55.0943 288.71C55.8639 295.829 58.9425 300.062 62.2134 290.442C65.4843 280.821 79.915 284.285 89.7278 286.016C99.5406 287.748 115.703 296.791 128.402 308.336C141.101 319.88 128.209 324.306 132.25 323.728C136.291 323.151 137.637 328.346 141.101 333.156C144.564 337.967 140.524 347.972 146.103 359.324C151.683 370.676 146.488 372.408 146.103 388.762C145.719 405.117 155.147 402.423 157.456 407.234C159.764 412.044 162.651 420.51 168.23 416.662C173.81 412.813 176.696 416.662 180.929 416.662C185.162 416.662 193.436 424.165 197.477 425.897C201.517 427.629 212.292 406.849 218.257 412.044C224.221 417.239 228.647 418.008 236.151 416.662C243.655 415.315 248.465 425.897 260.202 425.897C271.939 425.897 268.09 405.887 263.665 402.423C259.24 398.96 250.004 390.686 236.151 374.332C222.297 357.977 240.961 351.243 243.462 351.05C245.963 350.858 264.242 342.777 243.462 330.078C222.682 317.379 230.956 301.024 236.151 276.973C241.346 252.922 220.95 241.57 223.644 226.562C226.338 211.554 218.834 195.584 214.408 185.579C209.983 175.574 220.373 157.295 203.441 147.29C186.509 137.285 185.547 131.32 182.276 125.74C179.005 120.16 181.507 113.618 183.431 111.309C185.355 109.001 184.008 104.768 184.393 100.342C184.778 95.9167 184.2 92.4534 182.276 89.3748C180.352 86.2963 159.764 75.9063 156.686 70.7112C153.607 65.5162 150.336 72.4429 145.911 75.9063C141.486 79.3696 128.017 77.2531 131.673 84.757C135.329 92.261 134.944 102.266 109.161 92.4534C83.3783 82.6405 91.2671 71.6733 96.6545 67.8251C102.042 63.9769 91.4595 58.5895 88.1885 53.5868C84.9176 48.5842 93.1911 40.6955 89.9202 38.3866C86.6493 36.0777 83.9555 26.0725 82.6087 19.1458C81.2618 12.2191 73.7579 21.0699 71.8338 14.1431C69.9097 7.21636 65.4843 2.5986 57.4032 2.5986C49.322 2.5986 37.3927 1.25174 28.3495 2.5986C19.3063 3.94546 19.1139 8.56327 8.53146 14.1431C-2.051 19.723 8.33905 29.3434 12.572 34.346C16.805 39.3486 9.30109 43.3892 15.6506 49.7387C22 56.0881 37.9699 50.7007 42.5877 53.5868Z" stroke="#CA9C28" stroke-width="3"/>
</svg>
