<svg xmlns="http://www.w3.org/2000/svg" width="124" height="444" viewBox="0 0 124 444" fill="none">
<path d="M-111.886 55.5272C-108.052 57.9229 -98.3097 59.9859 -93.9175 60.718C-91.7214 81.6807 -100.506 106.237 -105.098 106.836C-109.69 107.435 -114.281 106.836 -117.076 108.234C-119.871 109.631 -128.257 107.036 -131.251 108.234C-134.246 109.432 -138.638 107.834 -139.836 111.029C-141.034 114.223 -149.02 113.624 -153.212 117.018C-157.405 120.412 -143.43 121.41 -144.827 125.004C-146.225 128.597 -143.23 130.394 -136.043 132.191C-128.855 133.988 -128.257 131.792 -124.863 132.191C-121.469 132.59 -124.663 134.786 -119.273 135.785C-113.882 136.783 -112.884 143.571 -113.283 147.564C-113.682 151.557 -107.094 149.96 -100.506 150.958C-93.9175 151.956 -97.1119 162.338 -98.9087 165.532C-100.705 168.726 -100.306 174.516 -97.1119 180.306C-93.9175 186.095 -98.9087 196.277 -103.501 209.654C-108.067 222.955 -120.924 222.24 -128.135 221.839L-128.257 221.832C-135.444 221.433 -127.857 228.221 -126.06 229.019C-124.264 229.818 -121.469 237.404 -117.675 236.406C-113.882 235.408 -112.684 237.804 -107.094 243.793C-101.504 249.782 -103.101 268.549 -107.094 271.743C-111.087 274.938 -105.896 278.332 -107.094 284.72C-108.292 291.109 -99.7073 292.107 -98.9087 299.494C-98.1101 306.881 -94.9158 311.273 -91.5218 301.291C-88.1278 291.309 -73.1544 294.902 -62.9725 296.699C-52.7906 298.496 -36.0203 307.879 -22.8437 319.858C-9.66713 331.837 -23.0434 336.428 -18.8508 335.83C-14.6583 335.231 -13.2608 340.621 -9.66713 345.612C-6.07352 350.603 -10.2661 360.985 -4.47635 372.764C1.31337 384.543 -4.07706 386.34 -4.47635 403.31C-4.87564 420.28 4.907 417.485 7.30275 422.476C9.69849 427.467 12.6932 436.251 18.4829 432.258C24.2726 428.265 27.2673 432.258 31.6595 432.258C36.0517 432.258 44.6364 440.044 48.829 441.841C53.0216 443.638 64.2017 422.076 70.3907 427.467C76.5797 432.857 81.1716 433.656 88.9578 432.258C96.7439 430.861 101.735 441.841 113.913 441.841C126.092 441.841 122.099 421.078 117.507 417.485C112.915 413.891 103.332 405.306 88.9578 388.336C74.5833 371.366 93.9489 364.379 96.5443 364.179C99.1397 363.98 118.106 355.594 96.5443 342.418C74.9826 329.241 83.5673 312.271 88.9578 287.316C94.3482 262.36 73.1858 250.581 75.9808 235.009C78.7758 219.436 70.9897 202.866 66.3978 192.484C61.806 182.102 72.5868 163.136 55.018 152.755C37.4492 142.373 36.451 136.184 33.057 130.394C29.663 124.605 32.2584 117.817 34.2549 115.421C36.2513 113.025 34.8538 108.633 35.2531 104.041C35.6524 99.4492 35.0535 95.8556 33.057 92.6613C31.0606 89.467 9.69849 78.6861 6.50417 73.2957C3.30983 67.9053 -0.0841522 75.0925 -4.67599 78.6861C-9.26784 82.2797 -23.243 80.0836 -19.4498 87.8698C-15.6565 95.656 -16.0558 106.038 -42.8083 95.8556C-69.5608 85.6737 -61.3753 74.2939 -55.7852 70.301C-50.1952 66.3081 -61.1757 60.718 -64.5696 55.5272C-67.9636 50.3364 -59.3789 42.151 -62.7728 39.7552C-66.1668 37.3595 -68.9618 26.9779 -70.3594 19.7907C-71.7569 12.6034 -79.5431 21.7871 -81.5395 14.5999C-83.536 7.41257 -88.1278 2.62112 -96.5129 2.62112C-104.898 2.62112 -117.276 1.2236 -126.659 2.62112C-136.043 4.01864 -136.242 8.81013 -147.223 14.5999C-158.203 20.3896 -147.423 30.3718 -143.03 35.5626C-138.638 40.7534 -146.424 44.946 -139.836 51.5343C-133.248 58.1226 -116.677 52.5325 -111.886 55.5272Z" stroke="#CA9C28" stroke-width="3"/>
</svg>