<svg xmlns="http://www.w3.org/2000/svg" width="230" height="209" viewBox="0 0 230 209" fill="none">
  <path d="M69.6187 209C63.6434 209 56.8353 208.956 49.2608 208.898C42.0453 208.843 34.5842 208.785 27.6216 208.785H1.07925C0.798711 208.785 0.571777 208.558 0.571777 208.277C0.571777 207.997 0.799605 207.77 1.07925 207.77H27.6207C34.5878 207.77 42.0507 207.827 49.2679 207.883C72.0346 208.058 95.5758 208.24 98.0909 206.479C100.247 204.97 100.802 204.988 102.807 205.305C104.019 205.497 105.85 205.786 109.197 205.786H109.743C119.759 205.786 120.717 205.666 121.652 201.902C121.801 201.301 122.082 200.96 122.486 200.889C123.314 200.751 124.04 201.842 125.051 203.36C125.581 204.155 126.13 204.977 126.611 205.458C126.995 205.843 127.515 205.582 128.609 204.809C129.394 204.254 130.136 203.729 130.88 203.947C131.288 204.066 131.606 204.392 131.822 204.916C132.088 205.563 132.881 205.484 134.499 205.166C136.184 204.836 138.491 204.385 139.334 206.63C139.922 208.2 143.736 207.635 147.426 207.089C150.468 206.638 153.614 206.173 155.705 206.743C156.728 207.022 156.945 206.867 156.947 206.865C157.179 206.342 155.297 203.748 154.287 202.355C153.631 201.45 152.952 200.515 152.45 199.713C152.1 199.153 151.916 199.135 151.916 199.135C151.727 199.135 151.266 199.824 151.018 200.194C150.408 201.109 149.648 202.247 148.419 202.432C147.61 202.559 146.758 202.247 145.822 201.489C145.203 200.988 144.63 200.472 144.102 199.979C141.042 201.844 137.454 202.539 135.962 201.45C135.518 201.126 134.643 200.153 136.092 198.117C137.203 196.556 138.227 195.781 139.313 195.677C140.904 195.532 142.263 196.825 143.986 198.471C144.067 198.549 144.15 198.628 144.234 198.708C145.194 198.043 146.087 197.23 146.808 196.268C147.566 195.255 148.202 194.349 148.764 193.549C150.371 191.263 151.253 189.997 152.348 190.09C153.091 190.15 153.706 190.817 154.469 192.391C156.177 195.917 157.144 196.458 157.567 196.466C157.967 196.46 158.298 195.978 158.521 195.561C158.651 195.317 159.047 194.575 159.766 194.575H159.77C160.658 194.579 161.231 195.678 161.838 196.842C162.026 197.201 162.287 197.703 162.479 197.964C162.513 197.882 162.554 197.768 162.598 197.608C163.558 194.14 164.793 173.191 164.6 163.644C164.567 161.984 164.506 160.476 164.44 159.098C163.609 159.031 162.697 158.756 161.73 158.213C157.987 156.114 156.197 156.677 153.929 157.39C152.702 157.776 151.311 158.214 149.461 158.278C147.852 158.337 146.768 158.156 145.812 158C144.418 157.772 143.319 157.591 141.091 158.257C140.259 158.506 139.393 158.741 138.536 158.92C138.573 159.511 138.558 160.17 138.476 160.903C138.272 162.745 137.357 164.265 135.9 165.184C134.056 166.346 131.565 166.475 128.881 165.541C126.528 164.724 124.909 165.178 123.481 165.579C122.107 165.965 120.808 166.328 119.252 165.512C118.067 164.891 117.36 163.761 117.31 162.412C117.244 160.617 118.348 158.832 120.265 157.639C123.007 155.931 123.654 154.873 123.715 154.286C123.734 154.103 123.717 153.823 123.365 153.487C122.895 153.039 122.367 153.102 121.4 153.265C120.315 153.447 118.967 153.673 117.416 152.738C115.779 151.752 115.181 150.422 115.015 149.266C114.013 149.524 112.859 149.673 111.543 149.673C110.807 149.673 110.304 149.818 110.047 150.102C109.623 150.57 109.724 151.571 109.832 152.63C110.013 154.433 110.24 156.677 108.213 158.179C105.728 160.021 102.508 159.779 99.6008 157.532C98.786 156.903 97.9962 156.652 97.251 156.795C96.3192 156.971 95.4034 157.77 94.6011 159.108C93.6728 160.657 92.6605 160.903 91.9753 160.834C91.1426 160.752 89.9775 160.121 88.9072 157.726C88.0629 158.263 87.0587 158.717 85.8829 159.029C84.1452 159.49 82.7844 159.419 81.6936 159.363C80.474 159.299 79.5949 159.254 78.6871 159.917C77.4756 160.802 75.5449 161.285 74.1985 160.494C73.6874 160.194 72.8932 159.469 72.9271 157.873C72.6787 158.159 72.3928 158.51 72.1525 158.806C71.2144 159.96 70.1503 161.269 69.2041 161.789C67.9864 162.46 66.6623 162.388 65.7492 161.606C64.4877 160.523 64.3224 158.376 65.2953 155.716C65.6697 154.694 65.5723 154.171 65.3757 154.035C65.005 153.777 63.6818 154.053 61.5572 155.873C59.2843 157.819 56.9417 158.826 54.8117 158.826H54.7947C54.3989 161.167 52.6317 163.849 49.4805 164.736C44.1208 166.246 40.5283 162.949 39.6884 160.127C39.3203 158.89 38.9192 158.619 38.7959 158.619C38.6109 158.62 38.1937 159.052 37.8631 160.207C37.5165 161.422 36.7124 161.721 36.0771 161.594C34.7164 161.325 33.4736 159.132 33.7926 156.294C33.9213 155.153 34.2027 154.266 34.4502 153.485C34.8638 152.183 35.1944 151.143 34.6905 149.392C33.8766 149.524 32.9697 149.452 32.0066 149.104C30.377 148.516 29.3022 147.109 28.9796 145.141C28.4346 141.817 30.184 137.803 33.2342 135.38C37.6523 131.871 42.0087 131.348 46.1837 133.825C48.5299 135.218 50.265 134.054 52.2752 132.706C52.7076 132.416 53.1553 132.116 53.6163 131.839C55.1691 130.903 56.5709 130.403 57.8154 130.339C57.9602 128.863 58.8268 127.567 60.2072 126.77L60.8853 126.38C63.2431 125.033 64.2187 124.474 64.2732 122.592C64.2983 121.731 63.9364 121.067 63.2547 120.725C61.9682 120.08 59.9552 120.685 57.8682 122.341C56.7737 123.209 56.0652 123.03 55.6649 122.723C54.7688 122.042 54.8296 120.116 55.2647 119.09C55.9321 117.516 57.3303 116.738 58.4543 116.113C59.3129 115.636 60.0544 115.224 60.1768 114.641C60.4136 113.51 59.5344 112.727 58.0799 111.545C56.5879 110.331 54.8966 108.955 54.6768 106.606C54.5052 104.774 55.0377 103.305 56.2171 102.359C58.1201 100.832 61.4902 100.786 65.9645 102.224C69.1407 103.245 71.3618 102.816 71.9148 101.867C72.3258 101.158 71.8478 100.074 70.6345 98.963C68.56 97.0635 65.9386 94.0642 67.126 89.9598C67.2162 89.6488 67.2913 89.3415 67.3529 89.0404C65.9458 89.0047 64.6154 88.465 63.5871 87.4152C62.6811 86.4905 62.4176 84.9931 62.9742 83.9335C63.4531 83.0222 64.426 82.6219 65.6465 82.831C66.5926 82.9954 67.3574 83.5038 67.8568 84.3034C68.4134 85.1941 68.6413 86.4682 68.5323 87.9174C69.5597 87.7119 70.5979 87.2008 71.5289 86.3905C75.2429 83.1562 78.8006 82.9588 81.8445 85.8053C83.3768 84.2551 85.4415 83.2661 87.6743 83.066C90.3242 82.8292 91.6072 81.657 91.7037 80.6001C91.7993 79.5556 90.795 78.5845 89.1475 78.127C86.6218 77.4257 84.6526 78.6282 83.476 79.3466L83.2419 79.4886C81.8883 80.3026 80.5267 80.3615 79.6878 79.6423C78.7675 78.8534 78.6773 77.331 79.4403 75.4664C79.837 74.497 80.2908 73.7286 80.7295 72.9871C81.589 71.5334 82.3306 70.279 82.3306 67.9355C82.3306 64.712 83.1347 62.3917 84.5946 61.4009C85.5756 60.7344 86.7853 60.6808 88.1898 61.241C89.8444 61.9003 90.9139 63.1002 91.9485 64.2608C93.0956 65.5483 94.0865 66.6606 95.6947 66.8545C97.0831 67.0207 98.2624 66.573 99.0219 65.592C99.2568 65.2883 99.4382 64.9497 99.5642 64.5878C98.6421 64.1286 97.9059 63.3727 97.5772 62.4641C97.0706 61.0632 97.5593 60.0447 98.3053 59.7641C98.9665 59.5149 99.867 59.8499 100.383 61.1642C100.749 62.0978 100.869 63.0556 100.752 63.9517C101.035 64.0205 101.329 64.0544 101.627 64.0526C103.07 64.0375 104.203 63.1253 104.736 61.5501C105.376 59.6587 105.05 57.7423 103.863 56.4236C102.756 55.1924 101.096 54.7153 99.3086 55.1173C97.4565 55.5328 96.2906 56.2699 95.2631 56.9194C94.0704 57.6735 92.9438 58.3855 91.1256 58.3873H91.1202C89.3441 58.3873 87.9959 57.6699 87.3222 56.3682C86.4824 54.7466 86.8585 52.4728 88.3032 50.433C88.7053 49.8648 88.7526 49.5762 88.7178 49.4949C88.6061 49.2376 87.542 49.0929 86.7656 48.9874C85.102 48.7614 82.8238 48.4514 81.4738 46.7994C80.0192 45.0179 79.6976 42.7548 80.6143 40.7428C81.2915 39.2561 82.5334 38.2251 83.853 38.0196C84.1934 36.8259 85.5443 33.1655 89.4236 32.5919C91.9708 32.2158 93.7479 33.1208 94.7878 33.9473C94.9728 34.0947 95.1497 34.251 95.3167 34.4163C95.4624 34.1661 95.6295 33.9249 95.818 33.698C96.8293 32.4838 98.2982 31.8745 100.069 31.9495C101.783 32.0219 102.683 30.8291 103.812 29.3228C104.79 28.0184 105.898 26.5415 107.788 25.573C110.813 24.0229 112.591 24.9396 113.381 25.6231C115.077 27.0901 115.479 30.0724 114.403 33.2209C114.09 34.1411 114.192 34.4056 114.231 34.4646C114.345 34.6379 114.91 34.6826 115.455 34.7245C116.535 34.8085 118.015 34.9229 119.412 36.0227C120.21 36.6508 120.526 37.3236 120.832 37.9731C121.269 38.9023 121.682 39.7796 123.715 40.6087C125.573 41.3655 127.016 43.0041 127.574 44.992C127.658 45.2949 127.722 45.5977 127.763 45.8988C128.841 45.8077 129.961 45.9721 130.976 46.4849C132.322 47.1657 133.586 47.2917 134.444 46.8316C135.087 46.4867 135.483 45.83 135.59 44.9312C135.853 42.7074 134.209 40.7383 131.766 40.3523L131.643 40.3336C129.164 39.9422 127.022 39.6045 126.186 36.6678C126.114 36.414 126.059 36.1621 126.02 35.9119C125.318 35.886 124.524 35.7154 123.639 35.3303C120.65 34.0295 118.997 31.8745 119.217 29.5649C119.412 27.5145 121.086 25.842 123.482 25.3041C126.438 24.6412 127.481 22.8284 128.586 20.9084C128.701 20.7074 128.817 20.5063 128.935 20.3053C129.904 18.6632 131.396 17.6518 132.808 17.6822C133.68 17.6973 134.925 18.0931 135.902 19.8907C135.999 20.0685 136.192 20.3687 136.398 20.3848C136.895 20.4375 137.764 19.3118 138.284 18.6462C138.56 18.2924 138.82 17.9591 139.059 17.7152C140.132 16.6199 141.335 16.149 142.453 16.3911C143.686 16.6574 144.713 17.7608 145.345 19.4958C146.007 21.314 147.091 22.5201 148.478 22.9829C149.395 23.2903 150.443 23.2697 151.584 22.9356C150.768 22.245 150.059 21.4257 149.531 20.4885C148.188 18.1039 148.023 16.0061 149.066 14.5792C150.164 13.08 152.495 12.5324 155.301 13.1202C155.727 13.2087 156.048 13.1739 156.283 13.0139C156.861 12.619 157.062 11.4308 157.273 10.1728C157.582 8.34391 157.931 6.27023 159.611 5.33659C162.161 3.91959 165.314 5.635 167.199 6.65977L167.388 6.76252C169.734 8.03299 171.316 6.40336 172.23 4.81214C173.639 2.35785 175.644 1.81018 178.188 3.18607C178.941 3.59438 179.993 2.84746 181.785 1.493L182.351 1.06683C183.674 0.0768992 185.141 -0.235805 186.483 0.183219C188.128 0.697841 189.455 2.24349 190.22 4.53428C191.286 7.7319 192.873 8.91125 194.554 10.1603C196.076 11.2914 197.651 12.4618 198.684 15.143C199.144 16.334 198.807 17.7965 197.784 19.0536C196.575 20.5403 194.231 21.9323 190.933 22.0582C190.953 22.1208 190.974 22.1833 190.994 22.2459C191.376 23.4297 191.737 24.5465 192.755 25.4113C193.074 25.682 193.4 25.9706 193.728 26.2735C194.504 24.9878 196.013 24.1909 198.242 23.896C199.969 23.6673 200.987 22.7792 202.065 21.8384C203.162 20.8816 204.297 19.8925 206.184 19.5709C209.196 19.0545 211.392 20.4947 212.709 23.8406C213.408 25.6195 214.913 26.4352 217.179 26.2824C219.887 26.0877 221.815 27.6726 222.903 30.9766C223.409 32.5169 224.264 33.2236 225.169 33.9723C225.725 34.4324 226.293 34.9014 226.738 35.559C228.835 34.9649 230.827 35.6832 232.971 37.7462C233.318 38.0803 233.523 38.0508 233.59 38.0419C234.227 37.9543 235.011 36.6204 235.768 35.3312C236.405 34.2475 237.064 33.1262 237.863 32.2506C239.058 30.9435 240.657 30.4199 241.663 31.0096C242.174 31.308 242.926 32.1318 242.216 34.2903C242.084 34.6924 241.969 35.2258 242.168 35.4875C242.502 35.9253 243.809 35.8583 244.961 35.8011C246.008 35.7475 247.092 35.693 248.03 35.9012C249.207 36.163 249.968 36.6669 250.357 37.4406C251.003 38.7245 250.485 40.4319 249.441 42.7709C249.014 43.7269 249.605 44.8061 250.29 46.0552C250.638 46.6886 251.019 47.3828 251.296 48.136C252.383 48.5148 253.485 49.1777 254.52 50.098C256.333 51.7106 258.954 51.0808 261.729 50.4134L262.191 50.3026C263.817 49.9139 265.34 50.1596 266.478 50.9896C267.578 51.7937 268.224 53.091 268.348 54.7421C268.464 56.2976 267.868 57.9076 266.8 59.0994C267.92 60.4217 268.726 62.3113 268.802 64.8558C268.875 67.278 267.724 69.6581 265.724 71.2225C263.826 72.7074 261.492 73.2095 259.321 72.6011C258.626 72.4063 257.997 72.2223 257.423 72.0543C257.282 72.0132 257.145 71.9739 257.011 71.9346C256.727 73.147 255.958 74.1691 254.79 74.8427C252.637 76.0855 251.133 75.243 250.499 74.1441C249.857 73.0335 249.93 71.3932 251.166 70.6802C252.591 69.8591 253.924 70.0226 256.112 70.6221C256.112 70.6078 256.11 70.5935 256.109 70.5792C255.998 68.8594 254.834 67.2065 253.279 66.5614C251.565 65.8485 249.696 65.9128 248.153 66.7374C247.006 67.3494 245.525 68.6548 244.978 71.3967C244.471 73.9421 245.094 75.2046 245.696 76.425C246.227 77.5007 246.776 78.6122 246.279 80.3597C245.761 82.1832 246.178 83.334 246.62 83.9782C247.102 84.6804 247.849 85.1271 248.671 85.2031C250.243 85.3487 251.779 83.2688 253.26 81.2568L253.384 81.0879C254.886 79.0491 256.341 78.6801 257.288 78.7265C258.653 78.7944 259.957 79.7611 260.958 81.4479C261.217 81.8839 261.401 82.0063 261.469 82.009H261.475C261.736 82.009 262.315 81.2219 262.738 80.6456C263.885 79.0839 265.457 76.9459 268.282 76.8789C270.296 76.844 272.885 77.7616 273.801 82.4593C274.122 84.1032 275.005 84.9261 275.945 85.6132C277.437 84.3329 279.73 84.1158 281.253 84.5732C283.935 85.3773 285.661 87.878 285.989 91.4322C286.114 92.7866 286.594 93.8042 287.057 94.7879C287.527 95.7859 287.972 96.7285 288.009 97.9069C288.069 99.8332 287.271 101.758 285.814 103.217C287.165 104.57 288.033 106.133 288.017 107.313C288.007 107.999 288.534 108.538 289.201 109.221C290.025 110.066 291.052 111.117 291.331 112.856C291.6 114.531 292.642 115.102 293.746 115.706C294.466 116.1 295.202 116.503 295.638 117.21C296.115 116.616 296.89 115.886 298.012 115.512C299.39 115.053 300.931 115.245 302.594 116.081C303.296 115.87 305.541 115.334 307.573 116.353C308.988 117.061 309.987 118.361 310.544 120.216C311.275 122.653 310.597 125.298 308.773 127.117C307.605 128.283 306.154 128.955 304.65 129.071C305.072 130.267 305.193 131.713 305.002 133.355C304.906 134.173 304.766 135.376 304.847 135.744C305.065 135.712 305.55 135.516 305.985 135.34C306.412 135.168 306.944 134.953 307.578 134.731C309.757 133.969 315.311 132.849 319.804 138.929C322.952 143.19 324.204 143.788 325.415 144.367L325.465 144.39C327.432 145.331 328.651 146.763 328.65 148.128C328.649 148.995 328.156 149.705 327.264 150.129C324.767 151.313 322.974 151.571 320.006 151.997C318.327 152.238 316.237 152.537 313.408 153.097C313.121 153.153 312.836 153.197 312.554 153.226C312.991 153.548 313.416 153.944 313.815 154.433C316.049 157.163 316.293 160.531 314.471 163.443C312.64 166.367 309.191 167.89 306.081 167.15C303.989 166.653 302.626 165.751 301.531 165.028C299.961 163.99 299.014 163.364 296.948 164.316C292.949 166.158 288.6 165.169 286.376 161.909C285.342 160.396 285.104 158.148 285.739 155.896C285.899 155.324 286.11 154.776 286.366 154.257C284.57 152.462 284.107 149.55 283.761 147.374C283.701 146.994 283.643 146.631 283.582 146.291C283.059 143.394 281.683 141.759 279.706 141.686C277.738 141.622 275.589 143.199 275.107 145.078C274.577 147.139 275.927 148.188 277.489 149.403C278.528 150.21 279.601 151.044 280.197 152.245C281.131 154.123 281.193 156.061 280.37 157.701C279.605 159.227 278.122 160.325 276.404 160.637C275.417 160.816 275.074 161.448 274.597 162.321C273.789 163.806 272.783 165.655 268.336 165.884C265.941 166.009 264.335 164.728 262.92 163.6C261.319 162.321 260.054 161.313 257.975 162.295C254.348 164.007 252.044 163.997 249.471 162.256C247.12 160.667 245.772 159.935 243.185 162.026C241.169 163.654 239.012 164.349 237.269 163.928C235.91 163.601 234.828 162.605 234.136 161.05C233.822 160.342 233.646 159.648 233.574 158.985C233.045 158.707 232.545 158.336 232.107 157.88C230.468 156.173 230.15 153.796 231.232 151.361C232.228 149.121 232.454 147.555 231.924 146.574C231.44 145.678 230.275 145.125 228.146 144.78C226.626 144.533 225.602 143.74 224.698 143.042C223.48 142.1 222.428 141.287 220.312 141.658C218.407 141.992 216.879 143.164 216.324 144.718C215.902 145.897 216.122 147.111 216.927 148.046C217.785 149.045 219.127 149.07 220.681 149.099C222.595 149.136 224.764 149.177 226.117 151.327C227.307 153.217 227.299 155.611 226.098 157.731C226.071 157.777 226.044 157.824 226.016 157.87C227.676 158.5 228.639 159.49 228.659 160.593C228.69 162.158 226.872 163.709 223.258 165.203C218.8 167.045 213.104 166.067 210.838 160.628C210.691 160.276 210.549 159.927 210.41 159.582C208.959 155.998 207.921 153.823 204.997 154.229C203.321 154.462 202.247 155.283 201.209 156.075C200.027 156.978 198.805 157.909 196.911 157.591C194.622 157.204 192.686 155.585 191.732 153.259C191.575 152.875 191.449 152.484 191.355 152.09C190.805 151.999 190.262 151.859 189.752 151.677C189.462 154.808 188.881 158.273 188.215 159.896C187.565 161.48 186.836 163.16 186.096 164.673C184.353 180.143 185.002 193.612 185.238 195.741C185.509 198.188 185.372 199.06 184.697 199.196C184.194 199.297 183.36 199.468 180.633 190.461C180.367 192.193 180.301 196.411 181.174 201.939C181.405 203.406 180.884 203.923 180.407 204.098C179.032 204.597 176.583 202.504 175.247 200.305C175.139 200.127 175.048 199.994 174.974 199.896C174.9 200.782 175.131 202.903 175.642 205.022C175.804 205.695 175.978 205.808 176.011 205.824C176.137 205.886 176.514 205.708 176.816 205.565C177.624 205.183 178.845 204.606 180.075 205.845C181.669 207.453 183.009 208.178 183.752 207.845C184.388 207.556 184.731 206.384 184.626 204.857C184.522 203.352 184.999 202.951 185.685 202.548C186.29 202.192 187.117 201.706 187.458 198.355C187.711 195.87 188.053 194.967 188.766 194.904C189.744 194.811 190.282 196.399 191.579 200.941L191.676 201.283C191.888 202.024 192.531 204.277 193.234 204.419C193.967 204.566 195.505 202.656 196.084 201.937C196.964 200.843 197.808 200.418 198.456 200.734C199.156 201.076 199.312 202.093 198.918 203.756C198.762 204.415 198.882 204.687 199.019 204.865C199.637 205.669 202.084 206.095 206.956 206.243C209.885 206.331 212.771 206.68 215.318 206.986C219.052 207.437 222.278 207.826 223.36 207.077C223.652 206.876 223.933 206.675 224.198 206.486C225.618 205.474 226.207 205.055 226.693 205.452C227.126 205.806 226.843 206.444 226.706 206.75C226.693 206.781 226.69 206.799 226.69 206.803C226.941 207.439 230.528 207.764 237.352 207.764H590.557C590.837 207.764 591.064 207.992 591.064 208.272C591.064 208.552 590.837 208.779 590.557 208.779H237.352C229.338 208.779 226.541 208.434 225.841 207.356C225.709 207.152 225.656 206.922 225.681 206.687C225.402 206.874 225.077 207.106 224.788 207.312C224.519 207.504 224.233 207.707 223.938 207.912C222.539 208.879 219.459 208.507 215.196 207.994C212.67 207.689 209.808 207.345 206.925 207.257C201.439 207.09 199.077 206.609 198.213 205.482C197.701 204.814 197.806 204.042 197.929 203.52C198.294 201.979 198.006 201.643 198.003 201.641C197.945 201.643 197.536 201.75 196.874 202.573C195.328 204.494 194.147 205.639 193.032 205.415C191.942 205.194 191.331 203.777 190.699 201.561L190.601 201.219C190.098 199.455 189.366 196.889 188.881 196.097C188.772 196.396 188.612 197.049 188.469 198.457C188.106 202.024 187.188 202.842 186.199 203.422C185.755 203.684 185.571 203.792 185.639 204.786C185.78 206.83 185.245 208.282 184.17 208.768C182.969 209.314 181.347 208.569 179.352 206.558C178.663 205.863 178.104 206.077 177.249 206.481C176.7 206.74 176.133 207.006 175.571 206.738C175.139 206.531 174.846 206.061 174.653 205.257C174.41 204.251 173.262 199.203 174.549 198.672C175.263 198.376 175.837 199.321 176.113 199.775C177.41 201.91 179.46 203.366 180.056 203.142C180.183 203.095 180.272 202.748 180.169 202.096C179.321 196.725 178.947 189.102 180.453 188.76C181.133 188.602 181.402 189.494 181.49 189.786C182.996 194.808 183.894 196.859 184.347 197.686C184.351 197.311 184.324 196.734 184.227 195.85C184.002 193.819 183.403 181.561 184.822 167.063C183.83 168.743 182.894 169.836 182.182 169.682C181.348 169.504 181.275 168.273 181.313 167.091C181.344 166.153 181.391 165.11 181.44 164.018C181.643 159.53 181.947 152.747 180.897 151.752C180.841 151.7 180.816 151.704 180.794 151.705C179.528 151.831 178.284 157.467 177.1 168.458C175.652 181.876 175.179 181.845 174.526 181.811C173.866 181.772 173.39 181.742 173.578 167.762C173.756 154.409 172.557 145.072 171.518 139.591C171.358 138.749 171.201 138.275 171.088 138.015C170.88 138.657 170.653 140.246 170.792 143.048C170.835 143.916 170.426 144.495 169.669 144.64C167.769 144.999 163.343 142.237 160.212 138.996C159.234 140.281 157.92 141.144 156.49 141.3C153.967 141.575 151.863 139.599 150.865 136.012C149.949 132.722 148.328 128.011 147.435 126.108C146.988 129.03 144.583 133.096 140.731 133.917C138.345 134.425 137.395 133.158 136.386 131.817C135.505 130.645 134.506 129.316 132.28 128.55C125.07 126.069 117.302 124.288 110.49 123.079C108.675 124.016 105.078 124.024 99.4435 123.127C90.9353 121.774 90.7718 121.261 90.653 120.887C90.5869 120.678 90.6449 120.451 90.8049 120.295C91.5741 119.543 100.007 120.168 110.297 122.007C110.529 121.846 110.668 121.677 110.749 121.52C111.534 120.004 108.575 116.969 107.31 115.674C106.403 114.745 106.13 114.464 106.456 114.05C106.805 113.607 107.191 113.835 108.818 114.797C116.645 119.426 119.998 120.665 126.744 122.261C127.844 122.522 129.049 122.842 130.214 123.15C133.935 124.137 139.031 125.49 139.932 124.361C140.201 124.023 140.061 123.292 139.54 122.303C137.531 118.494 131.319 111.191 126.161 106.08C124.032 106.715 121.843 107.13 118.66 106.232C115.625 105.376 114.863 103.868 114.679 103.044C114.452 102.026 114.83 100.971 115.692 100.224C116.765 99.2935 118.328 99.0541 119.773 99.6009C121.184 100.134 123.666 102.203 126.449 104.928C126.615 104.876 126.781 104.823 126.95 104.769C128.959 104.132 131.236 103.406 134.496 103.606C141.71 104.044 151.89 110.206 156.517 115.463C157.577 116.667 158.833 118.301 160.164 120.029C162.412 122.953 166.609 128.388 167.673 127.952C167.736 127.927 168.274 127.614 167.902 124.57C167.558 121.758 167.312 119.501 167.164 117.698C162.606 111.74 155.204 104.02 150.227 98.829C149.391 97.9578 148.634 97.1672 147.972 96.4712C146.918 96.6883 145.863 96.7794 144.851 96.7222C142.418 96.5891 140.384 95.6599 138.968 94.0365C137.158 91.9611 137.882 90.9247 138.277 90.5762C139.713 89.3093 143.889 90.4717 146.717 93.6354C147.12 94.0866 147.66 94.6655 148.312 95.3544C150.422 94.8263 152.485 93.7533 154.062 92.3024C156.839 89.7453 160.502 88.7795 161.706 89.2611C162.171 89.4478 162.243 89.8052 162.252 89.9499C162.285 90.4529 161.85 90.9283 160.844 91.4902C159.253 92.3792 158.311 94.4949 158.553 96.6347C158.847 99.231 160.727 101.219 163.713 102.091C166.796 102.991 169.269 102.676 171.061 101.155C171.224 101.016 171.527 100.757 171.869 101.001C172.213 101.247 172.082 101.577 171.916 101.994L171.799 102.291C171.605 102.789 171.672 103.499 171.977 104.191C172.477 105.325 173.527 106.27 174.857 106.784C176.025 107.235 176.271 108.576 176.489 109.758C176.745 111.153 176.908 111.481 177.328 111.423C177.86 111.351 178.307 110.963 178.692 110.239C179.639 108.46 179.896 105.228 179.867 102.402C179.261 100.745 178.959 98.9022 179.096 97.2717C179.126 96.9116 179.181 96.2424 179.742 96.2424C179.744 96.2424 179.746 96.2424 179.749 96.2424C180.144 96.246 180.552 96.2505 180.801 100.226C180.832 100.713 180.866 101.398 180.878 102.198C181.342 103.419 181.98 104.514 182.723 105.272C183.485 106.05 184.288 106.417 185.102 106.367C188.216 106.172 188.484 103.448 188.492 100.674C188.496 99.5384 188.497 98.8522 189.055 98.6485C189.598 98.4484 190.08 99.0166 190.34 99.3212C192.119 101.413 192.787 106.608 190.826 112.536C192.14 111.254 194.229 109.094 196.145 107.111C204.699 98.2634 204.797 98.3545 205.35 98.8432C205.891 99.3239 206.162 99.5651 192.751 116.012C191.458 117.597 189.811 119.363 188.067 121.233C184.645 124.901 181.106 128.695 180.073 131.33C179.942 131.665 179.889 131.875 179.869 131.998C180.474 131.848 182.036 130.867 183.316 130.062C185.33 128.797 187.836 127.222 190.319 126.208C192.518 125.311 192.969 124.179 193.446 122.981C194.08 121.393 194.734 119.752 198.87 118.841C199.946 118.604 200.771 118.265 201.405 117.882C201.001 115.923 201.237 113.992 202.069 113.052C202.485 112.582 203.021 112.426 203.504 112.635C204.197 112.937 204.604 113.932 204.495 115.055C204.44 115.627 204.138 117.099 202.559 118.323C202.612 118.507 202.671 118.69 202.738 118.873C203.146 119.995 204.139 121.924 206.207 122.234C209.301 122.699 215.369 117.241 218.626 114.31C219.561 113.468 220.299 112.802 220.734 112.487C222.777 111.002 223.174 110.735 223.573 111.158C223.952 111.561 223.694 111.874 222.612 113.189C221.042 115.099 217.841 118.99 218.439 121.097C220.398 120.205 222.338 120.115 224.412 120.765C225.326 121.05 226.358 121.482 226.234 122.3C226.058 123.455 223.383 123.715 222.459 123.715C220.315 123.715 218.867 123.299 218.068 122.45C216.572 123.319 214.882 124.789 212.945 127.155C208.361 132.756 203.271 135.384 196.927 135.425C196.519 135.427 196.008 135.412 195.431 135.393C191.488 135.266 184.149 135.034 183.092 140.372C182.164 145.062 184.387 146.659 186.349 148.068C186.781 148.379 187.197 148.678 187.565 148.998C188.326 145.529 188.699 145.417 188.979 145.335C189.2 145.27 189.436 145.338 189.596 145.515C189.983 145.942 190.022 148.075 189.837 150.619C190.251 150.786 190.703 150.925 191.174 151.024C190.994 149.21 191.464 147.395 192.546 145.895C194.239 143.548 195.579 143.776 196.226 144.12C197.609 144.855 198.082 147.369 197.259 149.609C196.777 150.924 195.679 151.78 194.084 152.085C193.563 152.185 193.006 152.218 192.435 152.195C192.502 152.42 192.58 152.644 192.671 152.866C193.491 154.865 195.139 156.253 197.08 156.582C198.537 156.832 199.445 156.136 200.592 155.26C201.681 154.428 202.916 153.484 204.856 153.214C208.716 152.673 209.994 155.841 211.351 159.192C211.489 159.534 211.629 159.88 211.774 160.228C213.877 165.277 218.999 165.855 222.869 164.255C227.206 162.462 227.652 161.103 227.643 160.602C227.63 159.935 226.865 159.257 225.597 158.789C225.534 158.765 225.472 158.743 225.41 158.723C224.577 159.733 223.559 160.347 222.671 160.332C222.001 160.316 221.449 159.948 221.117 159.295C220.755 158.584 221.024 158.116 221.216 157.9C221.843 157.194 223.485 157.174 225.013 157.55C225.082 157.445 225.149 157.334 225.213 157.221C226.227 155.432 226.243 153.427 225.256 151.859C224.195 150.174 222.478 150.141 220.66 150.106C219.014 150.075 217.31 150.043 216.156 148.7C215.106 147.48 214.818 145.9 215.367 144.367C216.045 142.471 217.872 141.046 220.136 140.648C222.696 140.202 224.029 141.232 225.319 142.23C226.205 142.915 227.042 143.563 228.307 143.769C229.97 144.04 231.986 144.546 232.816 146.082C233.517 147.377 233.308 149.182 232.161 151.765C231.254 153.804 231.502 155.774 232.841 157.169C233.061 157.399 233.303 157.603 233.558 157.78C233.663 156.456 234.162 155.329 234.743 154.58C235.523 153.573 236.533 153.064 237.446 153.216C238.471 153.388 239.22 154.318 239.354 155.585C239.499 156.95 238.865 158.636 237.125 159.326C236.382 159.62 235.52 159.635 234.669 159.408C234.751 159.806 234.879 160.216 235.064 160.63C235.631 161.904 236.453 162.679 237.507 162.932C238.941 163.28 240.778 162.657 242.546 161.228C245.61 158.75 247.503 159.69 250.039 161.406C252.292 162.929 254.255 162.919 257.541 161.367C260.191 160.114 261.901 161.478 263.554 162.797C264.889 163.863 266.27 164.977 268.283 164.861C272.162 164.66 272.946 163.219 273.705 161.826C274.221 160.877 274.756 159.894 276.222 159.629C277.627 159.373 278.838 158.479 279.461 157.237C280.137 155.889 280.075 154.273 279.287 152.688C278.793 151.694 277.813 150.933 276.865 150.196C275.252 148.942 273.425 147.522 274.121 144.815C274.723 142.474 277.287 140.564 279.742 140.663C280.909 140.705 283.718 141.321 284.581 146.102C284.643 146.448 284.702 146.819 284.764 147.206C285.102 149.326 285.491 151.779 286.885 153.326C287.828 151.854 289.166 150.681 290.764 149.962C292.769 149.061 293.849 149.701 294.314 150.162C295.078 150.921 295.235 152.238 294.704 153.44C293.987 155.065 292.348 155.974 290.309 155.874C289.013 155.81 287.988 155.457 287.173 154.913C286.991 155.312 286.837 155.73 286.715 156.162C286.169 158.099 286.359 160.079 287.213 161.328C289.153 164.17 292.982 165.015 296.521 163.384C299.101 162.195 300.486 163.111 302.09 164.171C303.172 164.886 304.398 165.697 306.315 166.152C309.008 166.793 312.007 165.453 313.609 162.894C315.189 160.368 314.972 157.442 313.028 155.067C312.11 153.945 311.041 153.389 309.981 153.112C309.829 153.082 309.68 153.047 309.532 153.01C308.658 152.841 307.806 152.836 307.069 152.831C305.959 152.824 305.157 152.82 304.779 152.228C304.456 151.725 304.686 151.081 304.886 150.64C304.987 150.417 305.077 150.203 305.158 149.995C304.509 149.088 304.019 148.012 303.73 146.795C303.324 145.09 303.989 144.483 304.294 144.302C304.765 144.021 305.358 144.114 305.84 144.545C306.678 145.295 307.219 147.082 306.308 149.806C307.925 151.737 310.44 152.64 313.212 152.091C316.068 151.527 318.172 151.225 319.864 150.983C322.738 150.571 324.473 150.322 326.831 149.202C327.364 148.948 327.635 148.584 327.636 148.117C327.636 147.335 326.831 146.159 325.028 145.297L324.979 145.274C323.718 144.671 322.287 143.987 318.989 139.523C314.899 133.989 309.882 134.993 307.916 135.681C307.304 135.894 306.785 136.105 306.367 136.273C305.295 136.706 304.704 136.945 304.22 136.576C303.676 136.161 303.753 135.303 303.995 133.228C304.189 131.569 304.037 130.152 303.556 129.049C303.167 129.009 302.777 128.931 302.391 128.814C301.167 128.444 298.025 127.226 298.184 126.054C298.216 125.817 298.388 125.418 299.177 125.399C300.928 125.371 302.466 125.978 303.528 127.144C303.781 127.422 304.004 127.729 304.196 128.063C305.595 128.057 306.968 127.476 308.058 126.389C309.64 124.81 310.206 122.609 309.574 120.498C309.102 118.926 308.279 117.835 307.128 117.255C305.129 116.25 302.749 117.09 302.726 117.097C302.591 117.145 302.441 117.136 302.315 117.069C300.836 116.285 299.501 116.081 298.346 116.462C296.722 116.996 295.968 118.536 295.96 118.551C295.863 118.754 295.641 118.868 295.421 118.833C295.198 118.796 295.026 118.62 294.998 118.396C294.887 117.516 294.296 117.153 293.261 116.586C292.111 115.956 290.678 115.173 290.331 113.006C290.103 111.586 289.276 110.739 288.477 109.92C287.712 109.137 286.989 108.396 287.005 107.288C287.016 106.412 286.258 105.072 285.053 103.879C283.56 105.036 281.725 105.607 279.904 105.464C278.08 105.32 277.444 104.415 277.227 103.889C276.901 103.097 277.086 102.153 277.714 101.424C278.518 100.49 279.811 100.132 281.174 100.468C282.593 100.816 283.945 101.581 285.067 102.519C286.347 101.254 287.049 99.5866 286.997 97.9266C286.966 96.9581 286.584 96.1477 286.141 95.2087C285.663 94.1947 285.122 93.0457 284.98 91.5126C284.692 88.3918 283.228 86.2127 280.963 85.5328C279.803 85.1852 278.017 85.321 276.809 86.21C277.566 86.7532 278.287 87.3652 278.635 88.3596C279.182 89.9267 278.675 90.7808 278.324 91.1498C277.841 91.6582 277.098 91.844 276.383 91.6341C275.511 91.3786 274.873 90.6111 274.677 89.5818C274.399 88.1273 274.755 87.0811 275.258 86.3565C274.219 85.5873 273.187 84.5973 272.805 82.6407C272.169 79.3823 270.697 77.8358 268.306 77.8813C265.979 77.9358 264.635 79.7647 263.556 81.2335C262.811 82.2485 262.231 83.0481 261.419 83.0097C260.766 82.9775 260.344 82.3914 260.083 81.9527C259.261 80.5679 258.25 79.7772 257.237 79.7263C256.234 79.6763 255.178 80.3499 254.202 81.6758L254.078 81.8446C252.429 84.0836 250.722 86.3949 248.577 86.2002C247.454 86.0956 246.435 85.4908 245.782 84.5384C245.217 83.7146 244.676 82.2699 245.302 80.0676C245.692 78.697 245.292 77.8867 244.786 76.8601C244.172 75.6165 243.407 74.0672 243.983 71.1841C244.47 68.7405 245.781 66.8375 247.676 65.827C249.49 64.8594 251.674 64.7808 253.67 65.609C255.598 66.4104 256.987 68.376 257.124 70.5006C257.133 70.6346 257.137 70.7677 257.135 70.8982C257.321 70.9527 257.511 71.0081 257.709 71.0662C258.28 71.2332 258.906 71.4155 259.596 71.6094C261.453 72.1294 263.459 71.6916 265.098 70.4086C266.845 69.0425 267.85 66.9724 267.787 64.8728C267.724 62.7911 267.118 61.0373 266.076 59.7704C265.924 59.891 265.765 60.0054 265.601 60.1099C264.235 60.9855 262.727 61.0864 261.465 60.386C259.655 59.3835 259.838 58.3427 260 57.9415C260.398 56.9605 261.904 56.4468 263.292 56.8247C264.241 57.0811 265.221 57.5806 266.086 58.3525C266.94 57.3661 267.427 56.0438 267.335 54.8029C267.234 53.4582 266.731 52.4183 265.878 51.7946C264.998 51.1522 263.739 50.9619 262.427 51.2755L261.967 51.3854C259.06 52.0859 256.055 52.8087 253.844 50.8422C253.132 50.2079 252.378 49.7084 251.628 49.36C251.766 50.2204 251.712 51.1469 251.305 52.1422C250.286 54.642 248.285 55.2737 246.856 54.8037C245.639 54.4026 244.566 53.0446 245.085 51.0111C245.479 49.4663 246.465 48.3799 247.858 47.9528C248.546 47.7429 249.295 47.7 250.07 47.8152C249.866 47.3792 249.632 46.9522 249.4 46.5287C248.618 45.1045 247.88 43.7581 248.512 42.3411C249.289 40.6025 249.94 38.8585 249.449 37.882C249.205 37.3977 248.669 37.0689 247.809 36.8777C247.005 36.6991 245.991 36.75 245.012 36.8C243.473 36.8786 242.019 36.9519 241.36 36.0888C240.979 35.5894 240.942 34.8925 241.25 33.9571C241.6 32.8921 241.562 32.1121 241.15 31.8709C240.653 31.5805 239.515 31.9325 238.612 32.9207C237.884 33.7176 237.253 34.7916 236.642 35.8306C235.682 37.4656 234.852 38.8782 233.727 39.0327C233.222 39.1006 232.731 38.9103 232.265 38.4627C230.463 36.7294 228.891 36.079 227.217 36.4694C227.274 36.6195 227.326 36.7777 227.371 36.9465C227.871 38.8031 227.437 40.9036 226.316 42.0552C225.611 42.778 224.711 43.055 223.786 42.8307C222.956 42.6306 222.386 42.0097 222.222 41.1287C221.983 39.8395 222.679 37.8909 224.468 36.6606C224.902 36.3622 225.329 36.1138 225.751 35.9164C225.408 35.475 224.982 35.1221 224.521 34.7406C223.59 33.9705 222.535 33.0985 221.937 31.2794C221.001 28.4347 219.468 27.1196 217.249 27.2813C214.567 27.4627 212.618 26.3736 211.763 24.1989C210.614 21.2818 208.896 20.1248 206.354 20.5581C204.748 20.8315 203.769 21.6857 202.732 22.5898C201.588 23.5878 200.404 24.6197 198.374 24.8887C196.041 25.1978 194.952 26.0162 194.473 26.9766C196.707 29.2111 198.791 32.1166 198.813 35.1972C198.83 37.4996 197.868 39.6152 196.174 41.0028C194.728 42.1866 192.905 42.6931 191.296 42.3572C189.737 42.032 188.661 41.1046 188.417 39.8752C188.153 38.5476 188.908 37.1699 190.487 36.0951C193.412 34.1027 193.265 31.5519 193.136 29.3023L193.124 29.0887C193.086 28.4151 193.144 27.804 193.299 27.2563C192.872 26.848 192.461 26.4834 192.095 26.1725C190.857 25.1209 190.415 23.7522 190.025 22.5452C189.97 22.3736 189.915 22.2056 189.86 22.0413C189.307 22.0171 188.73 21.9582 188.13 21.8599C185.442 21.4185 184.774 20.4214 184.615 19.8657C184.475 19.3761 184.63 18.8749 185.028 18.5265C185.715 17.9261 186.945 17.8814 188.165 18.4121C189.518 19.0018 190.147 19.9783 190.574 21.0379C193.705 21.0058 195.895 19.7496 196.992 18.3996C197.783 17.4275 198.059 16.342 197.733 15.4941C196.805 13.0872 195.415 12.0544 193.945 10.9617C192.212 9.67335 190.42 8.34212 189.252 4.84162C188.595 2.86801 187.502 1.55286 186.176 1.13831C185.139 0.813988 184.026 1.06594 182.957 1.86557L182.394 2.28906C180.463 3.74805 179.066 4.80231 177.702 4.06611C175.654 2.95825 174.236 3.34064 173.108 5.30442C171.521 8.06694 169.258 8.91929 166.901 7.64167L166.711 7.53892C164.9 6.55345 162.164 5.06498 160.102 6.21127C158.848 6.90726 158.556 8.64679 158.272 10.3282C158.023 11.806 157.788 13.2015 156.853 13.8395C156.384 14.1602 155.792 14.2478 155.092 14.1012C152.686 13.6 150.739 13.9976 149.884 15.1662C149.089 16.2518 149.277 17.96 150.413 19.9765C150.969 20.9647 151.773 21.817 152.699 22.5067C153.251 22.2602 153.819 21.9466 154.402 21.5677C157.011 19.8693 159.477 19.4154 160.999 20.3527C161.856 20.8807 162.279 21.7973 162.16 22.8668C162.016 24.1632 161.066 25.0843 159.553 25.3926C157.56 25.7982 154.815 25.1603 152.563 23.6611C150.955 24.274 149.459 24.3705 148.153 23.9345C146.462 23.3698 145.159 21.9501 144.387 19.8309C143.879 18.4353 143.114 17.5615 142.235 17.3712C141.46 17.206 140.612 17.5642 139.782 18.413C139.583 18.6158 139.339 18.9276 139.082 19.2582C138.273 20.2946 137.36 21.4739 136.311 21.3846C135.791 21.3417 135.352 20.9977 135.007 20.3625C134.418 19.2796 133.651 18.6998 132.788 18.6846C132.776 18.6846 132.764 18.6846 132.753 18.6846C131.707 18.6846 130.582 19.4949 129.807 20.8083C129.691 21.0058 129.577 21.2041 129.463 21.4024C128.298 23.427 127.093 25.5212 123.702 26.2824C121.743 26.722 120.378 28.0434 120.225 29.648C120.049 31.4974 121.476 33.2682 124.041 34.385C124.748 34.6933 125.381 34.8371 125.941 34.8693C125.965 32.7143 127.125 30.9113 128.516 30.4065C129.798 29.9429 130.386 30.5227 130.58 30.7943C131.14 31.5805 130.869 32.985 129.938 34.134C129.589 34.5646 128.625 35.5626 127.035 35.8333C127.067 36.012 127.108 36.1925 127.16 36.3756C127.817 38.6887 129.402 38.938 131.798 39.3159L131.92 39.3347C134.914 39.8082 136.923 42.2598 136.595 45.0366C136.449 46.2616 135.855 47.2113 134.92 47.7125C133.749 48.3406 132.185 48.2218 130.514 47.3775C129.661 46.9459 128.721 46.8048 127.817 46.8816C127.792 48.0216 127.445 49.0938 126.796 49.9702C125.516 51.7017 124.217 51.7241 123.492 51.2175C122.775 50.7154 122.45 49.5208 123.26 48.2941C123.958 47.2381 125.267 46.4027 126.756 46.0471C126.721 45.7836 126.667 45.5173 126.592 45.2502C126.118 43.5625 124.899 42.1732 123.328 41.5335C120.928 40.556 120.387 39.4053 119.909 38.3903C119.629 37.798 119.389 37.286 118.779 36.8054C117.624 35.8958 116.375 35.7994 115.372 35.7216C114.51 35.6546 113.765 35.5974 113.378 35.0078C113.073 34.5459 113.092 33.8892 113.438 32.8778C114.363 30.1662 114.072 27.5529 112.712 26.3762C111.681 25.4837 110.095 25.515 108.247 26.4611C106.565 27.3224 105.577 28.642 104.62 29.916C103.417 31.5216 102.284 33.0324 100.023 32.9484C98.5626 32.8921 97.4065 33.3558 96.5935 34.3323C96.3647 34.6066 96.1753 34.9068 96.0217 35.2204C96.6587 36.0888 97.0643 37.0797 97.142 38.0276C97.2966 39.9074 96.9893 40.9197 96.229 41.0358C95.5231 41.1439 94.9067 40.3559 94.5841 38.9264C94.3679 37.9668 94.4081 36.6365 94.8531 35.392C94.6386 35.1516 94.4037 34.9274 94.1508 34.7263C93.2672 34.0259 91.7564 33.2548 89.5666 33.5809C85.6479 34.1599 84.7589 38.5279 84.7509 38.5717C84.7053 38.8049 84.5052 38.9755 84.2684 38.9827C83.1919 39.0166 82.1179 39.8663 81.5345 41.1484C80.7822 42.7995 81.0521 44.6659 82.2564 46.1409C83.3527 47.4838 85.3191 47.7509 86.8987 47.9653C88.2443 48.1485 89.3066 48.2923 89.6461 49.075C89.9355 49.7424 89.4897 50.4965 89.1288 51.0057C87.9048 52.7336 87.5572 54.6036 88.221 55.8857C88.7187 56.8479 89.7211 57.3563 91.1176 57.3563H91.122C92.6471 57.3554 93.5611 56.7774 94.7181 56.0456C95.8162 55.3514 97.0607 54.5652 99.0844 54.1104C101.239 53.6271 103.257 54.2168 104.617 55.7285C106.051 57.3232 106.455 59.6158 105.696 61.8592C105.026 63.8391 103.508 65.0336 101.635 65.0524C101.255 65.0497 100.878 65.0104 100.516 64.9211C100.354 65.3794 100.123 65.8091 99.8233 66.1969C98.8503 67.454 97.3002 68.0526 95.5705 67.8471C93.5808 67.6068 92.3639 66.2416 91.1864 64.9211C90.2304 63.848 89.2422 62.7384 87.811 62.1684C86.7397 61.7413 85.8481 61.761 85.1619 62.2256C84.0058 63.0091 83.3428 65.0846 83.3437 67.9195C83.3437 70.5408 82.4976 71.9721 81.6015 73.4883C81.1816 74.1995 80.7465 74.9348 80.3775 75.8362C79.7995 77.2488 79.7878 78.3772 80.3462 78.8561C80.8341 79.2751 81.7641 79.1759 82.7156 78.6032L82.9435 78.4647C84.1746 77.7125 86.4645 76.3142 89.4165 77.1326C91.5607 77.7286 92.8544 79.1187 92.7124 80.6769C92.5873 82.0457 91.2159 83.7539 87.7618 84.063C85.7748 84.2408 83.937 85.1182 82.5736 86.4941C84.8376 88.4927 87.7002 88.5597 91.2596 88.0264C94.3867 87.5609 97.2269 88.6527 98.861 90.9506C100.42 93.1449 100.545 95.9914 99.1943 98.5645C97.9863 100.865 95.7572 102.112 93.0697 102.025C91.6152 101.969 90.2206 101.525 89.0475 100.795C88.6642 101.269 88.1469 101.625 87.5117 101.828C85.2521 102.555 82.0313 101.108 80.2462 96.9438C78.7988 93.5684 78.889 90.2215 80.4999 87.5233C80.7027 87.1838 80.927 86.8595 81.17 86.5513C78.4906 84.0237 75.5512 84.2185 72.1945 87.1418C71.0232 88.1622 69.7 88.7706 68.3956 88.9618C68.3223 89.3763 68.2231 89.7998 68.0998 90.2278C67.3047 92.976 68.2973 95.4348 71.318 98.2C73.6106 100.298 73.1112 101.809 72.7904 102.363C71.8657 103.956 69.0639 104.274 65.6509 103.177C61.5759 101.867 58.4507 101.853 56.8505 103.137C55.9374 103.871 55.5461 105.001 55.6864 106.498C55.8669 108.423 57.3169 109.602 58.7187 110.743C60.1071 111.873 61.5438 113.042 61.1685 114.836C60.9514 115.872 59.9767 116.415 58.9456 116.988C57.8556 117.594 56.7281 118.221 56.1983 119.473C55.8579 120.276 55.9017 121.615 56.2778 121.902C56.4324 122.019 56.7987 121.878 57.2347 121.532C59.6381 119.624 62.0584 118.978 63.7068 119.804C64.7468 120.325 65.323 121.347 65.2864 122.608C65.2158 125.06 63.856 125.838 61.3874 127.248L60.7129 127.635C59.6372 128.258 58.9573 129.25 58.8286 130.375C60.242 130.596 61.4187 131.468 62.3488 132.99C63.0251 134.097 62.8089 134.898 62.3818 135.279C61.9387 135.672 61.0819 135.794 60.0035 134.952C58.7562 133.978 57.9923 132.695 57.8253 131.339C56.763 131.398 55.5416 131.851 54.138 132.696C53.6985 132.96 53.2616 133.254 52.839 133.537C50.7349 134.948 48.5594 136.406 45.6629 134.685C41.8336 132.413 37.9748 132.897 33.8641 136.162C30.6254 138.735 29.5809 142.528 29.9794 144.964C30.2394 146.551 31.081 147.678 32.3479 148.135C33.1002 148.407 33.7926 148.478 34.4109 148.399C33.8793 146.149 34.1821 144.074 35.2203 143.188C35.7903 142.7 36.5096 142.633 37.2449 143.002C38.4662 143.612 38.8593 145.11 38.2017 146.645C37.7425 147.717 36.8464 148.639 35.6679 149.109C36.2514 151.151 35.8448 152.429 35.4169 153.779C35.1712 154.553 34.9174 155.352 34.8004 156.394C34.519 158.899 35.609 160.453 36.2728 160.584C36.6052 160.654 36.7883 160.257 36.8857 159.915C37.3128 158.42 37.9891 157.594 38.7896 157.59H38.7959C39.3453 157.59 40.1137 157.979 40.6623 159.823C41.3833 162.248 44.5094 165.068 49.2054 163.744C51.8893 162.988 53.4099 160.728 53.778 158.73C53.1445 158.627 52.5352 158.427 51.9589 158.128C50.3633 157.301 49.7736 156.122 49.753 155.294C49.7378 154.685 50.005 154.176 50.4848 153.896C50.8743 153.67 51.7374 153.416 53.1445 154.263C54.2694 154.939 54.8921 156.226 54.8832 157.794C56.7523 157.771 58.8393 156.848 60.8951 155.088C63.1136 153.189 64.9567 152.495 65.9529 153.186C66.4416 153.525 66.8892 154.297 66.2477 156.051C65.441 158.258 65.5008 160.041 66.4095 160.82C66.992 161.32 67.8747 161.345 68.7136 160.885C69.4865 160.46 70.5273 159.179 71.3636 158.151C72.4857 156.769 72.9986 156.137 73.5856 156.387C74.0779 156.596 74.001 157.225 73.9724 157.461C73.884 158.188 73.9403 159.151 74.7113 159.603C75.5512 160.098 77.003 159.872 78.0876 159.083C79.2866 158.207 80.4258 158.266 81.7454 158.335C82.8202 158.391 84.0379 158.454 85.622 158.034C86.7674 157.73 87.7288 157.281 88.5203 156.755C88.506 156.717 88.4917 156.677 88.4783 156.638C87.3142 153.388 88.0182 150.238 89.4057 149.337C90.0874 148.894 90.888 149.003 91.5464 149.631C92.4524 150.495 92.757 151.827 92.3827 153.285C92.078 154.473 91.2346 155.915 89.7515 157.108C90.4573 158.76 91.2855 159.731 92.0744 159.809C92.824 159.883 93.4334 159.066 93.7291 158.572C94.6985 156.955 95.8189 156.016 97.0616 155.782C98.1034 155.587 99.1666 155.899 100.221 156.714C101.167 157.445 104.498 159.654 107.606 157.349C109.17 156.191 108.992 154.426 108.819 152.72C108.689 151.429 108.566 150.209 109.292 149.408C109.756 148.894 110.492 148.645 111.542 148.645C112.865 148.645 114.002 148.486 114.968 148.216C115.089 145.758 116.769 143.384 118.292 142.571C118.874 142.261 119.443 142.29 119.854 142.65C120.43 143.155 120.535 144.192 120.121 145.29C119.601 146.671 118.281 148.112 116.002 148.947C116.104 149.896 116.562 151.024 117.94 151.855C119.169 152.595 120.217 152.42 121.231 152.249C122.202 152.085 123.206 151.917 124.066 152.737C124.559 153.207 124.787 153.773 124.725 154.375C124.601 155.591 123.354 156.898 120.802 158.487C119.198 159.486 118.272 160.934 118.325 162.36C118.361 163.335 118.871 164.15 119.724 164.598C120.923 165.228 121.931 164.944 123.206 164.586C124.701 164.167 126.561 163.645 129.215 164.567C131.6 165.397 133.781 165.305 135.358 164.31C136.565 163.549 137.294 162.327 137.467 160.777C137.536 160.151 137.553 159.591 137.529 159.088C134.876 159.49 132.493 159.156 131.749 156.733C131.445 155.74 131.682 154.833 132.402 154.246C133.304 153.508 134.733 153.461 135.958 154.127C136.646 154.501 137.98 155.517 138.415 157.89C139.136 157.737 139.93 157.531 140.8 157.271C143.252 156.537 144.515 156.745 145.977 156.984C146.886 157.133 147.917 157.302 149.426 157.25C151.139 157.19 152.403 156.793 153.624 156.409C156.027 155.652 158.102 155.001 162.227 157.315C163.018 157.759 163.742 157.991 164.389 158.064C164.376 157.807 164.363 157.554 164.35 157.306C164.116 152.738 164.009 150.654 165.057 150.08C165.69 149.735 166.394 150.145 166.868 150.484C169.483 152.352 169.653 155.314 168.486 157.152C167.86 158.138 166.803 158.889 165.455 159.064C165.521 160.442 165.582 161.949 165.615 163.611C165.814 173.449 164.575 194.258 163.577 197.866C163.427 198.409 163.182 199.04 162.61 199.101C161.915 199.172 161.506 198.388 160.937 197.299C160.674 196.794 160.057 195.611 159.764 195.578C159.769 195.578 159.633 195.621 159.417 196.026C158.906 196.984 158.287 197.469 157.577 197.469H157.547C156.331 197.445 155.1 196.012 153.554 192.823C152.876 191.423 152.478 191.108 152.265 191.09C151.746 191.055 150.751 192.472 149.594 194.12C149.028 194.926 148.386 195.839 147.619 196.864C146.902 197.821 145.984 198.673 144.972 199.392C145.436 199.821 145.932 200.261 146.458 200.687C147.151 201.248 147.76 201.491 148.264 201.417C149.049 201.297 149.645 200.405 150.17 199.618C150.693 198.835 151.173 198.096 151.929 198.106C152.58 198.116 153.028 198.713 153.308 199.161C153.792 199.933 154.459 200.855 155.106 201.745C157.202 204.635 158.452 206.455 157.774 207.436C157.298 208.123 156.212 207.922 155.436 207.709C153.55 207.194 150.511 207.645 147.572 208.08C143.296 208.711 139.257 209.31 138.381 206.973C137.877 205.63 136.651 205.766 134.692 206.149C133.192 206.442 131.492 206.775 130.88 205.289C130.792 205.073 130.687 204.935 130.595 204.908C130.317 204.826 129.67 205.289 129.193 205.625C128.244 206.296 126.943 207.214 125.892 206.163C125.339 205.61 124.763 204.745 124.205 203.908C123.74 203.211 123.06 202.189 122.7 201.931C122.681 201.977 122.659 202.042 122.636 202.132C121.479 206.788 119.688 206.776 109.628 206.787H109.196C105.769 206.787 103.891 206.49 102.648 206.293C100.891 206.016 100.576 205.965 98.6734 207.296C96.7561 208.638 86.5315 208.986 69.6178 208.986L69.6187 209ZM139.556 196.683C139.507 196.683 139.459 196.685 139.41 196.69C138.649 196.763 137.834 197.422 136.92 198.708C136.453 199.363 136.011 200.23 136.561 200.631C137.524 201.334 140.572 200.886 143.352 199.271C143.329 199.249 143.307 199.228 143.285 199.206C141.816 197.803 140.643 196.683 139.556 196.683ZM171.085 136.755C171.737 136.755 172.17 137.561 172.52 139.41C173.567 144.937 174.778 154.346 174.597 167.784C174.511 174.196 174.583 177.515 174.686 179.228C174.987 177.584 175.441 174.421 176.095 168.358C177.462 155.685 178.71 150.9 180.699 150.703C181.033 150.67 181.345 150.781 181.602 151.024C182.89 152.244 182.77 157.202 182.461 164.072C182.412 165.159 182.366 166.198 182.335 167.133C182.305 168.069 182.389 168.477 182.446 168.643C182.929 168.331 183.907 166.803 185.116 164.353C185.371 162.109 185.677 159.824 186.041 157.527C186.555 154.29 186.976 151.923 187.325 150.188C187.322 150.185 187.319 150.181 187.316 150.179C186.925 149.742 186.36 149.336 185.762 148.907C183.773 147.477 181.047 145.519 182.102 140.189C183.326 134.006 191.227 134.257 195.47 134.391C196.031 134.409 196.525 134.424 196.927 134.423C202.945 134.383 207.788 131.875 212.165 126.526C214.052 124.22 215.807 122.588 217.531 121.585C216.705 119.321 219.113 115.937 220.983 113.602C220.572 113.943 219.996 114.462 219.31 115.079C215.692 118.336 209.639 123.793 206.061 123.253C204.172 122.969 202.614 121.505 201.789 119.235C201.751 119.129 201.714 119.023 201.679 118.915C200.996 119.291 200.147 119.616 199.094 119.847C195.483 120.641 194.979 121.907 194.395 123.371C193.885 124.65 193.307 126.101 190.708 127.163C188.307 128.143 185.843 129.691 183.862 130.937C181.019 132.723 179.838 133.427 179.15 132.855C178.648 132.438 178.86 131.669 179.133 130.972C180.237 128.157 183.842 124.292 187.33 120.554C189.062 118.696 190.698 116.943 191.969 115.384C197.793 108.241 201.025 104.139 202.749 101.841C201.048 103.519 198.76 105.886 196.88 107.83C190.016 114.931 189.973 114.903 189.455 114.565C189.281 114.452 189.129 114.195 189.271 113.845C191.721 107.833 191.346 102.082 189.569 99.994C189.553 99.9743 189.537 99.9565 189.523 99.9395C189.514 100.17 189.513 100.446 189.512 100.692C189.506 102.94 189.494 107.125 185.17 107.395C184.061 107.469 182.965 106.982 182.001 105.998C181.585 105.573 181.2 105.062 180.855 104.492C180.706 107.996 179.986 112.1 177.469 112.444C175.988 112.648 175.713 111.154 175.492 109.956C175.315 108.991 175.131 107.993 174.494 107.746C172.914 107.136 171.659 105.995 171.05 104.616C170.758 103.954 170.636 103.277 170.688 102.673C168.756 103.787 166.321 103.925 163.432 103.081C160.034 102.089 157.889 99.7867 157.547 96.7633C157.26 94.2286 158.413 91.7011 160.352 90.6173C160.694 90.4261 160.909 90.2743 161.043 90.1644C160.04 90.1081 157.21 90.8023 154.755 93.0627C153.196 94.4993 151.191 95.5911 149.109 96.2013C149.67 96.7892 150.292 97.4379 150.964 98.1383C155.629 103.004 162.41 110.076 167.046 115.913C166.881 112.685 167.184 111.435 167.956 111.142C168.67 110.873 169.464 111.471 170.61 113.143C172.981 116.603 174.217 124.135 173.369 125.62C173.136 126.026 172.789 126.048 172.653 126.038C172.165 126.005 171.673 125.568 170.857 123.543C170.388 122.378 169.501 120.921 168.329 119.279C168.524 121.291 168.765 123.252 168.912 124.46C169.242 127.157 168.98 128.528 168.06 128.905C166.389 129.586 163.659 126.247 159.36 120.661C158.041 118.946 156.794 117.326 155.756 116.147C151.262 111.04 141.4 105.054 134.436 104.633C131.371 104.446 129.283 105.108 127.265 105.749C132.515 111.015 138.541 118.243 140.44 121.841C141.192 123.269 141.287 124.304 140.728 125.006C139.414 126.654 134.819 125.436 129.955 124.145C128.797 123.837 127.599 123.519 126.512 123.262C119.924 121.703 116.52 120.481 109.229 116.229C110.811 117.967 112.537 120.291 111.653 121.999C111.61 122.083 111.562 122.163 111.509 122.24C118.391 123.516 125.981 125.319 132.614 127.602C135.134 128.469 136.28 129.994 137.201 131.219C138.181 132.521 138.772 133.308 140.522 132.935C144.209 132.15 146.394 127.952 146.495 125.353C146.504 125.125 146.53 124.433 147.106 124.366C147.547 124.313 147.963 124.267 149.633 128.883C150.537 131.382 151.414 134.196 151.847 135.751C152.712 138.864 154.37 140.518 156.383 140.302C157.491 140.181 158.652 139.452 159.522 138.259C158.363 136.948 157.456 135.593 157.037 134.363C156.282 132.141 156.889 130.575 157.709 129.849C158.392 129.245 159.309 129.107 160.098 129.489C160.707 129.783 162.103 130.834 161.922 134.226C161.845 135.655 161.436 136.999 160.795 138.127C163.759 141.219 168.038 143.925 169.482 143.653C169.619 143.627 169.806 143.591 169.781 143.11C169.668 140.806 169.672 136.92 170.986 136.764C171.02 136.76 171.053 136.757 171.085 136.757V136.755ZM188.213 150.932C187.896 152.559 187.509 154.746 187.043 157.685C186.849 158.906 186.672 160.122 186.51 161.331C186.762 160.753 187.019 160.148 187.278 159.515C187.991 157.776 188.51 154.255 188.765 151.253C188.571 151.152 188.387 151.045 188.213 150.932ZM223.12 158.334C222.541 158.334 222.117 158.43 221.979 158.588C221.934 158.638 221.979 158.757 222.025 158.847C222.241 159.27 222.511 159.325 222.697 159.328C223.113 159.321 223.724 159.04 224.31 158.448C223.876 158.369 223.47 158.334 223.12 158.334ZM234.556 158.314C235.323 158.601 236.115 158.647 236.754 158.393C238.084 157.866 238.443 156.615 238.347 155.704C238.283 155.095 237.964 154.345 237.281 154.23C236.749 154.142 236.087 154.519 235.549 155.214C235.005 155.914 234.551 157.019 234.556 158.314ZM134.169 154.69C133.736 154.69 133.337 154.808 133.046 155.047C132.652 155.369 132.539 155.855 132.722 156.451C133.19 157.972 134.673 158.51 137.417 158.089C137.06 156.139 136.017 155.33 135.474 155.034C135.053 154.806 134.594 154.69 134.17 154.69L134.169 154.69ZM165.577 150.98C165.562 150.98 165.551 150.982 165.546 150.985C165.058 151.253 165.214 154.31 165.366 157.267C165.38 157.527 165.393 157.792 165.406 158.061C166.436 157.901 167.192 157.308 167.629 156.62C168.569 155.14 168.406 152.846 166.277 151.324C165.871 151.034 165.656 150.98 165.577 150.98ZM51.3585 154.707C51.204 154.707 51.0825 154.738 50.9967 154.788C50.8019 154.901 50.7653 155.119 50.7689 155.282C50.7814 155.796 51.2227 156.616 52.4262 157.24C52.8819 157.476 53.3643 157.638 53.8682 157.727C53.8557 156.56 53.4126 155.622 52.6219 155.147C52.0849 154.824 51.6587 154.707 51.3577 154.707L51.3585 154.707ZM90.2813 150.096C90.1491 150.096 90.0428 150.149 89.9597 150.203C89.0609 150.786 88.4247 153.3 89.37 156.123C90.5047 155.135 91.156 153.995 91.399 153.047C91.6795 151.955 91.4776 150.983 90.8451 150.38C90.6199 150.165 90.4332 150.095 90.2804 150.095L90.2813 150.096ZM287.658 154.02C288.355 154.506 289.236 154.816 290.362 154.872C291.96 154.954 293.235 154.267 293.777 153.042C294.133 152.235 294.06 151.353 293.599 150.895C293.117 150.415 292.258 150.418 291.181 150.901C289.717 151.559 288.5 152.65 287.658 154.02ZM305.893 150.892C305.867 150.952 305.84 151.012 305.812 151.072C305.593 151.555 305.639 151.699 305.639 151.699C305.758 151.812 306.429 151.823 306.968 151.827C306.583 151.552 306.224 151.24 305.892 150.893L305.893 150.892ZM192.218 151.184C192.782 151.225 193.352 151.203 193.896 151.099C194.751 150.935 195.864 150.485 196.31 149.271C196.992 147.412 196.571 145.464 195.753 145.029C195.149 144.706 194.281 145.243 193.374 146.5C192.39 147.864 191.993 149.531 192.218 151.184ZM188.432 149.837C188.559 149.938 188.698 150.037 188.849 150.132C188.913 149.169 188.945 148.301 188.943 147.617C188.806 148.14 188.637 148.855 188.432 149.837ZM304.879 145.171C304.855 145.171 304.833 145.176 304.815 145.187C304.712 145.249 304.492 145.618 304.719 146.573C304.908 147.368 305.195 148.094 305.564 148.743C306.038 146.797 305.573 145.68 305.164 145.314C305.061 145.222 304.956 145.171 304.879 145.171ZM36.33 143.798C36.1227 143.798 35.9815 143.89 35.8815 143.975C35.2462 144.518 34.9362 146.169 35.3936 148.147C36.2799 147.764 36.9295 147.049 37.269 146.258C37.6371 145.399 37.6326 144.344 36.7919 143.924C36.6087 143.832 36.4568 143.798 36.33 143.798ZM119.064 143.387C118.963 143.387 118.846 143.439 118.77 143.48C117.574 144.118 116.272 145.967 116.02 147.866C117.755 147.142 118.765 146.021 119.17 144.946C119.468 144.152 119.357 143.58 119.183 143.427C119.151 143.398 119.108 143.388 119.063 143.388L119.064 143.387ZM159.169 130.285C158.893 130.285 158.621 130.393 158.381 130.606C157.806 131.114 157.403 132.281 157.998 134.031C158.353 135.077 159.11 136.219 160.081 137.341C160.536 136.446 160.841 135.377 160.906 134.168C161.06 131.306 159.988 130.56 159.655 130.4C159.496 130.323 159.333 130.285 159.169 130.285ZM58.867 131.432C59.052 132.446 59.6658 133.41 60.6307 134.165C61.2248 134.63 61.6197 134.612 61.7082 134.534C61.7904 134.461 61.8431 134.121 61.4839 133.534C60.7683 132.363 59.907 131.663 58.867 131.432ZM299.574 126.432C300.14 126.835 301.253 127.422 302.686 127.854C302.733 127.868 302.779 127.882 302.826 127.894C302.81 127.876 302.793 127.858 302.777 127.841C301.77 126.736 300.454 126.47 299.574 126.432ZM168.156 117.343C169.87 119.604 171.176 121.619 171.797 123.159C172.156 124.052 172.418 124.526 172.584 124.775C172.834 123.141 171.992 116.957 169.769 113.713C168.834 112.348 168.411 112.134 168.306 112.101C167.905 112.509 167.955 114.776 168.155 117.342L168.156 117.343ZM93.4861 121.01C94.6761 121.281 96.5756 121.651 99.6044 122.133C103.802 122.8 106.445 122.875 108.103 122.679C101.646 121.622 96.2915 121.107 93.4861 121.01ZM219.044 121.966C219.7 122.46 220.844 122.71 222.461 122.71C223.596 122.71 224.758 122.42 225.143 122.184C225.01 122.091 224.72 121.935 224.112 121.745C222.688 121.301 221.05 121.094 219.044 121.966ZM203.07 113.572C202.984 113.572 202.868 113.694 202.832 113.735C202.337 114.295 202.099 115.663 202.32 117.201C203.253 116.306 203.447 115.365 203.487 114.966C203.566 114.149 203.269 113.651 203.101 113.578C203.092 113.574 203.081 113.572 203.07 113.572ZM118.221 100.334C117.434 100.334 116.778 100.635 116.357 101C115.783 101.499 115.525 102.183 115.67 102.832C115.903 103.872 117.062 104.735 118.935 105.263C121.599 106.014 123.474 105.778 125.325 105.272C122.786 102.82 120.591 101.006 119.413 100.561C118.993 100.402 118.592 100.335 118.22 100.335L118.221 100.334ZM280.188 101.375C279.5 101.375 278.89 101.628 278.483 102.102C278.108 102.539 277.985 103.081 278.166 103.517C278.387 104.054 279.032 104.391 279.984 104.466C281.493 104.585 283.015 104.13 284.282 103.202C283.317 102.42 282.162 101.771 280.931 101.468C280.677 101.407 280.428 101.375 280.188 101.375ZM89.5612 99.9163C90.5985 100.57 91.8377 100.974 93.1099 101.022C95.3838 101.107 97.2788 100.045 98.2973 98.1053C99.4668 95.8779 99.3685 93.4281 98.0355 91.5528C96.6274 89.572 94.1517 88.6339 91.4124 89.0449C88.0718 89.5452 84.6249 89.6605 81.908 87.2723C81.7159 87.5225 81.5372 87.7842 81.3737 88.0576C79.9335 90.4699 79.8647 93.4889 81.1807 96.5569C82.7103 100.124 85.4255 101.443 87.2034 100.874C87.618 100.741 87.9593 100.515 88.2184 100.212C87.3696 99.5142 86.6915 98.6485 86.268 97.6666C85.5094 95.911 85.429 94.4234 86.0527 93.6872C86.3555 93.3307 86.7924 93.1913 87.2543 93.3057C88.3032 93.5666 89.2136 95.0202 89.6899 97.1949C89.9132 98.2143 89.8578 99.147 89.5612 99.9163ZM86.9443 94.2831C86.8916 94.2831 86.8603 94.3064 86.8282 94.3448C86.6245 94.5851 86.4404 95.5036 87.2007 97.2636C87.5277 98.0213 88.0495 98.7057 88.7026 99.2766C88.8473 98.7432 88.8509 98.1097 88.6981 97.412C88.2389 95.3168 87.4366 94.3984 87.0095 94.2912C86.9845 94.2849 86.9631 94.2822 86.9452 94.2822L86.9443 94.2831ZM139.933 91.0846C139.488 91.0846 139.146 91.1748 138.952 91.3473C138.608 91.651 138.908 92.4292 139.735 93.3781C140.966 94.7906 142.755 95.5992 144.908 95.7171C145.634 95.7546 146.385 95.7153 147.141 95.6001C146.674 95.1042 146.278 94.6753 145.961 94.3215C143.935 92.0549 141.389 91.0846 139.933 91.0846ZM276.088 86.9587C275.631 87.6216 275.492 88.4418 275.676 89.4067C275.799 90.0536 276.172 90.528 276.67 90.6754C277.016 90.7773 277.368 90.6968 277.588 90.4663C277.914 90.1233 277.946 89.4836 277.676 88.7107C277.408 87.9442 276.806 87.4662 276.088 86.9596L276.088 86.9587ZM65.0282 83.7906C64.5859 83.7906 64.1258 83.9263 63.8739 84.4043C63.5245 85.0682 63.722 86.1001 64.3126 86.7041C65.1747 87.5841 66.3049 88.0192 67.5048 88.0192H67.5075C67.6362 86.7157 67.4637 85.5908 66.9947 84.8403C66.6426 84.2775 66.145 83.9478 65.4722 83.8307C65.332 83.8066 65.181 83.7897 65.0264 83.7897L65.0282 83.7906ZM253.291 71.1394C252.696 71.1394 252.185 71.2681 251.677 71.5611C251.017 71.9417 250.992 72.9612 251.382 73.6375C251.924 74.5774 253.01 74.6998 254.286 73.9636C255.409 73.3158 255.867 72.4269 256.035 71.6549C254.886 71.3342 254.024 71.1394 253.291 71.1394ZM98.7306 60.7013C98.7074 60.7013 98.685 60.7049 98.6645 60.713C98.4688 60.7871 98.2294 61.274 98.534 62.1175C98.7458 62.7035 99.1961 63.2039 99.7715 63.5496C99.8125 62.8983 99.7035 62.2104 99.4382 61.534C99.2175 60.9721 98.9262 60.7013 98.7306 60.7013ZM262.354 57.7289C261.633 57.7289 261.064 58.038 260.944 58.3373C260.819 58.6455 261.207 59.0958 261.959 59.5113C263.227 60.2144 264.443 59.6605 265.055 59.2692C265.162 59.2013 265.264 59.1289 265.365 59.0521C264.702 58.4794 263.918 58.0603 263.029 57.82C262.796 57.7566 262.569 57.7298 262.355 57.7298L262.354 57.7289ZM249.226 48.7855C248.852 48.7855 248.493 48.8356 248.159 48.9374C247.101 49.2617 246.38 50.0694 246.072 51.2747C245.688 52.781 246.428 53.6047 247.178 53.8513C248.173 54.1801 249.594 53.6682 250.369 51.7714C250.782 50.7582 250.75 49.8344 250.506 48.9606C250.067 48.8445 249.637 48.7846 249.228 48.7846L249.226 48.7855ZM126.798 47.0764C125.65 47.3909 124.655 48.0458 124.113 48.8668C123.658 49.5575 123.756 50.1713 124.08 50.3982C124.445 50.6528 125.197 50.4438 125.985 49.3788C126.468 48.7257 126.744 47.9314 126.798 47.0764ZM226.259 36.8152C225.865 36.993 225.463 37.2253 225.047 37.5112C223.63 38.485 223.05 40.0137 223.225 40.9572C223.316 41.4477 223.586 41.7497 224.029 41.8569C224.752 42.0293 225.277 41.6827 225.592 41.3601C226.461 40.4676 226.798 38.7281 226.394 37.2244C226.354 37.0797 226.31 36.9439 226.259 36.8152ZM194.158 28.1265C194.125 28.4356 194.126 28.7447 194.143 29.0449L194.155 29.2567C194.285 31.5251 194.464 34.6316 191.063 36.9474C189.837 37.7828 189.237 38.7826 189.418 39.6912C189.579 40.5069 190.361 41.1377 191.508 41.3771C192.818 41.6487 194.323 41.2217 195.534 40.2308C196.989 39.039 197.816 37.2128 197.801 35.2195C197.782 32.5999 195.966 30.0349 194.157 28.1274L194.158 28.1265ZM95.6044 36.4641C95.4284 37.2816 95.4391 38.0928 95.5803 38.7173C95.7313 39.3865 95.9279 39.7537 96.0574 39.9279C96.1369 39.6769 96.2173 39.1292 96.1351 38.125C96.0905 37.5836 95.902 37.0109 95.6044 36.4641ZM129.417 31.2598C129.217 31.2598 128.991 31.3295 128.869 31.3741C127.946 31.7092 127.002 33.0663 126.961 34.8166C128.166 34.5816 128.888 33.8356 129.155 33.5068C129.877 32.616 129.97 31.6931 129.758 31.3965C129.686 31.2946 129.558 31.2598 129.417 31.2598ZM153.695 23.1706C155.585 24.2632 157.757 24.7377 159.358 24.4098C160.113 24.2561 161.037 23.846 161.157 22.7676C161.233 22.085 160.996 21.5534 160.473 21.2309C159.562 20.6689 157.638 20.6904 154.962 22.4326C154.535 22.7104 154.111 22.957 153.695 23.1706ZM186.523 19.0697C186.15 19.0697 185.865 19.1635 185.704 19.3046C185.569 19.4226 185.578 19.5244 185.599 19.6004C185.691 19.9229 186.364 20.5528 188.301 20.8708C188.696 20.9352 189.08 20.9816 189.452 21.012C189.108 20.3098 188.624 19.7317 187.766 19.3574C187.296 19.1519 186.871 19.0697 186.523 19.0697Z" stroke="#CA9C28" stroke-width="2"/>
</svg>