<svg xmlns="http://www.w3.org/2000/svg" width="200" height="299" viewBox="0 0 200 299" fill="none">
  <path d="M34.0464 297.343C33.9366 297.343 33.8268 297.289 33.7626 297.189C33.6612 297.032 33.7051 296.824 33.8622 296.721C38.5666 293.662 43.5598 291.754 48.7017 291.049C55.4922 290.118 61.4449 291.446 71.3064 293.649C72.2861 293.867 73.2439 294.091 74.1696 294.308C79.5834 295.573 84.2574 296.667 90.6679 296.235C93.3976 296.051 96.482 295.559 98.6645 293.309C100.595 291.319 101.023 288.836 101.322 286.254C102.188 278.75 101.891 272.713 101.651 267.863C101.624 267.318 101.597 266.786 101.573 266.267C101.208 258.36 101.026 254.395 101.32 249.488C101.391 248.306 101.475 247.213 101.558 246.159C101.816 242.823 102.026 240.13 101.587 237.292C101.082 237.041 100.484 236.914 99.8857 236.821C98.5158 236.608 97.1746 236.576 95.8959 236.659C95.4432 237.468 94.8165 238.423 94.0749 239.548C91.8047 242.999 90.6645 244.73 88.8858 245.743C86.8334 246.912 85.2253 246.635 83.3638 246.314C81.7067 246.029 79.8283 245.706 77.1206 246.287C75.3875 246.659 74.6814 247.1 73.5125 247.828C72.4939 248.463 71.0986 249.333 68.3875 250.495C64.803 252.032 60.9179 253.21 57.1527 253.899C50.6122 255.097 45.4467 256.042 42.4805 253.132C41.3588 252.031 40.9551 250.764 40.5987 249.645C40.2186 248.453 39.9196 247.512 38.8774 247.118C37.7406 246.688 36.6224 247.243 35.543 247.779C34.4872 248.303 33.396 248.845 32.4045 248.279C31.6663 247.858 31.1139 246.879 30.8859 245.591C30.619 244.08 30.7896 241.75 32.1443 240.157C34.0345 237.934 37.4551 238.105 40.2034 238.24C41.9754 238.328 43.6494 238.411 43.9247 237.715C44.2946 236.779 42.4146 234.61 39.1342 232.191C37.0548 230.657 35.3436 229.902 33.9703 229.296C32.3099 228.563 31.2136 228.08 30.8893 226.757C30.293 224.326 32.9974 221.515 35.1072 220.296C36.4822 219.5 37.4872 219.421 38.6528 219.33C39.6528 219.25 40.7862 219.161 42.4365 218.58C44.8436 217.73 48.3926 215.904 48.2997 214.352C48.195 212.61 43.4686 210.803 39.293 210.269C37.6122 210.054 36.4112 210.107 35.445 210.147C34.1629 210.203 33.3166 210.239 32.6545 209.478C30.6122 207.132 33.6646 201.271 36.3707 198.048C37.4703 196.739 38.624 195.711 45.0666 191.389C46.3909 190.5 47.5311 189.745 48.5379 189.078C52.9872 186.134 54.3284 185.244 54.2203 184.264C54.0598 182.81 51.0902 181.874 46.1696 180.321C40.543 178.546 37.7186 177.656 35.6224 178.935C34.3436 179.713 33.9805 180.789 33.5599 182.034C33.1359 183.288 32.6562 184.71 31.0785 185.853C29.2035 187.213 26.3386 187.74 23.7778 187.198C22.1038 186.843 20.8589 186.088 20.271 185.073C19.4417 183.642 20.0869 182.017 20.7102 180.445C21.3183 178.911 21.8927 177.463 21.1258 176.294C20.4822 175.313 19.2643 175.097 18.0852 174.887C16.8893 174.676 15.6528 174.456 15.1798 173.369C14.5971 172.031 15.6596 170.607 16.6866 169.23C17.5329 168.097 18.4079 166.924 18.0531 166.093C17.7558 165.397 16.7542 165.313 15.0109 165.223C13.1883 165.129 10.6934 165 8.07006 163.728C4.98223 162.235 1.35217 159.176 1.2846 155.487C1.20183 150.891 6.79979 147.382 10.1207 146.036C14.8673 144.11 19.521 144.612 22.3014 144.911C22.9906 144.985 23.7508 145.066 24.1325 145.044C23.7998 144.843 23.065 144.556 22.3994 144.296C19.6866 143.237 14.6376 141.264 11.6545 136.725C9.83019 133.948 9.05147 130.946 9.40282 128.043C9.97546 123.321 13.8521 117.923 18.1815 117.767C20.6764 117.676 22.5768 119.404 24.1038 120.791C25.3504 121.923 26.4264 122.901 27.3707 122.526C28.1612 122.213 28.2981 121.247 28.472 119.565C28.6494 117.845 28.8707 115.705 30.2609 113.685C33.2051 109.411 40.2794 107.495 46.3639 109.325C53.7659 111.55 56.7727 118.852 56.896 119.163C57.2118 119.952 58.0193 123.803 59.7878 132.242C60.1595 134.017 60.5412 135.837 62.0598 137.311C63.7017 138.906 66.575 140.044 68.075 139.125C70.7371 137.495 68.8368 129.707 67.923 125.965C66.6037 120.561 65.8774 117.585 63.276 114.962C61.4889 113.159 59.6139 112.305 57.9585 111.55C55.9635 110.641 54.2406 109.855 53.5548 107.724C53.0615 106.193 53.4027 104.879 53.6764 103.822C53.9551 102.742 54.0919 102.105 53.6257 101.588C52.7997 100.668 50.8706 101.139 49.0041 101.593C46.9416 102.095 44.8065 102.615 43.6561 101.43C42.5632 100.303 43.0869 98.4195 43.8808 95.5665C43.945 95.3333 44.0125 95.0952 44.0801 94.8469C45.5902 89.3638 46.2068 85.857 46.6156 83.5361C47.1679 80.4043 47.374 79.232 48.9636 78.2455C53.9399 75.156 62.1645 80.227 62.5125 80.4449C64.9905 81.9938 66.602 83.8503 67.6696 85.0783C68.3672 85.8807 69.0243 86.6391 69.2946 86.5141C69.352 86.4888 69.4956 86.384 69.6155 85.9769C70.0496 84.5057 69.6003 80.8114 67.6291 77.6999C67.1662 76.9702 66.0834 75.2624 57.9281 70.1949C56.4247 69.2608 55.2608 68.5733 54.3267 68.0192C51.7997 66.5243 51.0379 66.0733 50.521 64.7912C49.048 61.129 51.6578 55.9635 54.9973 52.7524C56.7845 51.0345 58.423 50.3013 59.7406 49.7135C61.2203 49.053 62.3892 48.5294 63.2169 46.9213C63.972 45.4534 63.7963 44.3909 63.5514 42.9196C63.3554 41.7406 63.1105 40.2743 63.352 38.2423C64.2152 30.9517 70.0885 26.3369 70.7557 25.8352C74.4567 23.0497 81.2794 20.3149 84.8587 22.9585C85.6493 23.543 86.1459 24.2862 86.5074 24.8284C86.6408 25.0278 86.7996 25.2642 86.9077 25.3808C86.9584 25.0818 86.8503 24.3082 86.7523 23.6139C86.4652 21.5565 85.9854 18.1122 87.2135 14.6612C87.9381 12.6224 89.2422 11.065 91.8385 7.96361C94.8891 4.31835 96.4195 2.49065 98.2574 1.9366C102.74 0.586936 109.224 3.94673 111.347 8.71867C111.832 9.8082 111.987 10.7558 112.112 11.5177C112.276 12.521 112.386 13.1849 113.085 13.6477C114.158 14.3572 115.507 13.8234 116.935 13.2592C118.497 12.641 120.11 12.0025 121.675 12.7812C122.985 13.4332 123.244 14.5818 123.571 16.0362C123.894 17.4687 124.296 19.2507 125.854 21.3369C126.759 22.5497 127.485 23.1021 128.252 23.6849C129.136 24.3572 130.05 25.0514 131.269 26.7524C131.783 27.4703 133.347 29.6511 134.196 32.7794C134.913 35.4196 134.783 38.124 134.546 43.0311C134.506 43.8757 134.462 44.5868 134.423 45.2152C134.32 46.8909 134.252 47.9973 134.519 48.1206C134.624 48.1679 135.071 48.2203 136.386 46.8655C137.274 45.9483 138.256 44.7152 139.355 43.3149C141.424 40.6798 142.604 38.7693 143.465 37.3757C144.658 35.4433 145.315 34.3791 146.94 33.7389C150.017 32.5261 154.362 33.7068 156.622 36.3706C157.933 37.9146 158.043 39.4044 158.151 40.8453C158.252 42.2169 158.348 43.5125 159.495 44.8233C160.752 46.2608 162.18 46.4838 163.693 46.7186C165.208 46.9551 166.774 47.1983 168.119 48.7101C170.913 51.8486 169.742 57.1628 169.041 60.3385C168.531 62.656 167.832 65.8317 165.23 68.4516C164.217 69.4736 163.338 69.9804 162.634 70.3891C161.805 70.8689 161.257 71.1847 160.908 72.0597C159.6 75.33 163.713 79.9685 163.889 80.1645C164.972 81.3705 165.813 81.8739 166.629 82.3621C167.527 82.9009 168.377 83.4094 169.326 84.7607C170.102 85.8655 172.495 89.7084 170.693 92.7371C169.47 94.7945 166.671 95.9685 164.705 95.2489C163.805 94.9195 163.392 94.3097 163.027 93.7709C162.707 93.2962 162.43 92.8857 161.852 92.7202C160.87 92.4381 159.391 92.9685 158.169 94.0411C157.146 94.9398 156.582 95.9752 156.698 96.7421C156.805 97.4465 157.48 97.7979 158.576 98.3114C159.801 98.8857 161.325 99.6019 162.245 101.372C163.046 102.913 163.436 105.316 162.401 106.952C161.418 108.501 159.734 108.59 157.783 108.695C155.913 108.794 153.793 108.908 151.641 110.269C148.125 112.495 146.985 116.533 146.374 118.7C145.651 121.262 144.75 124.452 146.467 126.328C147.865 127.857 150.512 127.965 152.379 127.416C154.278 126.859 155.136 125.696 156.433 123.938C157.23 122.859 158.132 121.634 159.504 120.232C160.424 119.291 163.803 116.063 168.578 114.068C172.894 112.266 180.583 110.566 182.848 113.673C183.784 114.957 183.426 116.509 183.08 118.011C182.71 119.615 182.36 121.132 183.353 122.463C183.874 123.159 184.382 123.308 185.891 123.745C186.728 123.989 187.877 124.321 189.453 124.886C194.38 126.649 196.852 127.534 197.598 129.299C198.105 130.499 197.715 131.357 197.068 132.779C196.463 134.11 195.636 135.933 194.911 139.146C194.804 139.62 194.715 140.055 194.637 140.438C194.303 142.075 194.102 143.061 193.19 143.441C192.188 143.859 191.237 143.164 190.23 142.428C189.195 141.669 188.122 140.886 186.857 141.095C185.176 141.372 183.527 143.332 183.588 144.977C183.629 146.09 184.438 146.69 185.556 147.517C186.701 148.365 188.127 149.421 189.134 151.435C189.597 152.362 191.004 155.646 189.652 158.985C188.227 162.504 184.556 164.279 181.749 164.438C179.929 164.543 178.877 163.97 177.543 163.247C176.554 162.712 175.436 162.103 173.678 161.548C168.874 160.026 162.894 160.1 162.256 161.69C162.012 162.293 162.806 163.071 163.906 164.149C165.49 165.703 167.658 167.831 169.022 171.421C169.696 173.195 171.489 177.906 169.318 180.874C168.046 182.614 166.046 182.877 164.114 183.13C162.169 183.387 160.333 183.629 159.174 185.266C157.816 187.188 157.874 190.316 159.293 191.583C161.247 193.328 166.058 191.333 168.85 189.36C170.875 187.929 171.757 186.576 172.612 185.267C173.526 183.867 174.389 182.543 176.477 181.232C179.154 179.553 184.338 177.708 186.857 179.911C188.181 181.07 187.994 182.696 187.777 184.58C187.548 186.576 187.288 188.84 188.624 191.337C189.387 192.764 190.174 193.33 191.171 194.046C192.232 194.808 193.549 195.755 195.196 198.065C196.982 200.566 199.005 203.402 198.12 206.472C197.451 208.789 195.261 210.766 192.791 211.276C191.095 211.627 189.884 211.124 188.816 210.679C187.831 210.271 186.982 209.916 185.887 210.254C183.551 210.972 182 214.301 181.727 217.066C181.48 219.57 182.355 221.195 183.203 222.765C184.036 224.311 184.899 225.911 184.602 228.237C184.103 232.14 180.801 235.833 177.534 236.14C175.098 236.37 172.445 233.914 167.634 229.456C165.84 227.794 164.637 226.575 163.761 225.684C162.161 224.059 161.563 223.453 160.137 222.931C156.86 221.732 151.975 221.961 148.982 224.723C146.85 226.689 146.698 229.034 146.536 231.517C146.379 233.946 146.215 236.458 144.087 238.581C139.457 243.2 130.112 241.274 129.061 241.039C127.32 240.649 125.759 239.899 124.249 239.173C123.176 238.657 122.068 238.124 120.913 237.732C118.575 236.938 116.239 237.767 113.764 238.646C111.94 239.292 110.055 239.961 108.163 239.921C108.021 239.917 107.85 239.887 107.658 239.847C107.697 240.102 107.752 240.36 107.808 240.625C107.872 240.923 107.936 241.23 107.98 241.539C108.178 242.963 108.227 244.426 108.273 245.841C108.294 246.517 108.318 247.215 108.357 247.895C108.49 250.213 108.712 252.568 108.928 254.843C109.191 257.63 109.463 260.512 109.575 263.363C109.656 265.428 109.55 267.487 109.448 269.478C109.418 270.058 109.389 270.637 109.364 271.22C109.237 274.095 109.413 277.056 109.583 279.921C109.639 280.87 109.698 281.85 109.744 282.811C109.82 284.382 109.904 286.058 110.043 287.726C110.06 287.928 110.07 288.142 110.082 288.363C110.115 289.037 110.153 289.799 110.394 290.355C110.438 290.455 110.487 290.563 110.539 290.677C110.947 291.578 111.479 292.76 111.227 293.515C111.813 293.845 112.311 294.032 112.561 294.115C114.024 294.601 115.205 294.461 118.203 293.934C121.267 293.395 122.93 293.034 124.028 292.794C125.043 292.573 125.656 292.439 126.514 292.351C129.639 292.029 131.842 292.718 134.176 293.448C134.762 293.632 135.37 293.821 135.999 293.997C146.593 296.953 157.698 294.419 163.374 292.647C164.864 292.183 166.006 291.742 167.014 291.353C169.103 290.549 170.614 289.966 173.277 289.926C177.397 289.862 181.553 291.132 185.639 293.698C185.796 293.797 185.845 294.005 185.745 294.164C185.646 294.323 185.438 294.37 185.279 294.27C181.306 291.775 177.271 290.537 173.288 290.601C170.744 290.64 169.357 291.174 167.257 291.983C166.239 292.375 165.085 292.819 163.575 293.292C157.828 295.088 146.578 297.65 135.816 294.649C135.178 294.471 134.566 294.279 133.975 294.095C131.71 293.387 129.571 292.716 126.585 293.025C125.766 293.11 125.2 293.233 124.173 293.456C123.068 293.696 121.399 294.059 118.322 294.601C115.262 295.14 113.955 295.292 112.35 294.759C112.065 294.664 111.477 294.443 110.793 294.044C110.504 294.194 110.154 294.154 109.735 294.107C109.391 294.066 108.963 294.017 108.413 294.042C107.72 294.074 107.367 294.198 106.879 294.37C106.531 294.492 106.137 294.63 105.541 294.767C102.889 295.375 101.306 295.286 100.835 294.498C100.411 293.792 101.033 292.958 101.485 292.35C101.59 292.21 101.688 292.078 101.749 291.976C103.416 289.262 103.445 286.291 103.323 283.232C103.279 282.142 103.122 281.037 102.97 279.968L102.906 279.51C102.762 278.482 102.659 275.97 102.599 274.47C102.577 273.95 102.56 273.537 102.551 273.443C102.551 273.438 102.551 273.433 102.551 273.428C102.636 277.156 102.563 281.428 101.996 286.328C101.695 288.924 101.229 291.637 99.1526 293.777C96.8114 296.191 93.5749 296.713 90.7168 296.906C84.2067 297.345 79.4854 296.24 74.0192 294.961C73.0953 294.745 72.1392 294.522 71.1628 294.304C61.3757 292.118 55.4686 290.799 48.798 291.715C43.7541 292.407 38.8538 294.281 34.2339 297.284C34.1764 297.321 34.1139 297.338 34.0497 297.338L34.0464 297.343ZM102.195 236.862C102.516 237.063 102.801 237.318 103.033 237.647C104.142 239.232 103.688 241.37 103.286 243.259C103.178 243.771 103.075 244.252 103.012 244.691C102.637 247.296 102.475 249.902 102.531 252.434C102.56 253.779 102.575 255.309 102.588 256.789C102.617 259.85 102.648 263.014 102.81 264.64C103.045 266.99 103.115 269.83 103.163 271.708C103.183 272.512 103.198 273.147 103.22 273.384C103.23 273.49 103.244 273.821 103.269 274.446C103.327 275.836 103.431 278.424 103.572 279.421L103.636 279.877C103.789 280.963 103.95 282.085 103.994 283.208C104.121 286.375 104.087 289.456 102.32 292.333C102.242 292.458 102.136 292.603 102.023 292.755C101.703 293.186 101.219 293.835 101.409 294.154C101.637 294.534 102.955 294.669 105.384 294.112C105.943 293.983 106.318 293.851 106.649 293.735C107.151 293.559 107.585 293.407 108.376 293.37C108.98 293.341 109.458 293.397 109.806 293.438C109.833 293.441 109.859 293.444 109.884 293.446C109.235 292.953 108.577 292.304 108.05 291.463C106.982 289.762 107.121 288.384 107.425 285.365C107.582 283.809 107.776 281.873 107.886 279.206L107.903 278.796C107.985 276.794 108.072 274.723 107.965 272.713C107.906 271.581 107.778 270.429 107.654 269.314C107.517 268.069 107.374 266.781 107.323 265.5C107.274 264.276 107.323 263.044 107.372 261.853C107.414 260.821 107.457 259.755 107.435 258.708C107.396 256.895 107.185 255.061 106.98 253.286C106.707 250.911 106.423 248.455 106.545 245.997C106.553 245.816 106.563 245.637 106.573 245.456C106.639 244.265 106.703 243.14 106.42 242.017C106.384 241.877 106.276 241.659 106.163 241.428C105.84 240.772 105.396 239.874 105.952 239.298C106.19 239.051 106.551 239.009 106.933 239.041C106.938 238.931 106.947 238.82 106.962 238.71C107.34 236.004 109.658 233.906 111.191 232.517C111.467 232.267 111.739 232.015 112.011 231.765C113.544 230.348 115.131 228.88 117.186 228.022C119.921 226.877 122.458 225.902 124.941 225.037C126.908 224.353 128.87 223.571 130.769 222.813C132.104 222.281 133.482 221.73 134.855 221.218C136.592 220.57 138.382 220.078 140.114 219.602C140.952 219.372 141.818 219.134 142.666 218.88C144.514 218.331 145.904 217.649 147.044 216.737C147.141 216.661 147.235 216.583 147.332 216.505C148.332 215.696 149.367 214.858 150.739 214.674C152.511 214.436 153.629 214.87 157.335 216.306L158.12 216.61C162.644 218.358 164.666 219.071 166.142 219.593C167.735 220.156 168.614 220.465 171.21 221.576C172.328 222.054 173.298 222.483 174.078 222.826C174.742 223.119 175.36 223.392 175.848 223.595C174.967 222.902 173.433 221.845 171.695 220.825C167.788 218.532 162.583 216.571 158.904 215.328C157.757 214.941 156.803 214.639 156.038 214.396C153.551 213.607 152.715 213.34 152.59 212.463C152.414 211.23 154.066 209.828 157.639 208.179C159.406 207.363 161.576 206.519 164.088 205.671C165.369 205.239 169.955 203.757 175.303 202.838L175.424 202.818C176.146 202.695 178.06 202.367 180.588 201.826C182.217 201.478 183.706 201.161 184.661 200.923C182.311 200.83 176.595 201.092 170.36 202.485C167.548 203.114 163.299 204.063 158.374 206.517C154.274 208.559 152.431 210.284 150.647 211.951C148.847 213.635 147.146 215.227 143.372 217.005C142.992 217.184 138.881 218.445 128.783 221.532L128.053 221.755C121.321 223.813 120.457 224.078 118.798 224.894C115.558 226.488 113.343 228.181 111.725 229.416C109.892 230.816 108.786 231.662 107.771 231.085C106.778 230.521 106.923 229.201 107.246 226.313C107.43 224.654 107.683 222.382 107.825 219.387C107.931 217.156 108.036 213.196 107.938 207.009C107.923 206.054 107.904 205.223 107.886 204.492C107.8 200.806 107.771 199.565 108.654 197.934C109.669 196.059 110.977 195.389 112.784 194.46C113.759 193.96 114.862 193.392 116.208 192.512C123.071 188.029 126.771 181.541 128.163 179.098C131.713 172.87 132.751 170.046 132.761 170.019C132.935 169.538 133.085 169.092 133.23 168.661C133.903 166.669 134.389 165.232 135.923 164.11C136.904 163.392 137.722 163.24 138.958 163.007C139.685 162.872 140.588 162.701 141.781 162.365C143.899 161.767 145.289 161.109 147.588 160.017C149.913 158.916 151.083 158.132 152.563 157.141C153.857 156.274 155.325 155.291 157.941 153.826C159.237 153.102 160.315 152.538 161.18 152.085C161.45 151.943 161.715 151.805 161.955 151.676C160.97 151.923 159.514 152.377 158.004 152.968C155.326 154.017 153.788 154.997 152.159 156.036C150.637 157.006 149.065 158.007 146.509 159.054C143.261 160.386 140.007 161.58 139.011 160.303C138.163 159.217 139.431 157.218 142.379 152.804C144.257 149.992 146.2 147.083 149.519 143.625C150.24 142.874 150.84 142.291 151.369 141.779C152.352 140.825 153.201 140 154.462 138.46C155.631 137.031 156.82 135.409 157.409 134.473C155.288 136.092 149.012 142.007 143.154 149.813C138.252 156.348 134.605 162.972 129.087 172.999L128.798 173.526C126.526 177.663 123.698 182.81 118.315 187.962C116.041 190.137 110.538 195.048 108.529 193.63C107.778 193.1 107.899 192.102 108.168 189.916C108.235 189.365 108.311 188.742 108.389 188.019C108.773 184.421 108.74 182.492 108.713 180.791C108.686 179.137 108.663 177.71 109.07 175.259C109.323 173.735 109.541 173.068 111.624 166.69L111.788 166.19C116.225 152.603 117.036 150.053 117.985 146.698C119.044 142.95 119.798 139.918 120.462 137.244C121.183 134.337 122.169 130.365 123.279 125.185C123.558 123.884 123.749 122.957 123.901 122.21C124.205 120.729 124.357 119.985 124.749 118.516C125.453 115.87 126.183 113.136 127.588 110.117C128.479 108.203 129.935 106.102 132.578 102.288C134.063 100.146 135.126 98.6813 135.903 97.6121C137.333 95.6408 137.926 94.8249 138.752 93.0901C139.462 91.6019 139.685 90.8249 139.995 89.7489C140.245 88.8823 140.556 87.803 141.222 86.0141C142.387 82.8807 143.862 80.0547 146.538 74.9263C147.661 72.7726 148.433 71.352 149.411 69.5513C150.391 67.7489 151.5 65.705 153.305 62.2979C154.347 60.33 155.345 58.4297 156.004 57.1155C155.308 58.0648 154.389 59.3909 153.435 60.8385C151.141 64.3182 149.168 67.7625 145.897 74.0006C145.075 75.5682 144.386 76.9043 143.83 77.977C141.468 82.5479 141.041 83.3722 140.227 83.1932C139.303 82.9905 138.36 81.2692 139.286 69.6459C139.521 66.6949 139.94 63.6476 140.531 60.5885C140.984 58.2456 141.45 56.3503 141.835 54.9179C140.533 58.004 138.712 63.3385 138.014 69.428C137.453 74.3233 137.903 77.0141 138.338 79.6172C138.7 81.7776 139.041 83.8199 138.776 86.9229C138.262 92.9482 136.095 95.71 133.095 99.5344C130.801 102.46 127.945 106.1 125.048 112.403C123.869 114.968 123.663 115.843 122.673 120.051C121.727 124.073 120.144 130.805 116.441 144.566C111.578 162.649 110.904 163.473 110.212 163.328C109.724 163.225 109.744 162.769 109.854 160.242C109.889 159.426 109.933 158.409 109.972 157.152C110.099 153.034 110.051 150.218 109.972 145.556C109.916 142.293 109.847 138.234 109.409 133.065C109.239 131.046 109.115 130.087 108.975 128.977C108.827 127.808 108.658 126.484 108.396 123.597C108.078 120.088 107.803 117.058 107.718 112.975C107.68 111.136 107.622 108.357 107.832 104.83C108.012 101.791 108.266 100.208 108.49 98.8114C108.708 97.46 108.896 96.2928 108.958 94.1306C109.009 92.3959 108.93 91.705 108.796 90.5563C108.653 89.3148 108.457 87.6138 108.281 83.6695C108.132 80.2844 108.093 76.8249 108.168 73.3874C108.242 69.9229 108.281 68.1848 108.519 67.3283C108.827 66.2236 109.229 65.3739 109.69 64.6611C109.039 65.3841 108.551 65.6392 108.154 65.477C107.629 65.2642 107.688 64.6223 107.796 63.4567C107.864 62.7219 107.95 61.8064 107.943 60.6561C107.931 58.8554 107.695 57.8216 107.175 55.5581C106.958 54.6189 106.691 53.45 106.371 51.9297C105.725 48.8639 105.403 47.325 105.126 45.3672C104.806 43.097 104.778 41.8909 104.71 38.9787C104.678 37.624 104.639 35.9382 104.558 33.6054C104.406 29.2473 104.33 27.0615 104.109 24.7186C103.805 21.5176 103.343 18.4264 102.982 16.5835C103.021 18.4298 103.159 21.8504 103.392 27.5142L103.543 31.2119C103.627 33.2642 103.697 35.021 103.757 36.5311C104.107 45.1983 104.127 45.7169 104.328 47.3064C104.749 50.6392 105.202 52.8149 105.639 54.9162C106.18 57.5176 106.691 59.9736 107.034 64.2321C107.181 66.0598 107.183 66.8131 107.186 68.4635C107.19 69.754 107.193 71.5209 107.261 74.7371C107.392 81.0361 107.61 85.0732 107.769 88.0209C108.007 92.4465 108.127 94.6695 107.71 98.9043C107.436 101.685 107.148 103.114 106.892 104.374C106.609 105.778 106.364 106.989 106.246 109.708C106.104 112.95 106.286 114.896 106.889 121.34C106.999 122.512 107.122 123.832 107.259 125.333C108.004 133.46 108.377 137.539 108.387 139.004C108.406 141.811 108.276 143.419 108.11 145.457C107.938 147.58 107.724 150.222 107.599 155.25C107.572 156.304 107.555 157.264 107.539 158.109C107.465 162.161 107.443 162.538 106.945 162.568C106.531 162.592 106.425 162.122 106.254 161.137C106.112 160.32 105.933 159.071 105.661 157.181C105.485 155.951 105.273 154.468 105.011 152.698C104.303 147.902 103.896 145.438 103.653 143.965C103.359 142.19 103.289 141.769 103.205 140.381C103.171 139.828 103.148 139.32 103.124 138.837C103.036 136.965 102.965 135.487 102.425 133.34C102.191 132.414 101.979 131.796 101.734 131.078C101.49 130.369 101.215 129.566 100.849 128.276C100.458 126.894 100.315 126.191 100.1 125.129C99.9601 124.441 99.7861 123.585 99.4922 122.283C99.1104 120.593 98.7793 119.289 98.4888 118.137C98.0006 116.205 97.5783 114.536 97.1205 111.892C96.7743 109.894 96.6526 108.676 96.8942 107.159C97.0952 105.904 97.4178 105.245 97.7591 104.55C98.0057 104.046 98.2607 103.526 98.4803 102.727C98.8553 101.362 98.7354 100.612 98.5361 99.3688C98.3756 98.3637 98.1746 97.1121 98.1307 95.0428C98.0648 91.9499 98.4161 89.509 98.5851 88.3351C98.8266 86.656 99.1273 85.2827 99.3857 84.2489C98.6239 85.933 97.705 88.5918 97.4516 91.6813C97.33 93.1611 97.4077 94.1695 97.4871 95.2388C97.5884 96.5715 97.6932 97.9499 97.4499 100.369C97.4212 100.663 97.2607 102.2 96.9905 103.68C96.482 106.472 95.9939 106.865 95.5411 106.874C95.5361 106.874 95.531 106.874 95.5259 106.874C94.7996 106.874 94.5817 105.894 93.5648 101.31C93.4162 100.636 93.2489 99.8874 93.0631 99.0563C92.2641 95.4989 91.7726 93.482 91.4145 92.0073C90.9331 90.031 90.7135 89.129 90.3537 86.9736C90.1493 85.7557 89.8401 83.2574 89.2236 78.2776C88.5361 72.7202 88.1898 69.9348 88.0935 68.45C87.9787 66.6864 87.9567 65.4821 87.9331 64.3182C87.9027 62.7523 87.8756 61.2743 87.6425 58.5344C87.3824 55.4804 87.1307 53.7946 86.3148 51.8723C85.5327 50.0294 84.526 48.5818 83.8925 47.8486C83.9854 48.0818 84.0952 48.347 84.205 48.6071C84.6611 49.7017 85.2861 51.2 85.8216 52.9973C86.8672 56.499 86.9179 58.9145 86.9956 62.5716C87.0158 63.5142 87.0361 64.4888 87.0766 65.5969C87.2422 70.232 87.6037 73.401 88.2016 78.6493C88.5952 82.107 89.4162 89.303 91.6881 97.8806C93.5462 104.898 94.5699 108.764 96.1881 113.185C96.8908 115.102 97.3384 117.112 98.2303 121.119C99.0394 124.751 99.2405 126.342 98.3976 126.789C97.634 127.195 96.5716 126.249 95.9989 125.742L95.9837 125.729C94.5699 124.472 93.0074 123.33 91.4955 122.225C89.7692 120.963 87.9854 119.659 86.3942 118.168C83.7101 115.651 82.5885 114.658 81.6865 113.86C80.7405 113.022 79.9939 112.362 77.9348 110.386C75.7675 108.305 74.1713 106.71 73.0902 105.629C74.5547 107.558 77.0209 110.528 80.0986 113.626C82.2489 115.788 85.5226 118.577 91.4651 123.641C92.1493 124.223 92.7709 124.752 93.3385 125.234C98.2101 129.372 99.0867 130.117 100.006 131.979C101.082 134.161 101.072 135.507 101.051 137.95C101.038 139.516 101.023 141.467 101.281 144.387C101.649 148.544 102.578 152.717 104.431 161.029C104.538 161.507 104.641 161.967 104.742 162.411C105.644 166.404 106.295 169.289 106.244 173.509C106.225 175.043 106.114 176.774 105.943 178.141C105.649 180.519 105.345 180.715 105.007 180.72H105.001C104.531 180.72 104.431 180.152 104.19 178.789C104.105 178.31 104.009 177.766 103.884 177.183C103.431 175.06 102.828 173.588 99.8503 167.337C98.6915 164.902 97.8925 163.262 97.3655 162.176C96.281 159.946 96.1425 159.661 95.8841 158.712C95.4111 156.972 95.3672 156.039 95.3097 154.859C95.2607 153.857 95.2016 152.609 94.8621 150.445C94.5006 148.139 93.8959 144.281 92.0665 139.926C91.1172 137.668 89.6847 134.256 86.4989 131.012C84.7574 129.239 82.9331 127.941 81.9601 127.404C82.1544 127.624 82.3908 127.881 82.6223 128.134C83.906 129.529 86.0547 131.865 88.0412 135.109C90.6999 139.448 91.7692 143.266 92.4753 145.793C93.6189 149.879 93.6611 151.992 93.7016 154.034C93.7388 155.867 93.7726 157.598 94.6172 160.678C95.254 163.002 95.7726 163.987 96.629 165.619C97.5631 167.397 98.8435 169.831 101.031 175.413C101.094 175.573 102.566 179.386 103.754 185.505C104.565 189.681 104.734 192.364 103.195 193.715C102.479 194.345 101.489 194.639 100.252 194.588C97.7303 194.487 96.2743 192.669 93.6307 189.369C92.8401 188.382 91.9449 187.264 90.8773 186.014C88.9871 183.796 87.9432 182.782 86.9347 181.803C85.8081 180.708 84.7439 179.673 82.6425 177.102C80.5564 174.548 79.0496 172.703 77.2084 169.855C76.4821 168.732 75.9331 167.803 75.4483 166.984C74.4145 165.239 73.6679 163.977 72.0581 162.234C69.4922 159.453 67.7895 158.777 66.5919 158.5C64.8402 158.093 63.1932 158.304 62.7068 158.534C62.9618 158.669 63.5277 158.852 64.0361 159.016C65.2557 159.408 66.9247 159.945 68.5345 160.926C71.4044 162.674 72.526 164.914 73.9466 167.749C74.4534 168.761 74.9787 169.806 75.6425 170.968C76.8588 173.098 77.4398 173.673 78.8435 175.061C80.3064 176.509 82.754 178.929 87.7861 185.014C89.5395 187.134 90.7928 188.713 91.8013 189.982C94.1628 192.955 94.9567 193.956 97.0766 195.438C97.6189 195.816 98.1087 196.13 98.5817 196.433C100.105 197.409 101.208 198.114 102.033 199.733C102.909 201.455 102.707 202.727 102.34 205.034C102.139 206.304 101.887 207.884 101.73 210.058C101.436 214.107 101.642 217.7 101.844 221.176C101.909 222.308 101.985 223.35 102.055 224.269C102.3 227.568 102.328 228.191 101.795 228.293C101.347 228.379 101.168 227.887 100.73 226.701C100.572 226.272 100.392 225.787 100.18 225.271C99.2776 223.09 98.3688 221.847 96.1712 218.84L95.4837 217.899C93.2996 214.904 92.5378 213.793 91.982 212.982C91.4837 212.255 91.156 211.776 90.0749 210.35C88.0192 207.635 86.8131 206.205 85.5361 204.69C84.2912 203.213 83.004 201.684 80.8317 198.852C79.3216 196.882 78.6814 195.975 78.1189 195.174C77.5243 194.331 77.0108 193.603 75.6493 191.864C74.0327 189.801 72.8892 188.45 71.8807 187.257C70.575 185.712 69.4466 184.377 67.749 182.046C66.276 180.022 64.8841 178.11 63.3318 175.362C62.2828 173.507 61.8757 172.541 61.1358 170.786C60.651 169.636 60.0463 168.205 59.0345 165.977C58.0007 163.703 57.4331 162.563 56.7743 161.242C56.0936 159.875 55.3216 158.326 53.8487 155.156C52.8622 153.034 51.7456 150.629 50.3487 147.367C47.7237 141.237 46.2777 137.859 45.9264 134.757C45.8419 134.007 45.82 133.521 45.7879 132.784C45.7473 131.862 45.6916 130.6 45.4754 127.982C45.1409 123.931 44.9264 122.772 44.2693 121.453C43.2 119.306 41.5345 117.903 40.7592 117.468C40.8757 117.664 41.0345 117.911 41.1899 118.153C42.0227 119.443 43.418 121.604 44.2203 124.597C44.8402 126.906 44.6865 128.185 44.5227 129.539C44.374 130.776 44.2186 132.055 44.5666 134.33C44.8419 136.136 46.1004 139.465 48.6071 146.1L48.8537 146.752C50.2625 150.467 50.8031 151.994 50.0531 152.478C49.5869 152.781 48.9416 152.46 47.2879 151.103C45.1342 149.338 44.0548 148.451 42.3875 146.315C41.1257 144.696 40.4703 144.131 39.4771 143.271C38.5024 142.428 37.168 141.274 34.6274 138.558C32.6832 136.477 31.1882 134.718 30.1274 133.43C31.9805 136.431 35.5058 141.533 40.2541 146.783C43.8774 150.789 46.4078 152.879 48.4416 154.558C50.9467 156.627 52.7575 158.122 55.0041 161.799C56.977 165.029 57.5075 167.051 58.0699 169.191C58.6443 171.379 59.2372 173.639 61.3554 177.543C62.8943 180.377 63.8351 181.502 67.3334 185.684C68.7135 187.335 70.4331 189.389 72.7355 192.203C76.7169 197.066 81.6712 203.12 87.4601 210.988C87.5074 211.053 92.303 217.592 98.1324 227.249C100.021 230.379 100.626 231.536 101.205 233.142C101.671 234.433 101.985 235.654 102.186 236.845L102.195 236.862ZM108.685 275.541C108.668 276.642 108.622 277.742 108.578 278.821L108.561 279.232C108.452 281.919 108.256 283.867 108.097 285.431C107.8 288.377 107.678 289.596 108.622 291.101C109.191 292.007 109.928 292.671 110.621 293.144C110.659 292.593 110.178 291.522 109.923 290.958C109.871 290.84 109.82 290.73 109.776 290.627C109.484 289.958 109.443 289.13 109.408 288.399C109.398 288.186 109.387 287.98 109.371 287.786C109.232 286.107 109.146 284.426 109.07 282.848C109.024 281.892 108.965 280.912 108.909 279.966C108.823 278.51 108.735 277.027 108.685 275.542V275.541ZM106.697 239.703C106.577 239.703 106.48 239.72 106.436 239.765C106.212 239.999 106.533 240.651 106.767 241.127C106.903 241.402 107.021 241.64 107.073 241.85C107.381 243.073 107.311 244.303 107.246 245.49C107.235 245.667 107.225 245.847 107.217 246.026C107.099 248.429 107.379 250.857 107.649 253.205C107.855 254.995 108.07 256.846 108.109 258.689C108.131 259.757 108.088 260.835 108.046 261.875C107.999 263.053 107.95 264.27 107.997 265.468C108.048 266.725 108.188 268.002 108.325 269.235C108.45 270.358 108.578 271.52 108.639 272.672C108.641 272.715 108.644 272.757 108.646 272.799C108.651 272.262 108.664 271.727 108.688 271.193C108.713 270.608 108.744 270.026 108.773 269.446C108.874 267.47 108.979 265.426 108.899 263.392C108.788 260.559 108.517 257.688 108.254 254.909C108.038 252.627 107.815 250.267 107.681 247.936C107.642 247.249 107.619 246.546 107.597 245.865C107.551 244.468 107.504 243.022 107.311 241.634C107.271 241.348 107.208 241.053 107.148 240.767C107.075 240.424 107.001 240.075 106.958 239.72C106.865 239.708 106.774 239.701 106.695 239.701L106.697 239.703ZM102.219 265.618C102.227 265.819 102.237 266.022 102.247 266.227C102.271 266.75 102.298 267.282 102.325 267.828C102.374 268.813 102.425 269.845 102.469 270.929C102.428 269.38 102.364 267.414 102.22 265.618H102.219ZM101.862 252.865C101.828 254.728 101.857 256.627 101.933 258.858C101.925 258.178 101.918 257.483 101.911 256.794C101.898 255.468 101.886 254.102 101.862 252.865ZM38.0278 246.287C38.3825 246.287 38.7457 246.347 39.1173 246.487C40.4653 246.997 40.8436 248.184 41.244 249.441C41.5767 250.483 41.9534 251.666 42.9551 252.651C45.6713 255.318 50.6848 254.399 57.0311 253.237C60.749 252.556 64.5834 251.394 68.1223 249.875C70.7861 248.733 72.1003 247.914 73.1561 247.255C74.3453 246.514 75.1307 246.024 76.9787 245.627C79.8131 245.019 81.7608 245.353 83.4787 245.649C85.2844 245.96 86.7101 246.205 88.5513 245.156C90.1881 244.223 91.2979 242.536 93.5091 239.176C94.1003 238.277 94.6459 237.448 95.0732 236.725C92.6239 236.975 90.4432 237.598 88.7844 238.075L88.4719 238.164C87.1696 238.536 87.0564 238.548 86.83 238.57C86.4888 238.603 85.8554 238.667 78.1493 240.703L78.1273 240.708C70.2388 242.791 66.2777 243.836 65.6713 244.073L65.5513 244.12C62.0243 245.493 55.9618 247.634 52.4247 247.634C52.0244 247.634 51.6578 247.607 51.3301 247.548C50.8402 247.46 50.3014 247.314 50.2406 247.298C49.2913 247.037 45.5159 245.757 45.7727 244.693C45.9061 244.14 46.646 244.203 48.2659 244.338C49.7558 244.463 51.7946 244.632 54.1916 244.436C56.2051 244.271 57.3183 243.928 61.0024 242.789C61.5277 242.627 62.1054 242.448 62.7456 242.252C67.1747 240.892 68.9821 240.394 70.5767 239.953C72.2439 239.493 73.6831 239.095 77.6256 237.855C77.6662 237.841 81.7591 236.558 87.2743 234.978C93.9432 233.07 95.7168 232.725 96.4381 233.757C96.8131 234.292 96.705 235.009 96.2574 235.961C97.4567 235.907 98.7101 235.955 99.9905 236.154C100.472 236.228 100.975 236.33 101.448 236.504C101.252 235.504 100.97 234.477 100.578 233.389C100.016 231.831 99.4246 230.698 97.5631 227.613C91.7506 217.985 86.9736 211.468 86.9263 211.404C81.1493 203.549 76.2 197.504 72.2236 192.646C69.923 189.835 68.2051 187.782 66.825 186.132C63.3824 182.016 62.3436 180.774 60.7726 177.879C58.6156 173.904 57.9855 171.499 57.4281 169.377C56.8554 167.195 56.3605 165.31 54.4399 162.166C52.2524 158.585 50.4787 157.12 48.0227 155.093C45.972 153.399 43.4196 151.293 39.7642 147.249C35.8538 142.926 32.9197 138.875 31.1477 136.239C29.9062 134.391 27.9535 131.272 28.0024 130.771C28.0126 130.668 28.0633 130.577 28.1443 130.517C28.4315 130.305 28.6781 130.593 28.8774 130.825C29.0396 131.014 29.2744 131.306 29.5717 131.674C30.5599 132.903 32.3994 135.19 35.1325 138.112C37.6477 140.803 38.9669 141.943 39.9298 142.776C40.9534 143.661 41.6291 144.244 42.9315 145.914C44.5514 147.992 45.6122 148.862 47.7271 150.597C49.1595 151.772 49.5767 151.923 49.695 151.923H49.6983C49.95 151.534 48.999 149.026 48.2338 147.007L47.9872 146.355C45.4636 139.676 44.1967 136.325 43.9112 134.448C43.5514 132.082 43.7169 130.696 43.8656 129.475C44.0277 128.132 44.1679 126.972 43.5818 124.789C42.8065 121.899 41.4467 119.793 40.6359 118.536C39.9923 117.539 39.6984 117.085 40.0886 116.772C40.2153 116.671 40.3808 116.642 40.5852 116.688C41.396 116.865 43.5869 118.563 44.8859 121.169C45.5902 122.583 45.8166 123.788 46.1612 127.945C46.3774 130.575 46.4348 131.845 46.4754 132.772C46.5075 133.495 46.5277 133.972 46.6105 134.7C46.9365 137.582 48.1865 140.59 50.9821 147.12C52.374 150.372 53.4889 152.772 54.4737 154.891C55.9433 158.053 56.7118 159.598 57.3909 160.96C58.0514 162.288 58.6223 163.433 59.6612 165.717C60.678 167.953 61.2828 169.389 61.771 170.543C62.5007 172.274 62.9044 173.228 63.9331 175.048C65.4686 177.762 66.8486 179.659 68.3098 181.668C69.9922 183.978 71.1122 185.304 72.4111 186.84C73.423 188.038 74.5699 189.394 76.1949 191.467C77.5682 193.218 78.0868 193.953 78.6865 194.804C79.2473 195.6 79.8807 196.5 81.3841 198.46C83.5479 201.281 84.83 202.803 86.0699 204.274C87.352 205.796 88.5648 207.233 90.6307 209.961C91.7202 211.399 92.053 211.885 92.5564 212.619C93.1104 213.426 93.8689 214.532 96.0462 217.519L96.7337 218.46C98.9651 221.512 99.8891 222.774 100.822 225.031C101.039 225.558 101.222 226.051 101.382 226.485C101.441 226.646 101.502 226.811 101.563 226.968C101.546 226.311 101.474 225.341 101.399 224.336C101.332 223.414 101.254 222.37 101.188 221.233C100.987 217.735 100.778 214.12 101.075 210.027C101.235 207.825 101.489 206.228 101.691 204.946C102.048 202.708 102.225 201.583 101.448 200.058C100.707 198.602 99.7236 197.973 98.2354 197.021C97.7793 196.728 97.2624 196.397 96.7084 196.01C94.5074 194.473 93.6966 193.451 91.2895 190.421C90.2844 189.154 89.0327 187.578 87.2827 185.463C82.2709 179.406 79.8385 176.999 78.3858 175.56C76.9787 174.168 76.3368 173.532 75.0733 171.321C74.401 170.144 73.8486 169.041 73.3605 168.07C71.9348 165.225 70.9044 163.169 68.2 161.521C66.6578 160.582 65.0328 160.058 63.847 159.676C62.5733 159.266 61.8723 159.041 61.9534 158.478C61.977 158.313 62.0767 158.169 62.249 158.051C62.8892 157.614 64.8993 157.428 66.7608 157.859C68.0513 158.158 69.879 158.875 72.5699 161.793C74.2287 163.59 74.9905 164.875 76.0446 166.658C76.526 167.472 77.0716 168.392 77.7912 169.505C79.6121 172.321 81.1087 174.154 83.1797 176.688C85.2591 179.232 86.3097 180.254 87.4212 181.335C88.4415 182.326 89.4956 183.35 91.406 185.592C92.4803 186.852 93.379 187.973 94.1729 188.963C96.7759 192.21 98.0817 193.84 100.296 193.929C101.354 193.973 102.185 193.735 102.766 193.223C103.909 192.218 103.999 190.237 103.109 185.649C101.931 179.588 100.48 175.831 100.42 175.674C98.2455 170.127 96.9753 167.712 96.0479 165.948C95.1999 164.333 94.6391 163.267 93.982 160.872C93.1155 157.712 93.08 155.94 93.0428 154.063C93.0023 152.063 92.9618 149.995 91.8401 145.99C91.1442 143.5 90.0901 139.737 87.4804 135.479C85.5277 132.291 83.406 129.987 82.1392 128.609C80.9922 127.362 80.6459 126.985 80.9787 126.619C81.0361 126.555 81.1425 126.479 81.3182 126.475C81.3216 126.475 81.325 126.475 81.3283 126.475C82.1679 126.475 84.9652 128.489 86.9956 130.555C90.2709 133.891 91.7354 137.375 92.7033 139.68C94.5648 144.11 95.178 148.021 95.5445 150.355C95.8891 152.554 95.9499 153.821 95.9989 154.84C96.0564 156.024 96.0969 156.881 96.5513 158.549C96.7928 159.438 96.906 159.671 97.9888 161.896C98.5175 162.982 99.3165 164.624 100.477 167.061C103.484 173.374 104.093 174.869 104.561 177.058C104.688 177.651 104.786 178.201 104.872 178.688C104.928 178.997 104.985 179.328 105.043 179.598C105.296 178.514 105.555 176.014 105.585 173.517C105.636 169.379 104.992 166.526 104.1 162.576C103.999 162.13 103.896 161.669 103.789 161.191C101.931 152.85 100.997 148.663 100.626 144.462C100.364 141.507 100.381 139.539 100.394 137.958C100.414 135.619 100.425 134.33 99.4195 132.291C98.5631 130.555 97.8114 129.916 92.9212 125.762C92.3537 125.281 91.732 124.752 91.0479 124.169C85.0902 119.093 81.8098 116.298 79.6408 114.115C75.1392 109.585 70.9449 104.2 70.9652 103.517C70.9686 103.413 71.0125 103.32 71.0868 103.252C71.3706 103.002 71.673 103.288 72.0581 103.651C72.3757 103.95 72.8351 104.411 73.4736 105.05C74.553 106.129 76.1814 107.761 78.4229 109.913C80.4719 111.879 81.2135 112.536 82.1544 113.369C83.0598 114.169 84.1848 115.166 86.8756 117.69C88.4364 119.153 90.2033 120.445 91.9128 121.695C93.4364 122.808 95.0124 123.96 96.4516 125.239L96.4668 125.252C97.5834 126.245 97.9685 126.278 98.0986 126.208C98.6239 125.93 97.8993 122.671 97.5884 121.281C96.7033 117.303 96.2574 115.306 95.5716 113.431C93.9415 108.982 92.9162 105.105 91.053 98.0681C88.7692 89.4432 87.9449 82.2151 87.5479 78.7405C86.9483 73.4753 86.5851 70.2979 86.4179 65.6358C86.3773 64.5226 86.357 63.5023 86.3368 62.602C86.2608 59.0007 86.2101 56.6206 85.1915 53.2067C84.6662 51.4432 84.0479 49.9635 83.5986 48.8841C82.9804 47.4027 82.7946 46.9551 83.2118 46.7253C83.2878 46.6831 83.4128 46.646 83.5817 46.7051C84.2608 46.9416 85.9516 49.2574 86.955 51.6257C87.8064 53.6307 88.0682 55.3655 88.3334 58.4939C88.5682 61.254 88.5986 62.8131 88.6273 64.3216C88.6493 65.4787 88.6729 66.6746 88.7861 68.4229C88.8807 69.8891 89.2253 72.6679 89.9111 78.2067C90.5276 83.1813 90.8351 85.6763 91.0378 86.879C91.3942 89.0107 91.6121 89.9043 92.0885 91.8638C92.4483 93.3401 92.9398 95.3604 93.7388 98.9246C93.9246 99.7556 94.0918 100.506 94.2405 101.18C94.857 103.96 95.2743 105.842 95.5564 106.188C95.955 105.81 96.5006 103.245 96.7928 100.318C97.0293 97.9567 96.9263 96.6087 96.8283 95.3063C96.7455 94.21 96.6661 93.1763 96.7928 91.6442C97.232 86.2641 99.6273 82.1087 100.068 81.8165C100.205 81.7253 100.33 81.7472 100.392 81.7675C100.747 81.8857 100.675 82.1476 100.433 83.0158C100.156 84.009 99.6408 85.8587 99.2675 88.4499C99.102 89.6053 98.7557 92.009 98.8199 95.0462C98.8638 97.0681 99.0597 98.2945 99.2168 99.2793C99.4229 100.566 99.5597 101.418 99.1459 102.923C98.9094 103.784 98.6408 104.333 98.379 104.864C98.0597 105.514 97.759 106.127 97.5749 107.283C97.3469 108.713 97.4601 109.832 97.7996 111.794C98.2523 114.413 98.6526 115.99 99.156 117.989C99.4482 119.144 99.7793 120.453 100.163 122.151C100.458 123.46 100.634 124.32 100.774 125.011C100.987 126.06 101.127 126.751 101.511 128.109C101.871 129.381 102.144 130.174 102.384 130.875C102.636 131.607 102.852 132.239 103.092 133.191C103.649 135.404 103.72 136.913 103.81 138.821C103.832 139.303 103.857 139.808 103.889 140.357C103.972 141.71 104.041 142.125 104.33 143.872C104.573 145.347 104.982 147.816 105.691 152.617C105.953 154.389 106.166 155.872 106.342 157.102C106.538 158.463 106.697 159.571 106.825 160.392C106.845 159.742 106.86 158.951 106.876 158.114C106.891 157.267 106.909 156.306 106.936 155.25C107.063 150.203 107.278 147.551 107.452 145.419C107.615 143.399 107.744 141.805 107.725 139.026C107.715 137.59 107.343 133.521 106.599 125.413C106.46 123.911 106.337 122.592 106.229 121.419C105.622 114.938 105.44 112.982 105.583 109.695C105.705 106.923 105.955 105.686 106.244 104.256C106.496 103.011 106.781 101.6 107.051 98.8536C107.463 94.6695 107.343 92.4651 107.107 88.0732C106.948 85.1205 106.73 81.0766 106.599 74.7675C106.531 71.5462 106.528 69.7743 106.524 68.4821C106.521 66.7996 106.519 66.1037 106.374 64.303C106.033 60.0851 105.526 57.6493 104.99 55.0699C104.55 52.9551 104.095 50.7676 103.67 47.4061C103.465 45.7878 103.443 45.2676 103.094 36.5733C103.033 35.0632 102.962 33.3065 102.879 31.2541L102.729 27.5565C102.512 22.2575 102.381 19.0599 102.332 17.1612C102.267 14.6629 102.308 14.3724 102.734 14.3301C102.835 14.3217 102.936 14.3521 103.017 14.4197C103.139 14.5193 103.392 14.7288 103.938 18.0295C104.274 20.0599 104.585 22.4805 104.793 24.668C105.017 27.0294 105.093 29.2237 105.246 33.5953C105.327 35.9314 105.365 37.6189 105.398 38.9754C105.465 41.8605 105.492 43.0531 105.806 45.2845C106.078 47.2186 106.401 48.7507 107.043 51.8013C107.36 53.3149 107.629 54.4804 107.843 55.4179C108.374 57.7321 108.617 58.7878 108.629 60.6628C108.636 61.8469 108.546 62.8199 108.48 63.5311C108.43 64.075 108.372 64.6881 108.438 64.8621C108.833 64.8165 110.288 63.1206 111.94 60.0547C113.737 56.7203 114.328 54.1578 114.898 51.6797C115.115 50.7304 115.342 49.749 115.632 48.7355C118.078 40.1865 123.58 34.4247 124.151 34.1983C124.301 34.1392 124.416 34.1865 124.474 34.2186C124.773 34.396 124.605 34.7338 124.494 34.9568C124.399 35.1477 124.254 35.4179 124.053 35.7929C123.448 36.923 122.436 38.8115 121.112 41.6409C119.773 44.5041 118.715 46.7642 117.745 49.7203C116.843 52.4669 116.693 53.754 116.57 54.7895C116.457 55.7574 116.365 56.5226 115.702 57.9855C114.597 60.4229 113.308 61.7067 112.173 62.8385C110.918 64.0885 109.833 65.1696 109.18 67.5192C108.965 68.2946 108.928 70.004 108.854 73.4111C108.779 76.8334 108.816 80.2776 108.965 83.6492C109.139 87.5698 109.333 89.2573 109.475 90.4888C109.612 91.6661 109.693 92.3773 109.641 94.1594C109.577 96.3671 109.386 97.5529 109.164 98.9279C108.943 100.31 108.691 101.876 108.512 104.881C108.305 108.381 108.362 111.144 108.401 112.972C108.485 117.031 108.759 120.05 109.077 123.546C109.337 126.421 109.506 127.739 109.654 128.903C109.796 130.021 109.919 130.985 110.092 133.019C110.531 138.21 110.6 142.284 110.656 145.556C110.734 150.07 110.784 153.049 110.656 157.185C110.617 158.446 110.573 159.465 110.538 160.283C110.502 161.103 110.472 161.815 110.474 162.274C111.636 159.886 114.615 148.808 115.8 144.402C119.499 130.651 121.08 123.926 122.026 119.908C123.028 115.646 123.237 114.759 124.445 112.132C127.376 105.757 130.257 102.082 132.575 99.1289C135.502 95.3975 137.617 92.6999 138.114 86.8773C138.37 83.8587 138.036 81.8587 137.683 79.7405C137.24 77.0918 136.783 74.3537 137.354 69.3638C138.458 59.7253 142.259 51.977 142.82 51.6189C142.904 51.5649 143.026 51.5463 143.122 51.5784C143.452 51.6865 143.359 52.0446 143.305 52.2574C143.257 52.4365 143.181 52.7017 143.083 53.0378C142.68 54.4246 141.926 57.0074 141.207 60.7304C140.619 63.7658 140.203 66.7878 139.972 69.7118C139.022 81.6341 140.149 82.4938 140.384 82.5462C140.691 82.6138 141.653 80.7557 143.242 77.6797C143.798 76.6053 144.489 75.2692 145.311 73.6999C148.593 67.4398 150.575 63.9804 152.882 60.4804C153.707 59.2304 154.61 57.9162 155.301 56.9652C156.73 54.9939 156.97 54.8875 157.286 55.0801C157.625 55.2878 157.509 55.6189 156.86 56.9466C156.343 58.0057 155.435 59.7574 153.914 62.629C152.109 66.0395 150.997 68.0851 150.017 69.8891C149.041 71.6864 148.271 73.107 147.149 75.254C144.284 80.7438 142.972 83.2945 141.867 86.2641C141.212 88.0276 140.904 89.0935 140.656 89.9499C140.337 91.0563 140.107 91.8553 139.374 93.3942C138.521 95.1864 137.918 96.0175 136.46 98.0225C135.686 99.0884 134.626 100.55 133.144 102.686C130.325 106.756 129.044 108.629 128.212 110.416C126.832 113.381 126.11 116.087 125.413 118.703C125.026 120.154 124.876 120.891 124.573 122.36C124.419 123.107 124.229 124.038 123.95 125.34C122.838 130.531 121.85 134.509 121.129 137.414C120.462 140.1 119.708 143.137 118.646 146.896C117.695 150.262 116.882 152.816 112.441 166.414L112.278 166.914C110.208 173.249 109.992 173.911 109.747 175.386C109.35 177.776 109.372 179.108 109.401 180.796C109.43 182.517 109.462 184.468 109.073 188.107C108.996 188.835 108.919 189.462 108.852 190.014C108.619 191.924 108.511 192.798 108.933 193.095C110.154 193.956 114.298 190.901 117.862 187.49C123.171 182.409 125.854 177.526 128.22 173.217L128.511 172.69C134.043 162.637 137.698 155.997 142.629 149.424C149.289 140.546 156.965 133.494 158.022 133.382C158.142 133.37 158.256 133.403 158.34 133.475C158.61 133.71 158.604 134.014 157.374 135.774C156.715 136.718 155.805 137.918 154.997 138.904C153.713 140.475 152.85 141.311 151.852 142.281C151.301 142.815 150.732 143.367 150.019 144.11C146.74 147.524 144.816 150.408 142.953 153.196C140.73 156.526 138.973 159.156 139.556 159.904C140.32 160.884 144.485 159.176 146.264 158.446C148.764 157.421 150.311 156.436 151.806 155.484C153.391 154.473 155.031 153.43 157.769 152.357C158.984 151.881 160.316 151.436 161.424 151.139C163.124 150.681 163.485 150.756 163.617 151.08C163.789 151.506 163.441 151.688 161.504 152.701C160.642 153.152 159.57 153.713 158.283 154.433C155.69 155.884 154.234 156.859 152.95 157.718C151.445 158.725 150.257 159.521 147.889 160.644C145.555 161.75 144.147 162.418 141.973 163.031C140.752 163.375 139.832 163.548 139.092 163.686C137.906 163.909 137.19 164.043 136.33 164.669C134.97 165.663 134.536 166.946 133.879 168.891C133.732 169.325 133.58 169.774 133.404 170.262C133.362 170.377 132.343 173.157 128.757 179.446C127.343 181.928 123.585 188.519 116.585 193.092C115.21 193.99 114.088 194.566 113.1 195.073C111.274 196.01 110.173 196.576 109.256 198.269C108.458 199.742 108.484 200.842 108.568 204.489C108.585 205.222 108.605 206.054 108.621 207.009C108.72 213.217 108.614 217.191 108.507 219.433C108.364 222.45 108.11 224.733 107.923 226.401C107.644 228.907 107.504 230.166 108.11 230.51C108.737 230.867 109.71 230.124 111.322 228.892C112.962 227.64 115.207 225.924 118.506 224.301C120.213 223.46 121.085 223.195 127.862 221.122L128.592 220.899C137.414 218.201 142.74 216.571 143.09 216.406C146.769 214.673 148.431 213.117 150.193 211.47C152.011 209.769 153.892 208.01 158.078 205.924C163.076 203.434 167.375 202.473 170.218 201.838C177.892 200.124 185.438 200.01 186.129 200.499C186.225 200.568 186.286 200.666 186.299 200.776C186.347 201.164 185.994 201.308 184.664 201.632C183.752 201.855 182.421 202.139 180.737 202.499C178.193 203.043 176.269 203.372 175.544 203.495L175.423 203.516C170.124 204.426 165.578 205.894 164.311 206.321C155.933 209.154 153.11 211.308 153.262 212.38C153.325 212.816 154.029 213.061 156.245 213.764C157.014 214.007 157.97 214.311 159.124 214.701C162.832 215.953 168.083 217.933 172.039 220.255C173.299 220.995 174.612 221.85 175.639 222.6C177.372 223.867 177.397 224.149 177.237 224.433C177.029 224.799 176.533 224.605 176.005 224.399C175.5 224.201 174.754 223.872 173.81 223.456C173.031 223.113 172.063 222.686 170.948 222.21C168.372 221.107 167.502 220.801 165.923 220.244C164.441 219.722 162.414 219.005 157.881 217.254L157.095 216.95C153.419 215.526 152.431 215.142 150.832 215.357C149.647 215.516 148.688 216.293 147.759 217.044C147.663 217.124 147.565 217.201 147.468 217.279C146.259 218.247 144.794 218.967 142.86 219.543C142.004 219.798 141.134 220.036 140.293 220.267C138.575 220.738 136.8 221.227 135.092 221.865C133.725 222.375 132.349 222.924 131.019 223.455C129.114 224.215 127.142 225 125.163 225.689C122.693 226.548 120.169 227.519 117.447 228.659C115.502 229.473 114.029 230.835 112.47 232.276C112.197 232.527 111.923 232.781 111.646 233.032C109.788 234.713 107.948 236.544 107.631 238.816C107.615 238.931 107.607 239.048 107.605 239.164C107.631 239.169 107.658 239.174 107.683 239.179C107.884 239.222 108.073 239.26 108.183 239.264C109.953 239.303 111.778 238.654 113.544 238.027C116.019 237.149 118.577 236.242 121.136 237.112C122.328 237.517 123.457 238.059 124.546 238.585C126.023 239.294 127.548 240.029 129.213 240.401C130.227 240.627 139.239 242.487 143.614 238.124C145.561 236.181 145.71 233.904 145.865 231.494C146.028 228.988 146.196 226.396 148.528 224.247C151.72 221.304 156.902 221.048 160.372 222.318C161.94 222.89 162.614 223.576 164.244 225.232C165.117 226.119 166.313 227.331 168.095 228.983C173.117 233.635 175.424 235.683 177.473 235.49C180.401 235.215 183.48 231.727 183.935 228.174C184.205 226.063 183.431 224.627 182.612 223.108C181.717 221.448 180.791 219.73 181.058 217.022C181.36 213.963 183.048 210.443 185.691 209.63C187.019 209.222 188.065 209.657 189.078 210.078C190.103 210.504 191.163 210.945 192.656 210.637C194.855 210.183 196.88 208.362 197.473 206.308C198.269 203.553 196.345 200.857 194.647 198.48C193.065 196.264 191.85 195.389 190.777 194.619C189.752 193.882 188.867 193.245 188.029 191.679C186.595 188.997 186.879 186.517 187.109 184.526C187.311 182.762 187.472 181.369 186.414 180.443C184.291 178.587 179.538 180.134 176.838 181.828C174.875 183.059 174.053 184.323 173.179 185.659C172.291 187.022 171.372 188.429 169.242 189.934C166.362 191.97 161.217 194.227 158.843 192.108C157.168 190.612 157.061 187.107 158.624 184.897C159.951 183.019 162.022 182.745 164.026 182.482C165.901 182.235 167.671 182.002 168.774 180.495C170.728 177.825 169.031 173.362 168.392 171.683C167.08 168.232 164.972 166.163 163.433 164.652C162.147 163.391 161.218 162.48 161.631 161.458C162.504 159.289 169.048 159.392 173.884 160.924C175.703 161.5 176.902 162.151 177.867 162.674C179.201 163.399 180.085 163.877 181.712 163.784C184.315 163.636 187.713 161.999 189.027 158.752C190.274 155.676 188.963 152.62 188.531 151.757C187.597 149.889 186.301 148.928 185.156 148.082C183.982 147.212 182.968 146.462 182.914 145.024C182.842 143.048 184.74 140.781 186.749 140.45C188.294 140.195 189.536 141.102 190.63 141.904C191.516 142.551 192.279 143.11 192.931 142.84C193.489 142.607 193.654 141.901 193.977 140.325C194.056 139.938 194.146 139.499 194.254 139.019C194.994 135.739 195.874 133.803 196.455 132.522C197.081 131.142 197.369 130.511 196.977 129.585C196.345 128.092 193.967 127.24 189.225 125.544C187.668 124.987 186.533 124.658 185.701 124.418C184.166 123.973 183.467 123.771 182.81 122.892C181.627 121.31 182.048 119.489 182.418 117.882C182.744 116.467 183.053 115.129 182.299 114.095C180.37 111.45 173.266 112.865 168.835 114.715C164.176 116.661 160.882 119.81 159.984 120.729C158.644 122.097 157.757 123.301 156.973 124.364C155.644 126.166 154.683 127.468 152.566 128.09C150.504 128.695 147.558 128.553 145.965 126.81C143.994 124.654 144.992 121.122 145.72 118.541C146.357 116.286 147.541 112.087 151.276 109.722C153.576 108.264 155.887 108.142 157.742 108.043C159.578 107.945 161.029 107.867 161.825 106.612C162.718 105.203 162.355 103.082 161.641 101.707C160.826 100.139 159.475 99.5056 158.284 98.9465C157.208 98.4415 156.191 97.9634 156.026 96.8671C155.874 95.8587 156.507 94.6222 157.72 93.558C158.789 92.6188 160.563 91.6712 162.034 92.0952C162.847 92.3283 163.222 92.8823 163.583 93.4161C163.919 93.9144 164.239 94.384 164.933 94.6391C166.588 95.2455 169.055 94.1864 170.107 92.4161C171.701 89.7354 169.485 86.1949 168.767 85.1729C167.901 83.9381 167.147 83.4871 166.276 82.9651C165.458 82.4753 164.531 81.9195 163.381 80.6391C162.911 80.1155 158.837 75.4246 160.274 71.8317C160.712 70.7388 161.408 70.3368 162.291 69.8266C162.995 69.4195 163.796 68.9567 164.745 67.9989C167.208 65.5175 167.882 62.4534 168.375 60.2152C169.048 57.1662 170.171 52.0615 167.607 49.1814C166.423 47.852 165.043 47.6358 163.582 47.4078C162.016 47.1628 160.397 46.9112 158.98 45.2895C157.686 43.8098 157.576 42.3385 157.472 40.9162C157.369 39.5227 157.271 38.2051 156.102 36.8301C154.049 34.4112 149.963 33.2929 147.181 34.3892C145.766 34.9467 145.223 35.825 144.034 37.7524C143.164 39.1612 141.973 41.0902 139.882 43.7541C137.57 46.7 135.791 48.8351 134.604 48.8351C134.473 48.8351 134.35 48.8098 134.234 48.7557C133.546 48.4399 133.6 47.5564 133.745 45.1949C133.784 44.5699 133.828 43.8605 133.867 43.021C134.117 37.8166 134.2 35.4129 133.541 32.9788C132.725 29.9686 131.213 27.8605 130.717 27.168C129.556 25.548 128.683 24.8859 127.84 24.244C127.07 23.6578 126.272 23.0514 125.31 21.7609C123.666 19.5599 123.247 17.6984 122.911 16.2051C122.6 14.8268 122.396 13.9146 121.372 13.4062C120.078 12.7626 118.605 13.3437 117.181 13.9079C115.656 14.5109 114.078 15.1359 112.71 14.2305C111.764 13.6038 111.615 12.6967 111.443 11.646C111.318 10.8859 111.178 10.0227 110.727 9.01259C108.725 4.51598 102.644 1.34031 98.4482 2.60382C96.803 3.09875 95.3148 4.87578 92.3537 8.41631C89.8081 11.4585 88.531 12.9839 87.8469 14.9078C86.6746 18.2018 87.1222 21.4146 87.4179 23.5413C87.6307 25.07 87.7489 25.9129 87.1222 26.1105C86.6358 26.2642 86.3148 25.7828 85.9415 25.2254C85.5885 24.6967 85.1476 24.0379 84.4516 23.5244C81.1527 21.0869 74.6915 23.7372 71.1578 26.3977C70.5142 26.8825 64.847 31.3318 64.0176 38.3436C63.7878 40.2794 64.0142 41.6358 64.2135 42.8301C64.4601 44.3081 64.673 45.5851 63.8132 47.2524C62.8757 49.0716 61.548 49.6645 60.0108 50.352C58.6747 50.9483 57.1612 51.6257 55.4602 53.2608C52.3622 56.2405 49.7946 61.2135 51.1426 64.5598C51.5733 65.629 52.1662 65.9804 54.6646 67.4584C55.602 68.0125 56.7693 68.7033 58.2794 69.6408C66.5666 74.7895 67.6662 76.5243 68.1949 77.357C70.1628 80.4618 70.7996 84.357 70.2591 86.1864C70.1138 86.6796 69.8824 87.0023 69.5733 87.1459C68.8436 87.4837 68.1713 86.71 67.1561 85.5394C66.053 84.2709 64.5429 82.531 62.151 81.0361C61.8182 80.8283 53.9399 75.9685 49.3166 78.8384C47.9838 79.6661 47.82 80.5952 47.2777 83.6729C46.8673 86.0057 46.2456 89.531 44.7288 95.0462C44.6612 95.2928 44.5936 95.5344 44.5294 95.7675C43.798 98.3958 43.3149 100.131 44.1392 100.979C45.021 101.887 46.9636 101.414 48.8419 100.957C50.901 100.455 53.0311 99.9364 54.1257 101.158C54.8554 101.97 54.6004 102.962 54.3284 104.012C54.0632 105.034 53.7642 106.193 54.1966 107.538C54.7912 109.384 56.3115 110.078 58.2372 110.955C59.9449 111.734 61.8808 112.615 63.7541 114.506C66.4872 117.264 67.2304 120.305 68.5784 125.825C69.6747 130.316 71.5091 137.835 68.4263 139.722C66.5784 140.854 63.4382 139.614 61.5885 137.816C59.9213 136.196 59.5193 134.274 59.1291 132.416C57.472 124.512 56.5615 120.168 56.2676 119.435C56.1477 119.137 53.2625 112.126 46.1679 109.992C40.4433 108.271 33.5565 110.109 30.8149 114.088C29.5227 115.965 29.3116 118.011 29.141 119.654C28.972 121.286 28.8268 122.695 27.6173 123.175C26.2812 123.703 25.0599 122.595 23.646 121.311C22.1359 119.94 20.4214 118.382 18.2035 118.463C14.5464 118.595 10.6697 123.208 10.0717 128.144C9.84032 130.056 10.0244 133.036 12.217 136.374C15.0819 140.734 19.815 142.582 22.6427 143.686C24.2778 144.325 25.097 144.646 24.9467 145.264C24.7964 145.877 23.9366 145.786 22.2254 145.6C19.5075 145.308 14.9586 144.818 10.3707 146.68C7.21026 147.963 1.88088 151.262 1.95689 155.492C2.02277 159.11 6.01432 162.004 8.36229 163.142C10.864 164.355 13.1815 164.475 15.043 164.57C16.8048 164.661 18.195 164.732 18.6731 165.85C19.1798 167.038 18.1866 168.369 17.2254 169.656C16.3133 170.879 15.3707 172.142 15.7964 173.12C16.1258 173.875 17.0869 174.046 18.2001 174.244C19.4585 174.467 20.8842 174.718 21.6883 175.945C22.646 177.407 21.9805 179.088 21.3352 180.715C20.7457 182.203 20.1883 183.608 20.8521 184.755C21.3352 185.59 22.4518 186.247 23.9146 186.558C26.2964 187.063 28.9518 186.58 30.6781 185.328C32.0801 184.311 32.5041 183.054 32.9163 181.84C33.3403 180.585 33.7795 179.288 35.2676 178.379C37.6257 176.941 40.548 177.862 46.3673 179.698C51.9027 181.445 54.6798 182.32 54.8892 184.212C55.0429 185.602 53.7439 186.462 48.9078 189.663C47.9027 190.328 46.7625 191.083 45.4399 191.97C39.07 196.245 37.9416 197.244 36.8859 198.502C33.8876 202.073 31.6207 207.286 33.1612 209.056C33.592 209.551 34.1291 209.549 35.4129 209.494C36.3521 209.453 37.6376 209.397 39.3757 209.62C43.2727 210.119 48.8267 211.909 48.972 214.331C49.124 216.88 43.3217 219.004 42.6595 219.237C40.9264 219.848 39.7474 219.941 38.7051 220.024C37.5784 220.113 36.6865 220.184 35.445 220.902C33.2119 222.193 31.0852 224.745 31.5447 226.617C31.7896 227.615 32.7136 228.022 34.2423 228.698C35.5734 229.286 37.396 230.09 39.5345 231.668C41.7068 233.271 45.249 236.222 44.5531 237.983C44.1004 239.13 42.3656 239.044 40.1696 238.934C37.5683 238.806 34.3335 238.646 32.6578 240.613C31.4551 242.027 31.3099 244.125 31.5497 245.493C31.7389 246.568 32.1832 247.396 32.7372 247.711C33.418 248.098 34.2626 247.679 35.2423 247.193C36.0936 246.77 37.0278 246.306 38.0278 246.306V246.287ZM50.4179 246.645C50.4754 246.661 50.9889 246.799 51.4483 246.882C53.7203 247.291 58.6409 246.085 65.3047 243.49L65.4264 243.443C66.0699 243.193 69.7946 242.21 77.955 240.054L77.977 240.049C85.7354 238 86.379 237.936 86.7625 237.897C86.9415 237.879 87.0412 237.868 88.2861 237.514L88.5986 237.424C90.3908 236.911 92.781 236.227 95.4753 236.009C95.9297 235.14 96.1239 234.488 95.8824 234.142C95.3942 233.446 92.8165 234.091 87.4584 235.627C81.9517 237.203 77.8672 238.487 77.8267 238.499C73.8723 239.742 72.428 240.14 70.7557 240.603C69.1645 241.042 67.3622 241.539 62.9432 242.897C62.303 243.093 61.727 243.272 61.2017 243.434C57.4635 244.59 56.3352 244.939 54.2473 245.11C51.7946 245.311 49.6375 245.132 48.2102 245.012C47.5649 244.958 46.9027 244.904 46.5615 244.924C47.048 245.353 48.7068 246.178 50.4196 246.647L50.4179 246.645ZM102.338 237.855C102.604 240.037 102.523 242.156 102.36 244.475C102.426 244.048 102.523 243.595 102.626 243.115C102.999 241.362 103.421 239.375 102.479 238.032C102.435 237.97 102.387 237.911 102.338 237.855ZM123.017 36.2727C121.171 38.4585 117.975 42.9601 116.271 48.9162C115.985 49.9145 115.761 50.8875 115.544 51.8267C114.963 54.3486 114.364 56.955 112.523 60.3706C111.935 61.4618 111.279 62.5344 110.676 63.3959C111.001 63.0361 111.34 62.6983 111.683 62.3554C112.832 61.2118 114.019 60.0277 115.073 57.7017C115.693 56.3334 115.774 55.651 115.886 54.7051C116.011 53.6409 116.168 52.3165 117.09 49.5041C118.073 46.5091 119.139 44.2321 120.487 41.3487C121.543 39.0902 122.403 37.4281 123.016 36.271L123.017 36.2727Z" stroke="#CA9C28" stroke-width="1.35135"/>
</svg>