<svg xmlns="http://www.w3.org/2000/svg" width="164" height="247" viewBox="0 0 164 247" fill="none">
<path d="M43.37 227.184C43.3057 227.184 43.2414 227.153 43.2038 227.094C43.1444 227.002 43.1701 226.88 43.2621 226.82C46.0176 225.028 48.9422 223.91 51.9538 223.498C55.9311 222.953 59.4177 223.73 65.1937 225.02C65.7676 225.148 66.3285 225.28 66.8707 225.406C70.0417 226.147 72.7793 226.788 76.534 226.535C78.1328 226.427 79.9394 226.139 81.2177 224.822C82.3486 223.656 82.5989 222.202 82.774 220.689C83.2816 216.294 83.1074 212.758 82.9669 209.918C82.9511 209.598 82.9353 209.286 82.9214 208.983C82.7077 204.351 82.6009 202.029 82.773 199.155C82.8146 198.463 82.864 197.822 82.9125 197.205C83.0639 195.251 83.1866 193.674 82.9293 192.012C82.6335 191.864 82.2833 191.79 81.933 191.736C81.1307 191.611 80.3451 191.592 79.5961 191.641C79.331 192.115 78.9639 192.674 78.5296 193.333C77.1998 195.354 76.532 196.368 75.4902 196.962C74.2881 197.646 73.3462 197.484 72.2559 197.296C71.2853 197.129 70.1851 196.94 68.5992 197.28C67.5841 197.498 67.1705 197.756 66.4859 198.183C65.8893 198.555 65.072 199.064 63.4841 199.745C61.3846 200.645 59.109 201.335 56.9037 201.738C53.0728 202.44 50.0473 202.994 48.31 201.289C47.653 200.644 47.4165 199.902 47.2078 199.247C46.9852 198.549 46.8101 197.997 46.1996 197.767C45.5338 197.515 44.8788 197.84 44.2466 198.154C43.6282 198.461 42.9891 198.778 42.4083 198.447C41.9759 198.2 41.6524 197.626 41.5188 196.873C41.3625 195.987 41.4625 194.623 42.2559 193.69C43.3631 192.388 45.3665 192.488 46.9763 192.567C48.0141 192.618 48.9946 192.667 49.1559 192.259C49.3725 191.711 48.2714 190.441 46.35 189.024C45.1321 188.125 44.1298 187.683 43.3255 187.328C42.3529 186.899 41.7108 186.616 41.5208 185.841C41.1716 184.417 42.7556 182.771 43.9913 182.057C44.7967 181.591 45.3853 181.544 46.068 181.491C46.6537 181.444 47.3176 181.392 48.2842 181.051C49.6941 180.554 51.7728 179.484 51.7184 178.575C51.657 177.555 48.8887 176.496 46.443 176.184C45.4586 176.058 44.7551 176.089 44.1892 176.112C43.4382 176.145 42.9426 176.166 42.5547 175.721C41.3586 174.346 43.1464 170.913 44.7314 169.025C45.3755 168.259 46.0512 167.657 49.8247 165.125C50.6004 164.605 51.2682 164.163 51.8579 163.772C54.4639 162.047 55.2495 161.526 55.1861 160.952C55.0922 160.1 53.3528 159.552 50.4708 158.643C47.1751 157.603 45.5209 157.082 44.2931 157.831C43.5441 158.287 43.3314 158.917 43.085 159.646C42.8367 160.38 42.5557 161.213 41.6316 161.883C40.5334 162.68 38.8554 162.988 37.3555 162.671C36.3751 162.463 35.6459 162.021 35.3016 161.426C34.8158 160.588 35.1937 159.636 35.5588 158.715C35.915 157.817 36.2514 156.969 35.8022 156.284C35.4253 155.709 34.7119 155.583 34.0213 155.46C33.3208 155.336 32.5966 155.208 32.3196 154.571C31.9783 153.787 32.6006 152.953 33.2021 152.147C33.6978 151.483 34.2103 150.796 34.0025 150.309C33.8284 149.902 33.2417 149.852 32.2207 149.8C31.1531 149.744 29.6918 149.669 28.1553 148.924C26.3467 148.05 24.2205 146.258 24.181 144.097C24.1325 141.405 27.4113 139.35 29.3564 138.561C32.1366 137.434 34.8623 137.727 36.4908 137.903C36.8945 137.946 37.3397 137.994 37.5633 137.981C37.3684 137.863 36.938 137.695 36.5482 137.542C34.9593 136.922 32.002 135.766 30.2548 133.108C29.1862 131.481 28.7301 129.723 28.9359 128.023C29.2713 125.257 31.5419 122.095 34.0777 122.004C35.539 121.951 36.6521 122.963 37.5465 123.775C38.2766 124.438 38.9069 125.011 39.4599 124.791C39.923 124.608 40.0031 124.042 40.105 123.057C40.2089 122.05 40.3385 120.796 41.1528 119.613C42.8773 117.11 47.0208 115.988 50.5845 117.059C54.92 118.362 56.6811 122.639 56.7533 122.821C56.9383 123.283 57.4113 125.539 58.4471 130.482C58.6648 131.522 58.8884 132.588 59.7779 133.451C60.7395 134.385 62.4225 135.052 63.301 134.514C64.8603 133.559 63.7472 128.997 63.212 126.806C62.4393 123.641 62.0139 121.897 60.4902 120.361C59.4434 119.305 58.3452 118.805 57.3756 118.362C56.2072 117.83 55.198 117.37 54.7963 116.121C54.5074 115.225 54.7073 114.455 54.8676 113.836C55.0308 113.204 55.1109 112.831 54.8379 112.528C54.3541 111.989 53.2242 112.265 52.1309 112.531C50.9229 112.825 49.6723 113.129 48.9986 112.435C48.3584 111.775 48.6651 110.672 49.1301 109.001C49.1677 108.864 49.2073 108.725 49.2469 108.579C50.1314 105.368 50.4925 103.314 50.732 101.954C51.0555 100.12 51.1762 99.4335 52.1072 98.8557C55.0219 97.0461 59.8392 100.016 60.043 100.144C61.4944 101.051 62.4383 102.138 63.0636 102.858C63.4722 103.328 63.8571 103.772 64.0154 103.699C64.049 103.684 64.1331 103.623 64.2034 103.384C64.4576 102.522 64.1944 100.359 63.0398 98.5361C62.7688 98.1087 62.1346 97.1084 57.3578 94.1403C56.4773 93.5932 55.7956 93.1905 55.2485 92.866C53.7684 91.9904 53.3222 91.7262 53.0194 90.9753C52.1567 88.8303 53.6853 85.8048 55.6413 83.924C56.688 82.9178 57.6477 82.4884 58.4194 82.1441C59.2861 81.7572 59.9708 81.4505 60.4556 80.5086C60.8978 79.6489 60.7949 79.0265 60.6515 78.1648C60.5367 77.4742 60.3933 76.6154 60.5347 75.4252C61.0403 71.155 64.4804 68.452 64.8712 68.1582C67.0389 66.5267 71.035 64.9249 73.1315 66.4733C73.5945 66.8156 73.8854 67.2509 74.0972 67.5685C74.1753 67.6853 74.2683 67.8238 74.3316 67.8921C74.3613 67.7169 74.298 67.2638 74.2406 66.8572C74.0724 65.6521 73.7914 63.6347 74.5107 61.6134C74.9352 60.4193 75.699 59.5071 77.2196 57.6906C79.0065 55.5555 79.9028 54.485 80.9793 54.1604C83.6051 53.3699 87.4023 55.3378 88.646 58.1328C88.9299 58.771 89.021 59.326 89.0942 59.7722C89.1901 60.3599 89.2545 60.7487 89.6641 61.0198C90.2923 61.4354 91.0828 61.1227 91.9189 60.7923C92.834 60.4301 93.7789 60.0562 94.6951 60.5123C95.4628 60.8942 95.6142 61.5669 95.8061 62.4188C95.9951 63.2578 96.2306 64.3016 97.1428 65.5235C97.6731 66.2338 98.0985 66.5574 98.5477 66.8987C99.0651 67.2925 99.6004 67.6991 100.315 68.6954C100.616 69.1159 101.532 70.3932 102.029 72.2255C102.449 73.7719 102.373 75.3559 102.234 78.2301C102.21 78.7248 102.185 79.1413 102.162 79.5093C102.102 80.4908 102.062 81.1389 102.218 81.2111C102.28 81.2388 102.542 81.2695 103.312 80.476C103.832 79.9387 104.407 79.2165 105.051 78.3963C106.263 76.8529 106.953 75.7339 107.458 74.9176C108.157 73.7858 108.541 73.1625 109.493 72.7875C111.296 72.0771 113.841 72.7687 115.164 74.329C115.932 75.2332 115.996 76.1059 116.06 76.9498C116.119 77.7532 116.175 78.5121 116.847 79.2798C117.583 80.1218 118.419 80.2524 119.306 80.3899C120.193 80.5284 121.111 80.6709 121.898 81.5564C123.534 83.3946 122.849 86.5072 122.438 88.3673C122.139 89.7247 121.73 91.5847 120.206 93.1193C119.613 93.7178 119.098 94.0146 118.686 94.2541C118.2 94.5351 117.879 94.7201 117.674 95.2326C116.909 97.148 119.318 99.8649 119.421 99.9796C120.055 100.686 120.548 100.981 121.025 101.267C121.552 101.582 122.049 101.88 122.605 102.672C123.06 103.319 124.462 105.57 123.406 107.344C122.69 108.549 121.05 109.236 119.899 108.815C119.371 108.622 119.13 108.265 118.916 107.949C118.728 107.671 118.566 107.431 118.227 107.334C117.653 107.168 116.786 107.479 116.071 108.107C115.471 108.634 115.141 109.24 115.209 109.689C115.271 110.102 115.667 110.308 116.309 110.609C117.026 110.945 117.919 111.364 118.458 112.401C118.927 113.304 119.155 114.711 118.549 115.669C117.973 116.576 116.987 116.629 115.844 116.69C114.749 116.749 113.507 116.815 112.247 117.612C110.188 118.916 109.52 121.281 109.162 122.55C108.738 124.051 108.211 125.919 109.216 127.018C110.035 127.914 111.586 127.977 112.679 127.656C113.791 127.329 114.294 126.648 115.054 125.618C115.521 124.986 116.049 124.269 116.852 123.448C117.391 122.897 119.37 121.006 122.167 119.837C124.695 118.782 129.199 117.786 130.525 119.606C131.074 120.358 130.864 121.267 130.661 122.147C130.444 123.087 130.24 123.975 130.821 124.755C131.126 125.162 131.424 125.249 132.307 125.506C132.798 125.648 133.471 125.843 134.394 126.173C137.28 127.206 138.727 127.725 139.165 128.759C139.462 129.461 139.233 129.964 138.854 130.797C138.5 131.576 138.015 132.644 137.591 134.526C137.528 134.804 137.476 135.058 137.43 135.283C137.234 136.241 137.117 136.819 136.582 137.042C135.996 137.286 135.439 136.88 134.849 136.448C134.243 136.004 133.614 135.545 132.873 135.668C131.889 135.83 130.923 136.977 130.959 137.941C130.983 138.593 131.456 138.944 132.111 139.429C132.782 139.926 133.617 140.544 134.207 141.724C134.478 142.267 135.302 144.19 134.511 146.146C133.676 148.207 131.526 149.247 129.881 149.34C128.816 149.401 128.199 149.066 127.418 148.642C126.839 148.329 126.184 147.972 125.154 147.647C122.34 146.756 118.838 146.799 118.464 147.73C118.321 148.083 118.786 148.539 119.431 149.171C120.359 150.081 121.628 151.327 122.427 153.43C122.822 154.469 123.872 157.228 122.601 158.966C121.856 159.986 120.684 160.14 119.552 160.288C118.413 160.439 117.338 160.58 116.659 161.539C115.864 162.665 115.897 164.497 116.729 165.239C117.873 166.261 120.691 165.093 122.326 163.937C123.513 163.099 124.029 162.307 124.53 161.54C125.065 160.72 125.571 159.944 126.794 159.176C128.362 158.193 131.398 157.112 132.873 158.403C133.649 159.081 133.539 160.034 133.412 161.137C133.278 162.307 133.126 163.632 133.908 165.095C134.355 165.931 134.816 166.262 135.4 166.682C136.021 167.128 136.793 167.683 137.758 169.035C138.804 170.501 139.989 172.162 139.47 173.96C139.079 175.317 137.795 176.475 136.349 176.773C135.356 176.979 134.646 176.684 134.021 176.424C133.444 176.185 132.946 175.977 132.305 176.175C130.937 176.595 130.029 178.545 129.869 180.165C129.724 181.631 130.237 182.583 130.733 183.503C131.221 184.408 131.727 185.345 131.552 186.708C131.261 188.994 129.326 191.157 127.413 191.337C125.986 191.472 124.432 190.033 121.614 187.422C120.563 186.448 119.859 185.734 119.345 185.213C118.409 184.261 118.058 183.906 117.223 183.6C115.304 182.898 112.443 183.032 110.689 184.65C109.441 185.801 109.352 187.175 109.257 188.629C109.165 190.052 109.069 191.523 107.822 192.767C105.11 195.472 99.637 194.344 99.0216 194.206C98.0016 193.978 97.0874 193.538 96.2029 193.113C95.5746 192.811 94.9256 192.499 94.2488 192.269C92.8795 191.804 91.5112 192.29 90.0618 192.804C88.9933 193.183 87.8891 193.575 86.781 193.551C86.6979 193.549 86.598 193.531 86.4852 193.508C86.5079 193.657 86.5406 193.808 86.5732 193.964C86.6108 194.138 86.6484 194.318 86.6742 194.499C86.7899 195.333 86.8186 196.19 86.8453 197.019C86.8582 197.415 86.872 197.823 86.8948 198.222C86.9729 199.58 87.1026 200.959 87.2292 202.291C87.3835 203.924 87.5428 205.612 87.6081 207.282C87.6556 208.491 87.5933 209.697 87.5339 210.863C87.5161 211.203 87.4993 211.542 87.4845 211.883C87.4103 213.567 87.5131 215.302 87.6131 216.98C87.6457 217.536 87.6804 218.11 87.7071 218.673C87.7516 219.593 87.8011 220.574 87.8822 221.552C87.8921 221.669 87.898 221.795 87.9049 221.925C87.9247 222.319 87.9465 222.766 88.088 223.091C88.1137 223.15 88.1424 223.213 88.1731 223.28C88.4115 223.807 88.7232 224.5 88.5757 224.942C88.9191 225.135 89.2109 225.245 89.3574 225.293C90.2142 225.578 90.9057 225.496 92.6619 225.188C94.4566 224.872 95.4302 224.66 96.0733 224.52C96.6679 224.39 97.027 224.312 97.5296 224.261C99.36 224.072 100.65 224.475 102.017 224.903C102.361 225.011 102.717 225.121 103.085 225.224C109.29 226.956 115.795 225.472 119.119 224.434C119.992 224.162 120.66 223.903 121.251 223.676C122.475 223.205 123.359 222.864 124.92 222.84C127.333 222.802 129.767 223.546 132.16 225.049C132.252 225.107 132.281 225.229 132.222 225.322C132.164 225.415 132.042 225.443 131.949 225.385C129.622 223.923 127.259 223.198 124.926 223.236C123.436 223.258 122.623 223.571 121.393 224.045C120.797 224.274 120.121 224.535 119.237 224.812C115.871 225.863 109.281 227.364 102.978 225.606C102.604 225.502 102.246 225.389 101.9 225.282C100.573 224.867 99.3204 224.474 97.5712 224.655C97.0913 224.705 96.7599 224.777 96.1583 224.908C95.5113 225.048 94.5338 225.261 92.7311 225.578C90.9394 225.894 90.1736 225.983 89.2337 225.67C89.0665 225.615 88.7222 225.485 88.3215 225.252C88.1523 225.34 87.9475 225.316 87.7021 225.289C87.5003 225.265 87.25 225.236 86.9274 225.251C86.5218 225.27 86.315 225.342 86.0291 225.443C85.8253 225.514 85.5947 225.595 85.2455 225.675C83.6922 226.032 82.7651 225.979 82.4891 225.518C82.2407 225.105 82.6048 224.616 82.87 224.26C82.9313 224.177 82.9887 224.1 83.0243 224.041C84.0008 222.451 84.0177 220.711 83.9464 218.919C83.9207 218.281 83.8287 217.634 83.7396 217.007L83.7021 216.739C83.618 216.137 83.5576 214.666 83.522 213.787C83.5091 213.482 83.4992 213.241 83.4943 213.185C83.4943 213.182 83.4943 213.18 83.4943 213.177C83.5438 215.36 83.5012 217.862 83.1688 220.732C82.9927 222.253 82.7196 223.842 81.5037 225.096C80.1324 226.509 78.2367 226.815 76.5627 226.928C72.7496 227.185 69.9843 226.538 66.7827 225.789C66.2415 225.663 65.6815 225.532 65.1096 225.404C59.3772 224.124 55.9173 223.351 52.0102 223.888C49.0559 224.293 46.1858 225.39 43.4798 227.15C43.4462 227.171 43.4096 227.181 43.372 227.181L43.37 227.184ZM83.2855 191.759C83.4735 191.877 83.6407 192.027 83.7763 192.22C84.4263 193.148 84.1601 194.4 83.9247 195.506C83.8613 195.806 83.801 196.088 83.7644 196.345C83.5447 197.871 83.4498 199.397 83.4824 200.881C83.4992 201.668 83.5081 202.564 83.516 203.431C83.5329 205.224 83.5507 207.077 83.6457 208.03C83.7832 209.406 83.8247 211.069 83.8524 212.169C83.8643 212.64 83.8732 213.012 83.8861 213.151C83.892 213.213 83.8999 213.407 83.9148 213.773C83.9484 214.587 84.0097 216.103 84.0919 216.687L84.1295 216.954C84.2195 217.59 84.3135 218.247 84.3392 218.905C84.4134 220.76 84.3936 222.565 83.3587 224.25C83.3132 224.323 83.2509 224.408 83.1846 224.497C82.9976 224.749 82.7137 225.129 82.8255 225.316C82.959 225.539 83.7307 225.618 85.1535 225.292C85.481 225.216 85.7006 225.139 85.8945 225.071C86.1884 224.968 86.4426 224.879 86.9057 224.857C87.2599 224.84 87.5399 224.873 87.7437 224.897C87.7595 224.899 87.7743 224.901 87.7892 224.902C87.4093 224.613 87.0234 224.233 86.7147 223.74C86.0894 222.744 86.1706 221.937 86.3486 220.169C86.4407 219.257 86.5544 218.123 86.6187 216.561L86.6286 216.321C86.6771 215.148 86.7276 213.935 86.6652 212.758C86.6306 212.095 86.5554 211.42 86.4832 210.767C86.4031 210.038 86.319 209.283 86.2893 208.533C86.2606 207.816 86.2893 207.095 86.318 206.397C86.3427 205.793 86.3674 205.169 86.3546 204.555C86.3318 203.494 86.2082 202.419 86.0884 201.379C85.9282 199.988 85.7619 198.55 85.8332 197.11C85.8381 197.004 85.8441 196.899 85.85 196.793C85.8886 196.096 85.9262 195.437 85.76 194.779C85.7392 194.697 85.6759 194.569 85.6096 194.434C85.4206 194.05 85.1604 193.524 85.4859 193.186C85.6254 193.042 85.8371 193.017 86.0607 193.036C86.0637 192.971 86.0686 192.906 86.0776 192.842C86.2992 191.257 87.6566 190.028 88.555 189.215C88.7162 189.068 88.8755 188.921 89.0348 188.774C89.9332 187.944 90.8622 187.085 92.0663 186.582C93.6681 185.911 95.1541 185.34 96.6085 184.834C97.7602 184.433 98.9098 183.975 100.022 183.531C100.803 183.219 101.611 182.897 102.415 182.597C103.432 182.217 104.481 181.929 105.495 181.65C105.986 181.515 106.493 181.376 106.99 181.228C108.072 180.906 108.887 180.506 109.555 179.972C109.611 179.927 109.666 179.882 109.723 179.836C110.308 179.363 110.915 178.872 111.718 178.764C112.756 178.624 113.411 178.879 115.582 179.72L116.042 179.898C118.691 180.922 119.876 181.339 120.74 181.645C121.673 181.974 122.188 182.156 123.709 182.807C124.364 183.087 124.931 183.338 125.389 183.539C125.777 183.71 126.14 183.87 126.425 183.989C125.909 183.583 125.011 182.964 123.993 182.366C121.704 181.024 118.656 179.875 116.501 179.147C115.829 178.92 115.27 178.743 114.822 178.601C113.366 178.139 112.876 177.982 112.803 177.469C112.7 176.747 113.667 175.925 115.76 174.96C116.795 174.482 118.066 173.987 119.537 173.491C120.287 173.237 122.974 172.37 126.106 171.831L126.177 171.819C126.6 171.747 127.721 171.555 129.202 171.239C130.155 171.035 131.028 170.849 131.587 170.709C130.211 170.655 126.863 170.808 123.211 171.625C121.564 171.993 119.075 172.549 116.19 173.986C113.789 175.182 112.71 176.193 111.665 177.169C110.61 178.155 109.614 179.087 107.404 180.129C107.181 180.234 104.773 180.972 98.8584 182.781L98.431 182.911C94.4883 184.116 93.9817 184.272 93.0101 184.75C91.1125 185.684 89.8154 186.675 88.8676 187.398C87.7941 188.218 87.1461 188.714 86.5515 188.376C85.9697 188.045 86.0548 187.273 86.2438 185.581C86.3516 184.609 86.5 183.278 86.5831 181.524C86.6455 180.217 86.7068 177.898 86.6494 174.274C86.6405 173.715 86.6296 173.228 86.6187 172.8C86.5683 170.641 86.5515 169.914 87.0689 168.959C87.6635 167.861 88.4293 167.468 89.488 166.924C90.0588 166.631 90.7049 166.299 91.4934 165.783C95.5133 163.157 97.68 159.357 98.4953 157.927C100.575 154.279 101.182 152.625 101.188 152.609C101.29 152.327 101.378 152.066 101.463 151.813C101.857 150.647 102.142 149.805 103.04 149.148C103.615 148.727 104.094 148.638 104.818 148.502C105.244 148.423 105.773 148.323 106.472 148.126C107.712 147.776 108.527 147.39 109.873 146.751C111.235 146.106 111.92 145.646 112.787 145.066C113.545 144.558 114.404 143.982 115.937 143.125C116.696 142.7 117.327 142.37 117.834 142.104C117.992 142.021 118.147 141.94 118.288 141.865C117.711 142.009 116.858 142.276 115.974 142.622C114.405 143.236 113.504 143.81 112.55 144.419C111.659 144.987 110.738 145.573 109.241 146.187C107.338 146.966 105.433 147.666 104.849 146.918C104.352 146.282 105.095 145.111 106.822 142.526C107.922 140.879 109.06 139.175 111.004 137.15C111.426 136.709 111.778 136.368 112.087 136.068C112.663 135.509 113.161 135.026 113.899 134.124C114.584 133.287 115.28 132.337 115.625 131.789C114.383 132.737 110.707 136.202 107.276 140.774C104.405 144.602 102.269 148.481 99.0365 154.354L98.8673 154.663C97.5366 157.086 95.8803 160.1 92.7272 163.118C91.3955 164.392 88.1721 167.268 86.9957 166.438C86.5554 166.128 86.6267 165.543 86.784 164.263C86.8235 163.94 86.8681 163.575 86.9136 163.152C87.1382 161.044 87.1194 159.914 87.1035 158.918C87.0877 157.949 87.0739 157.113 87.3123 155.678C87.4607 154.785 87.5883 154.395 88.8082 150.659L88.9042 150.366C91.5033 142.408 91.9782 140.914 92.5342 138.949C93.1546 136.754 93.5959 134.978 93.9847 133.412C94.4071 131.709 94.9849 129.383 95.635 126.349C95.7982 125.587 95.91 125.044 95.9991 124.606C96.1771 123.739 96.2662 123.303 96.4957 122.443C96.9083 120.893 97.3357 119.291 98.1589 117.523C98.6803 116.402 99.5331 115.172 101.082 112.938C101.951 111.683 102.573 110.825 103.029 110.199C103.867 109.044 104.214 108.566 104.698 107.55C105.113 106.679 105.244 106.224 105.426 105.593C105.572 105.086 105.754 104.454 106.144 103.406C106.827 101.571 107.691 99.9153 109.258 96.9116C109.916 95.6501 110.368 94.818 110.941 93.7633C111.515 92.7077 112.165 91.5105 113.221 89.5149C113.832 88.3623 114.416 87.2493 114.802 86.4795C114.395 87.0356 113.856 87.8122 113.297 88.6601C111.954 90.6982 110.798 92.7156 108.883 96.3694C108.401 97.2875 107.997 98.0701 107.672 98.6984C106.289 101.376 106.038 101.858 105.561 101.754C105.02 101.635 104.468 100.627 105.01 93.8188C105.148 92.0903 105.393 90.3055 105.74 88.5137C106.005 87.1414 106.278 86.0313 106.503 85.1923C105.74 86.9999 104.674 90.1244 104.265 93.6911C103.937 96.5583 104.2 98.1344 104.455 99.6591C104.667 100.924 104.867 102.121 104.712 103.938C104.411 107.467 103.141 109.085 101.384 111.325C100.041 113.038 98.3676 115.171 96.6708 118.862C95.9803 120.365 95.8596 120.877 95.2798 123.342C94.7257 125.698 93.7987 129.64 91.63 137.701C88.7815 148.292 88.3868 148.775 87.9811 148.69C87.6952 148.629 87.7071 148.362 87.7714 146.882C87.7921 146.404 87.8179 145.809 87.8406 145.073C87.9148 142.66 87.8871 141.011 87.8406 138.281C87.808 136.369 87.7674 133.992 87.5112 130.964C87.4112 129.782 87.339 129.22 87.2569 128.57C87.1698 127.885 87.0709 127.109 86.9175 125.419C86.7315 123.364 86.5703 121.589 86.5208 119.197C86.498 118.12 86.4644 116.492 86.5871 114.427C86.693 112.647 86.8414 111.72 86.9729 110.901C87.1006 110.11 87.2104 109.426 87.247 108.16C87.2767 107.144 87.2302 106.739 87.152 106.066C87.0679 105.339 86.9532 104.343 86.8503 102.033C86.7632 100.05 86.7404 98.0236 86.784 96.0102C86.8275 93.981 86.8503 92.9629 86.9898 92.4613C87.1698 91.8143 87.4053 91.3166 87.6754 90.8991C87.2945 91.3225 87.0086 91.4719 86.7761 91.377C86.4684 91.2523 86.503 90.8763 86.5663 90.1937C86.6059 89.7633 86.6563 89.227 86.6524 88.5533C86.6455 87.4986 86.5069 86.8931 86.2022 85.5673C86.0756 85.0172 85.9193 84.3326 85.7313 83.4421C85.3533 81.6464 85.1644 80.7451 85.0021 79.5984C84.8151 78.2687 84.7983 77.5623 84.7587 75.8566C84.7399 75.0631 84.7172 74.0757 84.6697 72.7093C84.5806 70.1567 84.5361 68.8765 84.4065 67.5042C84.2284 65.6293 83.9583 63.8188 83.7466 62.7394C83.7693 63.8208 83.8505 65.8242 83.987 69.1416L84.075 71.3074C84.1245 72.5095 84.1651 73.5384 84.2007 74.4229C84.4055 79.4995 84.4174 79.8032 84.5351 80.7342C84.7815 82.6862 85.0466 83.9606 85.3029 85.1914C85.6195 86.715 85.9193 88.1536 86.1201 90.6478C86.2062 91.7183 86.2072 92.1596 86.2091 93.1262C86.2111 93.8821 86.2131 94.917 86.2527 96.8007C86.3298 100.49 86.4575 102.855 86.5505 104.581C86.69 107.173 86.7602 108.475 86.5158 110.956C86.3556 112.584 86.1864 113.421 86.037 114.159C85.8708 114.982 85.7273 115.691 85.6581 117.284C85.5749 119.182 85.6818 120.322 86.035 124.097C86.0993 124.783 86.1715 125.556 86.2517 126.436C86.688 131.196 86.9067 133.585 86.9126 134.443C86.9235 136.087 86.8473 137.029 86.7503 138.222C86.6494 139.466 86.5238 141.013 86.4506 143.959C86.4347 144.576 86.4248 145.138 86.4159 145.633C86.3724 148.006 86.3595 148.227 86.0677 148.245C85.8253 148.258 85.7629 147.983 85.663 147.407C85.5799 146.928 85.475 146.197 85.3157 145.089C85.2128 144.369 85.0882 143.5 84.9348 142.464C84.5203 139.655 84.2818 138.211 84.1394 137.349C83.9672 136.309 83.9266 136.062 83.8772 135.249C83.8574 134.926 83.8435 134.628 83.8297 134.345C83.7782 133.249 83.7367 132.383 83.4201 131.125C83.2835 130.583 83.1589 130.221 83.0154 129.801C82.873 129.385 82.7117 128.915 82.497 128.159C82.2684 127.35 82.1843 126.938 82.0587 126.316C81.9766 125.913 81.8747 125.412 81.7025 124.649C81.4789 123.659 81.285 122.896 81.1148 122.221C80.8289 121.089 80.5815 120.112 80.3134 118.563C80.1106 117.393 80.0394 116.679 80.1809 115.791C80.2986 115.056 80.4876 114.67 80.6874 114.262C80.8319 113.967 80.9813 113.663 81.1099 113.195C81.3295 112.395 81.2593 111.956 81.1425 111.228C81.0485 110.639 80.9308 109.906 80.9051 108.694C80.8665 106.883 81.0723 105.453 81.1712 104.765C81.3127 103.782 81.4888 102.977 81.6402 102.372C81.194 103.358 80.6558 104.916 80.5073 106.725C80.4361 107.592 80.4816 108.183 80.5281 108.809C80.5875 109.589 80.6488 110.397 80.5064 111.814C80.4895 111.986 80.3955 112.886 80.2372 113.753C79.9394 115.388 79.6535 115.619 79.3884 115.624C79.3854 115.624 79.3824 115.624 79.3795 115.624C78.954 115.624 78.8264 115.05 78.2308 112.365C78.1437 111.97 78.0458 111.532 77.9369 111.045C77.469 108.961 77.1811 107.78 76.9713 106.916C76.6893 105.759 76.5607 105.23 76.35 103.968C76.2303 103.254 76.0492 101.791 75.6881 98.8745C75.2854 95.6194 75.0826 93.9879 75.0262 93.1183C74.9589 92.0854 74.946 91.3799 74.9322 90.6982C74.9144 89.7811 74.8985 88.9154 74.762 87.3106C74.6097 85.5218 74.4622 84.5344 73.9844 83.4085C73.5263 82.3291 72.9366 81.4812 72.5656 81.0518C72.62 81.1883 72.6843 81.3437 72.7486 81.496C73.0158 82.1371 73.3818 83.0147 73.6955 84.0674C74.3079 86.1184 74.3376 87.5332 74.3831 89.6752C74.395 90.2273 74.4068 90.7982 74.4306 91.4472C74.5275 94.1621 74.7393 96.0181 75.0895 99.0921C75.32 101.117 75.8009 105.332 77.1316 110.356C78.2199 114.466 78.8195 116.731 79.7673 119.32C80.1789 120.443 80.4411 121.62 80.9634 123.967C81.4374 126.094 81.5551 127.026 81.0614 127.288C80.6142 127.526 79.9919 126.972 79.6565 126.675L79.6476 126.667C78.8195 125.931 77.9043 125.262 77.0188 124.615C76.0076 123.876 74.9629 123.112 74.0309 122.239C72.4587 120.765 71.8018 120.183 71.2735 119.716C70.7194 119.225 70.2821 118.838 69.076 117.681C67.8067 116.462 66.8717 115.528 66.2385 114.895C67.0963 116.024 68.5408 117.764 70.3434 119.578C71.6029 120.845 73.5203 122.478 77.001 125.444C77.4017 125.786 77.7658 126.095 78.0982 126.377C80.9516 128.801 81.4651 129.238 82.0033 130.328C82.6335 131.606 82.6276 132.395 82.6157 133.825C82.6078 134.742 82.5989 135.885 82.7503 137.596C82.966 140.031 83.5101 142.474 84.5955 147.343C84.6578 147.623 84.7181 147.892 84.7775 148.153C85.3058 150.491 85.6867 152.181 85.6571 154.653C85.6462 155.551 85.5809 156.565 85.481 157.366C85.3088 158.759 85.1307 158.873 84.9328 158.876H84.9289C84.6538 158.876 84.5955 158.544 84.454 157.746C84.4045 157.465 84.3481 157.146 84.2749 156.805C84.0098 155.561 83.6565 154.699 81.9123 151.038C81.2336 149.612 80.7656 148.651 80.4569 148.015C79.8217 146.709 79.7406 146.542 79.5892 145.986C79.3122 144.967 79.2865 144.421 79.2528 143.729C79.2241 143.142 79.1895 142.411 78.9906 141.144C78.7789 139.793 78.4247 137.534 77.3532 134.983C76.7972 133.66 75.9582 131.662 74.0922 129.762C73.0722 128.723 72.0036 127.963 71.4337 127.649C71.5475 127.777 71.686 127.928 71.8216 128.076C72.5735 128.893 73.832 130.262 74.9955 132.161C76.5528 134.703 77.1791 136.939 77.5926 138.419C78.2624 140.812 78.2872 142.05 78.3109 143.246C78.3327 144.32 78.3525 145.334 78.8472 147.137C79.2202 148.499 79.5239 149.076 80.0255 150.031C80.5726 151.073 81.3226 152.499 82.6038 155.768C82.6404 155.862 83.5032 158.095 84.1987 161.679C84.6736 164.125 84.7726 165.696 83.8712 166.488C83.4517 166.857 82.872 167.029 82.1477 166.999C80.6706 166.94 79.8177 165.875 78.2694 163.942C77.8063 163.364 77.282 162.709 76.6567 161.977C75.5496 160.678 74.9381 160.084 74.3475 159.511C73.6875 158.869 73.0642 158.263 71.8335 156.757C70.6116 155.261 69.729 154.181 68.6506 152.513C68.2252 151.855 67.9036 151.311 67.6197 150.831C67.0142 149.809 66.5769 149.07 65.634 148.049C64.1311 146.42 63.1338 146.024 62.4324 145.862C61.4064 145.624 60.4417 145.747 60.1568 145.882C60.3062 145.961 60.6376 146.068 60.9354 146.164C61.6498 146.393 62.6273 146.708 63.5701 147.283C65.2511 148.307 65.9081 149.619 66.7401 151.279C67.0369 151.872 67.3446 152.484 67.7335 153.165C68.4458 154.412 68.7862 154.749 69.6083 155.562C70.4651 156.41 71.8988 157.828 74.8461 161.391C75.8731 162.633 76.6072 163.558 77.1979 164.301C78.581 166.043 79.046 166.629 80.2877 167.497C80.6053 167.719 80.8922 167.903 81.1692 168.08C82.0617 168.651 82.7077 169.064 83.1905 170.013C83.704 171.021 83.5853 171.766 83.3706 173.118C83.2529 173.862 83.1055 174.787 83.0134 176.06C82.8413 178.432 82.962 180.536 83.0797 182.572C83.1183 183.235 83.1628 183.845 83.2034 184.384C83.3469 186.316 83.3637 186.681 83.051 186.74C82.7889 186.791 82.684 186.503 82.4277 185.808C82.3347 185.557 82.2299 185.273 82.1052 184.97C81.5769 183.693 81.0446 182.965 79.7574 181.204L79.3547 180.653C78.0754 178.899 77.6292 178.247 77.3037 177.773C77.0119 177.347 76.8199 177.066 76.1867 176.231C74.9826 174.641 74.2762 173.803 73.5283 172.916C72.7991 172.051 72.0452 171.156 70.7728 169.496C69.8883 168.343 69.5134 167.812 69.1839 167.343C68.8356 166.849 68.5349 166.422 67.7374 165.403C66.7906 164.195 66.1208 163.404 65.5301 162.705C64.7653 161.8 64.1044 161.018 63.1101 159.653C62.2473 158.468 61.4321 157.348 60.5229 155.738C59.9085 154.652 59.67 154.086 59.2367 153.058C58.9527 152.384 58.5985 151.546 58.0059 150.241C57.4004 148.909 57.0679 148.242 56.6821 147.468C56.2834 146.667 55.8312 145.76 54.9685 143.903C54.3907 142.66 53.7367 141.252 52.9185 139.341C51.381 135.751 50.5341 133.772 50.3283 131.955C50.2788 131.516 50.266 131.231 50.2472 130.8C50.2234 130.26 50.1908 129.521 50.0641 127.987C49.8682 125.614 49.7426 124.936 49.3577 124.163C48.7314 122.906 47.7559 122.083 47.3018 121.829C47.37 121.944 47.463 122.088 47.5541 122.23C48.0418 122.986 48.8591 124.251 49.329 126.004C49.6921 127.357 49.6021 128.106 49.5061 128.899C49.419 129.623 49.328 130.372 49.5318 131.705C49.6931 132.763 50.4302 134.713 51.8984 138.599L52.0429 138.981C52.868 141.157 53.1846 142.051 52.7453 142.335C52.4723 142.512 52.0943 142.324 51.1257 141.53C49.8643 140.496 49.2321 139.976 48.2555 138.725C47.5165 137.777 47.1326 137.445 46.5508 136.942C45.98 136.448 45.1984 135.772 43.7103 134.182C42.5715 132.963 41.6959 131.933 41.0746 131.178C42.16 132.936 44.2248 135.924 47.0059 138.999C49.1282 141.346 50.6103 142.569 51.8015 143.553C53.2687 144.765 54.3293 145.64 55.6452 147.794C56.8008 149.686 57.1115 150.87 57.4409 152.124C57.7773 153.405 58.1246 154.729 59.3653 157.015C60.2666 158.676 60.8177 159.335 62.8667 161.784C63.675 162.751 64.6822 163.954 66.0307 165.602C68.3627 168.451 71.2646 171.997 74.6552 176.605C74.6829 176.643 77.4917 180.473 80.9061 186.129C82.0122 187.962 82.3664 188.64 82.7058 189.581C82.9788 190.337 83.1628 191.052 83.2806 191.75L83.2855 191.759ZM87.0867 214.414C87.0768 215.059 87.0501 215.703 87.0244 216.336L87.0145 216.576C86.9502 218.15 86.8354 219.291 86.7424 220.207C86.5683 221.933 86.4971 222.647 87.0501 223.528C87.3835 224.059 87.8149 224.448 88.2206 224.725C88.2433 224.402 87.9613 223.775 87.8119 223.444C87.7813 223.375 87.7516 223.311 87.7259 223.25C87.5547 222.859 87.531 222.374 87.5102 221.945C87.5042 221.821 87.4983 221.7 87.4884 221.586C87.4073 220.603 87.3568 219.618 87.3123 218.694C87.2856 218.134 87.251 217.561 87.2183 217.006C87.1679 216.154 87.1164 215.285 87.0867 214.415V214.414ZM85.9222 193.424C85.852 193.424 85.7956 193.433 85.7699 193.46C85.6383 193.597 85.8263 193.979 85.9638 194.258C86.0429 194.419 86.1122 194.558 86.1429 194.681C86.3229 195.397 86.2824 196.118 86.2438 196.813C86.2378 196.917 86.2319 197.022 86.227 197.127C86.1577 198.535 86.3219 199.956 86.4802 201.332C86.6009 202.38 86.7266 203.465 86.7493 204.544C86.7622 205.17 86.7375 205.801 86.7127 206.41C86.685 207.1 86.6563 207.813 86.684 208.515C86.7137 209.251 86.7958 209.999 86.876 210.721C86.9492 211.379 87.0244 212.06 87.06 212.734C87.061 212.759 87.063 212.784 87.064 212.809C87.0669 212.494 87.0749 212.18 87.0887 211.868C87.1035 211.525 87.1214 211.184 87.1382 210.845C87.1975 209.687 87.2589 208.49 87.2124 207.299C87.1471 205.639 86.9888 203.958 86.8344 202.33C86.7078 200.993 86.5772 199.611 86.499 198.246C86.4763 197.843 86.4624 197.432 86.4496 197.033C86.4228 196.215 86.3951 195.368 86.2824 194.554C86.2586 194.387 86.222 194.214 86.1864 194.047C86.1438 193.846 86.1003 193.641 86.0756 193.433C86.0212 193.427 85.9677 193.423 85.9212 193.423L85.9222 193.424ZM83.2994 208.603C83.3043 208.72 83.3103 208.839 83.3162 208.959C83.33 209.266 83.3459 209.577 83.3617 209.897C83.3904 210.474 83.4201 211.078 83.4458 211.713C83.4221 210.806 83.3845 209.654 83.3004 208.603H83.2994ZM83.0906 201.133C83.0708 202.224 83.0877 203.336 83.1322 204.643C83.1272 204.244 83.1233 203.838 83.1193 203.434C83.1114 202.657 83.1045 201.857 83.0906 201.133ZM45.7019 197.28C45.9097 197.28 46.1224 197.315 46.3401 197.397C47.1296 197.696 47.3512 198.391 47.5857 199.127C47.7806 199.738 48.0013 200.43 48.588 201.007C50.1789 202.569 53.1154 202.031 56.8325 201.351C59.0101 200.952 61.256 200.271 63.3287 199.382C64.889 198.713 65.6587 198.233 66.2771 197.847C66.9736 197.413 67.4337 197.126 68.5161 196.893C70.1762 196.537 71.317 196.733 72.3232 196.906C73.3808 197.088 74.2159 197.232 75.2943 196.617C76.253 196.071 76.903 195.083 78.1981 193.115C78.5444 192.589 78.864 192.103 79.1143 191.679C77.6797 191.826 76.4024 192.191 75.4308 192.47L75.2478 192.522C74.485 192.74 74.4187 192.747 74.2861 192.76C74.0863 192.78 73.7153 192.817 69.2017 194.009L69.1888 194.012C64.5684 195.232 62.2483 195.845 61.8932 195.983L61.8229 196.011C59.7571 196.815 56.2062 198.069 54.1344 198.069C53.8999 198.069 53.6853 198.053 53.4933 198.018C53.2064 197.967 52.8908 197.882 52.8552 197.872C52.2991 197.719 50.0879 196.97 50.2383 196.346C50.3164 196.023 50.7498 196.059 51.6986 196.138C52.5712 196.212 53.7654 196.311 55.1693 196.196C56.3487 196.099 57.0007 195.898 59.1585 195.231C59.4662 195.136 59.8046 195.031 60.1795 194.917C62.7737 194.12 63.8323 193.828 64.7663 193.57C65.7428 193.301 66.5858 193.067 68.895 192.341C68.9187 192.333 71.316 191.581 74.5463 190.656C78.4524 189.538 79.4913 189.336 79.9137 189.941C80.1334 190.255 80.07 190.674 79.8079 191.232C80.5103 191.2 81.2444 191.228 81.9944 191.345C82.2764 191.388 82.5712 191.448 82.8482 191.55C82.7334 190.964 82.5682 190.362 82.3387 189.725C82.0092 188.813 81.6629 188.149 80.5726 186.343C77.1682 180.703 74.3702 176.886 74.3425 176.849C70.9588 172.248 68.06 168.707 65.731 165.861C64.3834 164.215 63.3772 163.013 62.5689 162.046C60.5525 159.635 59.9441 158.908 59.0239 157.212C57.7605 154.884 57.3915 153.475 57.065 152.233C56.7296 150.954 56.4397 149.85 55.3148 148.009C54.0335 145.912 52.9947 145.054 51.5561 143.867C50.355 142.874 48.86 141.64 46.719 139.272C44.4286 136.74 42.7101 134.368 41.6722 132.823C40.945 131.741 39.8013 129.914 39.83 129.62C39.8359 129.56 39.8656 129.507 39.9131 129.472C40.0813 129.347 40.2257 129.517 40.3425 129.652C40.4375 129.763 40.575 129.934 40.7491 130.15C41.3279 130.869 42.4053 132.209 44.0061 133.92C45.4793 135.496 46.252 136.164 46.816 136.652C47.4156 137.17 47.8113 137.512 48.5741 138.49C49.5229 139.707 50.1443 140.217 51.383 141.233C52.222 141.921 52.4663 142.009 52.5356 142.009H52.5376C52.685 141.782 52.128 140.313 51.6798 139.13L51.5353 138.748C50.0572 134.836 49.3152 132.874 49.148 131.774C48.9372 130.388 49.0342 129.577 49.1212 128.862C49.2162 128.075 49.2983 127.395 48.955 126.117C48.5009 124.424 47.7045 123.19 47.2295 122.454C46.8526 121.871 46.6804 121.604 46.909 121.421C46.9832 121.362 47.0802 121.345 47.1999 121.372C47.6748 121.476 48.958 122.47 49.7188 123.997C50.1314 124.825 50.264 125.53 50.4658 127.965C50.5925 129.506 50.6261 130.25 50.6498 130.793C50.6686 131.216 50.6805 131.495 50.729 131.922C50.9199 133.61 51.6521 135.372 53.2895 139.197C54.1047 141.101 54.7577 142.507 55.3346 143.748C56.1953 145.6 56.6455 146.505 57.0432 147.303C57.4301 148.08 57.7645 148.751 58.3729 150.089C58.9685 151.399 59.3227 152.24 59.6087 152.915C60.0361 153.93 60.2725 154.489 60.8751 155.554C61.7744 157.144 62.5827 158.255 63.4386 159.431C64.424 160.785 65.0799 161.562 65.8408 162.461C66.4334 163.162 67.1052 163.957 68.057 165.171C68.8614 166.197 69.1651 166.627 69.5163 167.126C69.8448 167.592 70.2158 168.119 71.0964 169.267C72.3638 170.919 73.1147 171.811 73.8409 172.672C74.5918 173.564 75.3022 174.406 76.5122 176.004C77.1504 176.846 77.3453 177.13 77.6401 177.56C77.9646 178.033 78.4089 178.681 79.6842 180.43L80.0869 180.981C81.3938 182.769 81.935 183.508 82.4812 184.83C82.6088 185.139 82.7156 185.427 82.8096 185.682C82.8443 185.776 82.8799 185.873 82.9155 185.965C82.9056 185.58 82.8631 185.012 82.8195 184.423C82.78 183.883 82.7344 183.272 82.6959 182.606C82.5781 180.557 82.4554 178.439 82.6296 176.042C82.7236 174.752 82.872 173.817 82.9907 173.066C83.1994 171.755 83.3033 171.096 82.8482 170.203C82.4139 169.35 81.8381 168.982 80.9664 168.424C80.6993 168.253 80.3965 168.059 80.072 167.832C78.7829 166.932 78.308 166.333 76.8981 164.558C76.3094 163.816 75.5763 162.893 74.5513 161.655C71.6158 158.107 70.1911 156.697 69.3402 155.854C68.5161 155.039 68.1401 154.667 67.4 153.372C67.0063 152.682 66.6827 152.036 66.3968 151.467C65.5618 149.801 64.9583 148.597 63.3743 147.631C62.4709 147.081 61.5192 146.774 60.8246 146.551C60.0786 146.31 59.668 146.179 59.7155 145.849C59.7294 145.752 59.7877 145.668 59.8887 145.599C60.2636 145.343 61.441 145.234 62.5313 145.486C63.2872 145.661 64.3577 146.082 65.9338 147.79C66.9054 148.843 67.3516 149.596 67.9689 150.64C68.2509 151.117 68.5705 151.656 68.992 152.308C70.0585 153.957 70.9351 155.031 72.1481 156.515C73.366 158.005 73.9814 158.603 74.6324 159.237C75.23 159.817 75.8474 160.417 76.9664 161.73C77.5956 162.468 78.122 163.125 78.587 163.705C80.1116 165.606 80.8764 166.561 82.1735 166.613C82.7928 166.639 83.2796 166.5 83.6199 166.2C84.2897 165.611 84.3422 164.451 83.8208 161.763C83.1312 158.214 82.2813 156.013 82.2457 155.921C80.9724 152.672 80.2283 151.257 79.6852 150.224C79.1885 149.278 78.86 148.654 78.4752 147.251C77.9676 145.4 77.9468 144.362 77.9251 143.263C77.9013 142.092 77.8776 140.881 77.2206 138.535C76.813 137.076 76.1956 134.872 74.667 132.378C73.5233 130.511 72.2807 129.161 71.5386 128.354C70.8668 127.624 70.664 127.403 70.8589 127.189C70.8926 127.151 70.9549 127.106 71.0578 127.104C71.0598 127.104 71.0617 127.104 71.0637 127.104C71.5554 127.104 73.1938 128.284 74.3831 129.494C76.3015 131.448 77.1593 133.489 77.7262 134.838C78.8165 137.434 79.1756 139.724 79.3903 141.091C79.5922 142.38 79.6278 143.122 79.6565 143.718C79.6901 144.412 79.7139 144.913 79.98 145.891C80.1215 146.411 80.1878 146.548 80.822 147.851C81.1316 148.487 81.5996 149.449 82.2793 150.876C84.0404 154.574 84.3976 155.449 84.6716 156.731C84.7459 157.079 84.8032 157.401 84.8537 157.686C84.8863 157.867 84.92 158.061 84.9536 158.219C85.102 157.584 85.2534 156.12 85.2712 154.658C85.3009 152.234 84.9239 150.563 84.4015 148.249C84.3422 147.988 84.2818 147.718 84.2195 147.438C83.1312 142.553 82.5841 140.1 82.3664 137.639C82.213 135.909 82.2229 134.756 82.2308 133.83C82.2427 132.46 82.2487 131.705 81.66 130.511C81.1584 129.494 80.7181 129.12 77.8538 126.687C77.5214 126.405 77.1573 126.095 76.7566 125.754C73.2671 122.781 71.3457 121.143 70.0753 119.865C67.4386 117.212 64.982 114.058 64.9939 113.658C64.9958 113.596 65.0216 113.542 65.0651 113.502C65.2313 113.356 65.4084 113.523 65.634 113.736C65.82 113.911 66.0891 114.181 66.4631 114.555C67.0953 115.187 68.0491 116.143 69.362 117.404C70.5621 118.555 70.9964 118.94 71.5475 119.428C72.0778 119.897 72.7368 120.481 74.3128 121.959C75.227 122.816 76.2619 123.572 77.2632 124.305C78.1556 124.957 79.0787 125.631 79.9216 126.38L79.9305 126.388C80.5845 126.97 80.8101 126.989 80.8863 126.948C81.194 126.785 80.7695 124.876 80.5875 124.062C80.0691 121.732 79.8079 120.563 79.4062 119.464C78.4514 116.858 77.8509 114.588 76.7596 110.466C75.4219 105.414 74.9391 101.181 74.7066 99.1456C74.3554 96.0617 74.1427 94.2007 74.0447 91.47C74.021 90.818 74.0091 90.2204 73.9972 89.693C73.9527 87.5837 73.923 86.1896 73.3264 84.1901C73.0187 83.1572 72.6566 82.2905 72.3934 81.6583C72.0313 80.7906 71.9225 80.5284 72.1669 80.3939C72.2114 80.3691 72.2846 80.3474 72.3835 80.382C72.7813 80.5205 73.7716 81.8769 74.3593 83.264C74.858 84.4384 75.0113 85.4545 75.1667 87.2869C75.3042 88.9035 75.322 89.8167 75.3388 90.7002C75.3517 91.378 75.3655 92.0784 75.4318 93.1024C75.4872 93.9612 75.6891 95.5888 76.0908 98.8329C76.4519 101.747 76.6319 103.208 76.7507 103.912C76.9594 105.161 77.0871 105.684 77.3661 106.832C77.5768 107.697 77.8647 108.88 78.3327 110.968C78.4415 111.454 78.5395 111.894 78.6265 112.288C78.9877 113.917 79.232 115.019 79.3973 115.222C79.6308 115 79.9503 113.499 80.1215 111.784C80.26 110.401 80.1996 109.611 80.1423 108.848C80.0938 108.206 80.0473 107.601 80.1215 106.703C80.3787 103.552 81.7817 101.118 82.0399 100.947C82.12 100.894 82.1932 100.907 82.2299 100.919C82.4376 100.988 82.3951 101.141 82.2536 101.65C82.0913 102.231 81.7896 103.315 81.5709 104.833C81.474 105.509 81.2711 106.917 81.3087 108.696C81.3345 109.88 81.4492 110.599 81.5412 111.175C81.662 111.929 81.7421 112.428 81.4997 113.31C81.3612 113.814 81.2039 114.136 81.0505 114.446C80.8635 114.827 80.6874 115.186 80.5796 115.863C80.446 116.701 80.5123 117.356 80.7112 118.506C80.9763 120.039 81.2108 120.963 81.5056 122.134C81.6768 122.811 81.8707 123.577 82.0953 124.572C82.2684 125.338 82.3713 125.842 82.4535 126.247C82.5781 126.861 82.6602 127.266 82.8848 128.061C83.0956 128.806 83.2558 129.271 83.3963 129.682C83.5438 130.11 83.6704 130.48 83.8109 131.038C84.1374 132.334 84.1789 133.218 84.2314 134.336C84.2442 134.618 84.2591 134.914 84.2779 135.235C84.3264 136.028 84.3669 136.271 84.5361 137.294C84.6786 138.158 84.918 139.604 85.3335 142.416C85.4869 143.454 85.6116 144.323 85.7145 145.043C85.8292 145.84 85.9222 146.489 85.9974 146.97C86.0093 146.589 86.0182 146.126 86.0271 145.636C86.036 145.14 86.0469 144.577 86.0627 143.959C86.1369 141.002 86.2626 139.449 86.3645 138.2C86.4604 137.017 86.5356 136.083 86.5248 134.456C86.5188 133.615 86.3012 131.231 85.8648 126.482C85.7837 125.603 85.7115 124.83 85.6482 124.143C85.293 120.347 85.1861 119.201 85.2702 117.276C85.3415 115.652 85.4879 114.928 85.6571 114.09C85.8045 113.361 85.9717 112.535 86.13 110.926C86.3714 108.475 86.3012 107.184 86.1626 104.612C86.0696 102.882 85.942 100.514 85.8648 96.8186C85.8253 94.9318 85.8233 93.8939 85.8213 93.1371C85.8193 92.1516 85.8183 91.744 85.7333 90.6893C85.5334 88.2189 85.2366 86.7922 84.9229 85.2814C84.6647 84.0427 84.3986 82.7614 84.1493 80.7926C84.0295 79.8447 84.0167 79.54 83.8119 74.4477C83.7763 73.5632 83.7347 72.5342 83.6862 71.3321L83.5982 69.1664C83.4715 66.0627 83.3944 64.1898 83.3657 63.0777C83.3281 61.6144 83.3518 61.4443 83.6011 61.4195C83.6605 61.4146 83.7199 61.4324 83.7674 61.472C83.8386 61.5303 83.987 61.653 84.3066 63.5863C84.5035 64.7755 84.6855 66.1933 84.8072 67.4745C84.9388 68.8577 84.9833 70.1429 85.0723 72.7034C85.1198 74.0717 85.1426 75.0601 85.1614 75.8546C85.201 77.5444 85.2168 78.2429 85.4008 79.5499C85.5601 80.6828 85.7491 81.5801 86.125 83.3669C86.3111 84.2534 86.4684 84.9361 86.594 85.4852C86.9047 86.8407 87.0471 87.459 87.0541 88.5572C87.058 89.2508 87.0056 89.8207 86.967 90.2372C86.9373 90.5558 86.9037 90.9149 86.9423 91.0168C87.1738 90.9901 88.0256 89.9968 88.9933 88.2011C90.046 86.248 90.3922 84.7471 90.7257 83.2957C90.8533 82.7397 90.9859 82.1648 91.156 81.5712C92.5887 76.564 95.8111 73.1892 96.1455 73.0566C96.2335 73.022 96.3008 73.0497 96.3345 73.0685C96.5096 73.1724 96.4116 73.3702 96.3463 73.5008C96.2909 73.6126 96.2058 73.7709 96.0881 73.9906C95.7339 74.6525 95.1413 75.7586 94.3656 77.4158C93.581 79.0928 92.9617 80.4166 92.3938 82.148C91.8654 83.7568 91.7774 84.5107 91.7051 85.1172C91.6389 85.6841 91.5854 86.1323 91.1966 86.9891C90.5496 88.4167 89.7947 89.1687 89.1298 89.8316C88.3947 90.5637 87.7595 91.1969 87.3766 92.5731C87.251 93.0272 87.2292 94.0285 87.1857 96.0241C87.1421 98.0286 87.1639 100.046 87.251 102.021C87.3529 104.317 87.4666 105.305 87.5498 106.027C87.6299 106.716 87.6774 107.133 87.6467 108.177C87.6091 109.47 87.4973 110.164 87.3677 110.97C87.2381 111.779 87.0907 112.696 86.9858 114.456C86.8641 116.506 86.8978 118.125 86.9205 119.195C86.97 121.573 87.1303 123.341 87.3163 125.389C87.4686 127.073 87.5676 127.845 87.6546 128.526C87.7377 129.181 87.81 129.746 87.9109 130.937C88.1681 133.978 88.2087 136.364 88.2413 138.281C88.2868 140.924 88.3165 142.669 88.2413 145.091C88.2186 145.83 88.1929 146.427 88.1721 146.906C88.1513 147.387 88.1335 147.803 88.1345 148.072C88.8152 146.673 90.5604 140.185 91.254 137.605C93.4207 129.55 94.3468 125.611 94.9008 123.258C95.4875 120.762 95.6102 120.242 96.3176 118.704C98.0342 114.97 99.7221 112.817 101.08 111.087C102.794 108.902 104.033 107.322 104.324 103.911C104.474 102.143 104.278 100.972 104.071 99.7313C103.812 98.1799 103.544 96.5762 103.878 93.6535C104.526 88.0081 106.752 83.4698 107.08 83.2601C107.13 83.2284 107.201 83.2175 107.257 83.2363C107.45 83.2997 107.396 83.5094 107.364 83.6341C107.336 83.7389 107.292 83.8943 107.234 84.0912C106.998 84.9034 106.557 86.4162 106.135 88.5968C105.791 90.3747 105.548 92.1447 105.412 93.8573C104.856 100.84 105.516 101.344 105.653 101.375C105.833 101.414 106.396 100.326 107.327 98.5242C107.653 97.895 108.058 97.1124 108.539 96.1933C110.462 92.5266 111.622 90.5004 112.974 88.4504C113.457 87.7182 113.986 86.9485 114.391 86.3915C115.228 85.2369 115.368 85.1745 115.553 85.2873C115.752 85.409 115.684 85.6029 115.304 86.3806C115.001 87.0009 114.469 88.0269 113.578 89.7089C112.521 91.7064 111.87 92.9046 111.296 93.9612C110.724 95.0139 110.273 95.846 109.616 97.1035C107.938 100.319 107.169 101.813 106.522 103.552C106.138 104.585 105.958 105.209 105.813 105.711C105.626 106.359 105.491 106.827 105.062 107.728C104.562 108.778 104.209 109.265 103.355 110.439C102.902 111.064 102.281 111.919 101.413 113.171C99.7617 115.554 99.0117 116.652 98.524 117.698C97.7156 119.435 97.2932 121.02 96.8846 122.552C96.658 123.402 96.5699 123.834 96.3928 124.694C96.3028 125.132 96.191 125.677 96.0277 126.44C95.3767 129.48 94.7979 131.81 94.3755 133.512C93.9847 135.085 93.5434 136.864 92.9211 139.065C92.3641 141.037 91.8882 142.533 89.2871 150.497L89.1911 150.79C87.9791 154.5 87.8525 154.888 87.709 155.752C87.4765 157.152 87.4894 157.933 87.5062 158.921C87.523 159.929 87.5418 161.072 87.3143 163.203C87.2688 163.629 87.2242 163.996 87.1847 164.32C87.0481 165.439 86.9848 165.95 87.2322 166.125C87.9475 166.629 90.3744 164.839 92.462 162.842C95.5716 159.866 97.1428 157.006 98.5289 154.482L98.6991 154.173C101.939 148.285 104.08 144.396 106.968 140.546C110.869 135.346 115.365 131.215 115.985 131.15C116.055 131.143 116.121 131.162 116.171 131.204C116.329 131.342 116.325 131.52 115.605 132.551C115.219 133.104 114.685 133.807 114.213 134.384C113.461 135.304 112.955 135.794 112.37 136.362C112.048 136.675 111.714 136.998 111.297 137.434C109.376 139.433 108.25 141.122 107.158 142.755C105.856 144.706 104.827 146.246 105.169 146.684C105.616 147.258 108.056 146.258 109.097 145.83C110.562 145.23 111.468 144.653 112.344 144.095C113.272 143.503 114.232 142.892 115.836 142.264C116.547 141.985 117.328 141.725 117.977 141.55C118.972 141.282 119.184 141.326 119.261 141.516C119.362 141.765 119.158 141.872 118.024 142.466C117.519 142.73 116.891 143.058 116.137 143.48C114.618 144.33 113.765 144.9 113.013 145.404C112.132 145.994 111.436 146.46 110.049 147.118C108.682 147.766 107.858 148.156 106.584 148.516C105.869 148.717 105.33 148.818 104.897 148.9C104.202 149.03 103.783 149.108 103.279 149.475C102.482 150.057 102.228 150.809 101.843 151.948C101.757 152.202 101.668 152.465 101.565 152.751C101.541 152.818 100.944 154.447 98.8435 158.13C98.0154 159.584 95.814 163.444 91.7141 166.123C90.9087 166.649 90.2518 166.986 89.673 167.283C88.6034 167.832 87.9584 168.164 87.4211 169.155C86.9541 170.018 86.969 170.662 87.0185 172.798C87.0283 173.227 87.0402 173.715 87.0491 174.274C87.1075 177.91 87.0452 180.238 86.9828 181.551C86.8987 183.318 86.7503 184.656 86.6405 185.632C86.4773 187.1 86.3951 187.838 86.7503 188.039C87.1174 188.248 87.6873 187.813 88.6311 187.092C89.5918 186.358 90.9067 185.353 92.839 184.402C93.8392 183.91 94.3498 183.754 98.3192 182.54L98.7466 182.41C103.914 180.83 107.034 179.875 107.238 179.778C109.393 178.763 110.367 177.852 111.399 176.887C112.463 175.891 113.565 174.861 116.017 173.639C118.945 172.181 121.463 171.618 123.128 171.246C127.623 170.241 132.042 170.175 132.447 170.461C132.503 170.502 132.539 170.559 132.547 170.623C132.574 170.851 132.368 170.935 131.589 171.125C131.055 171.256 130.275 171.422 129.289 171.632C127.799 171.951 126.672 172.144 126.247 172.216L126.176 172.228C123.072 172.761 120.41 173.621 119.668 173.871C114.761 175.531 113.107 176.792 113.196 177.42C113.233 177.676 113.646 177.819 114.944 178.231C115.394 178.373 115.954 178.551 116.63 178.78C118.801 179.513 121.877 180.672 124.194 182.033C124.932 182.466 125.701 182.967 126.303 183.406C127.318 184.148 127.333 184.313 127.239 184.48C127.117 184.694 126.826 184.581 126.517 184.46C126.222 184.344 125.784 184.151 125.231 183.908C124.775 183.707 124.208 183.457 123.555 183.178C122.046 182.532 121.537 182.352 120.612 182.026C119.744 181.72 118.557 181.301 115.901 180.275L115.441 180.097C113.288 179.263 112.71 179.038 111.773 179.164C111.079 179.257 110.517 179.712 109.973 180.152C109.917 180.199 109.859 180.244 109.803 180.29C109.094 180.856 108.237 181.278 107.104 181.615C106.602 181.765 106.093 181.904 105.6 182.04C104.594 182.316 103.554 182.602 102.554 182.976C101.753 183.275 100.947 183.596 100.168 183.907C99.0523 184.352 97.8977 184.812 96.7381 185.216C95.2917 185.718 93.8135 186.287 92.2186 186.955C91.0799 187.432 90.2171 188.229 89.3039 189.073C89.1436 189.221 88.9834 189.369 88.8211 189.517C87.7328 190.501 86.6554 191.573 86.4694 192.904C86.4604 192.971 86.4555 193.04 86.4545 193.108C86.4693 193.111 86.4852 193.114 86.5 193.117C86.6178 193.142 86.7286 193.164 86.7929 193.166C87.8298 193.189 88.8983 192.809 89.9332 192.442C91.3826 191.928 92.8805 191.396 94.3794 191.906C95.0779 192.143 95.7389 192.461 96.377 192.769C97.2417 193.184 98.1351 193.615 99.1107 193.832C99.7043 193.965 104.983 195.054 107.545 192.499C108.686 191.361 108.773 190.027 108.864 188.615C108.959 187.148 109.058 185.629 110.423 184.371C112.293 182.647 115.329 182.497 117.361 183.241C118.279 183.576 118.674 183.978 119.628 184.948C120.14 185.467 120.84 186.177 121.884 187.145C124.826 189.87 126.177 191.069 127.377 190.956C129.092 190.795 130.895 188.752 131.162 186.671C131.32 185.434 130.867 184.593 130.387 183.704C129.863 182.731 129.32 181.725 129.477 180.139C129.654 178.347 130.642 176.286 132.191 175.81C132.968 175.57 133.581 175.825 134.174 176.072C134.775 176.321 135.395 176.579 136.27 176.399C137.558 176.133 138.744 175.067 139.091 173.864C139.557 172.25 138.431 170.671 137.436 169.279C136.509 167.981 135.798 167.468 135.17 167.017C134.569 166.586 134.051 166.213 133.56 165.296C132.72 163.724 132.886 162.272 133.021 161.105C133.139 160.073 133.233 159.256 132.614 158.714C131.37 157.627 128.586 158.533 127.005 159.525C125.856 160.247 125.374 160.987 124.862 161.769C124.342 162.568 123.804 163.392 122.556 164.273C120.869 165.466 117.855 166.788 116.465 165.547C115.484 164.67 115.422 162.617 116.337 161.323C117.114 160.223 118.327 160.063 119.501 159.908C120.599 159.764 121.636 159.627 122.282 158.745C123.427 157.181 122.432 154.567 122.058 153.583C121.29 151.562 120.055 150.35 119.154 149.465C118.401 148.726 117.856 148.193 118.098 147.595C118.609 146.324 122.442 146.385 125.275 147.282C126.34 147.619 127.043 148 127.608 148.307C128.389 148.731 128.907 149.011 129.86 148.957C131.384 148.87 133.375 147.911 134.145 146.01C134.875 144.208 134.107 142.418 133.854 141.913C133.307 140.818 132.548 140.255 131.877 139.76C131.189 139.25 130.596 138.811 130.564 137.969C130.521 136.811 131.634 135.484 132.81 135.29C133.715 135.14 134.442 135.672 135.084 136.141C135.602 136.52 136.049 136.848 136.431 136.69C136.758 136.553 136.855 136.139 137.043 135.216C137.09 134.99 137.142 134.733 137.206 134.452C137.639 132.53 138.155 131.396 138.495 130.646C138.862 129.838 139.03 129.468 138.801 128.926C138.431 128.051 137.038 127.553 134.26 126.559C133.348 126.233 132.683 126.04 132.197 125.899C131.297 125.639 130.888 125.52 130.503 125.006C129.81 124.079 130.056 123.012 130.273 122.071C130.464 121.242 130.645 120.459 130.204 119.853C129.074 118.304 124.913 119.133 122.318 120.216C119.589 121.356 117.66 123.2 117.133 123.739C116.349 124.54 115.829 125.245 115.37 125.868C114.591 126.923 114.029 127.686 112.789 128.05C111.581 128.405 109.855 128.321 108.922 127.3C107.768 126.038 108.352 123.969 108.779 122.457C109.152 121.137 109.845 118.677 112.033 117.292C113.38 116.438 114.734 116.367 115.82 116.308C116.896 116.251 117.746 116.205 118.212 115.47C118.735 114.645 118.522 113.403 118.104 112.597C117.627 111.679 116.835 111.308 116.138 110.981C115.508 110.685 114.912 110.405 114.815 109.763C114.726 109.172 115.097 108.448 115.807 107.824C116.434 107.274 117.473 106.719 118.334 106.968C118.81 107.104 119.03 107.429 119.242 107.741C119.438 108.033 119.625 108.308 120.032 108.458C121.002 108.813 122.446 108.192 123.063 107.156C123.997 105.585 122.698 103.512 122.278 102.913C121.77 102.19 121.329 101.926 120.819 101.62C120.34 101.333 119.797 101.008 119.123 100.258C118.848 99.9509 116.461 97.2034 117.303 95.099C117.56 94.4589 117.967 94.2234 118.485 93.9246C118.897 93.6862 119.366 93.4151 119.922 92.8541C121.365 91.4007 121.76 89.606 122.048 88.295C122.442 86.5092 123.1 83.5193 121.598 81.8324C120.905 81.0538 120.096 80.9271 119.241 80.7936C118.323 80.6501 117.376 80.5027 116.546 79.5529C115.788 78.6862 115.723 77.8244 115.662 76.9914C115.602 76.1751 115.544 75.4034 114.86 74.5981C113.658 73.1813 111.264 72.5263 109.635 73.1684C108.806 73.4949 108.488 74.0094 107.791 75.1383C107.282 75.9634 106.584 77.0933 105.36 78.6535C104.005 80.379 102.963 81.6296 102.268 81.6296C102.192 81.6296 102.119 81.6148 102.051 81.5831C101.648 81.3981 101.68 80.8806 101.765 79.4975C101.788 79.1314 101.814 78.7159 101.836 78.2241C101.983 75.1759 102.031 73.768 101.645 72.3423C101.168 70.5792 100.282 69.3445 99.9912 68.9388C99.3115 67.99 98.8 67.6022 98.3063 67.2262C97.8551 66.8829 97.3881 66.5277 96.8242 65.7718C95.8615 64.4826 95.6162 63.3924 95.4193 62.5177C95.2372 61.7104 95.1175 61.1761 94.518 60.8783C93.7601 60.5014 92.8974 60.8417 92.0633 61.1722C91.1699 61.5254 90.2458 61.8915 89.4444 61.3612C88.8904 60.9941 88.8033 60.4628 88.7024 59.8474C88.6292 59.4022 88.5471 58.8966 88.2829 58.305C87.1105 55.6712 83.5487 53.8112 81.0911 54.5513C80.1274 54.8411 79.2558 55.882 77.5214 57.9557C76.0304 59.7376 75.2824 60.631 74.8817 61.7579C74.1951 63.6872 74.4573 65.569 74.6304 66.8146C74.7551 67.71 74.8243 68.2037 74.4573 68.3195C74.1723 68.4095 73.9844 68.1275 73.7657 67.801C73.5589 67.4914 73.3007 67.1055 72.8931 66.8047C70.9608 65.377 67.1764 66.9294 65.1067 68.4877C64.7297 68.7716 61.4103 71.3776 60.9245 75.4846C60.79 76.6184 60.9226 77.4129 61.0393 78.1123C61.1838 78.9781 61.3084 79.726 60.8048 80.7025C60.2557 81.7681 59.4781 82.1154 58.5777 82.5181C57.7951 82.8673 56.9087 83.264 55.9123 84.2218C54.0978 85.967 52.594 88.8798 53.3835 90.8397C53.6358 91.466 53.9831 91.6718 55.4464 92.5375C55.9955 92.862 56.6791 93.2667 57.5636 93.8158C62.4175 96.8314 63.0616 97.8475 63.3713 98.3353C64.5239 100.154 64.8969 102.435 64.5803 103.507C64.4952 103.796 64.3597 103.985 64.1786 104.069C63.7512 104.267 63.3574 103.813 62.7628 103.128C62.1167 102.385 61.2322 101.366 59.8313 100.49C59.6364 100.368 55.0219 97.522 52.314 99.203C51.5334 99.6878 51.4374 100.232 51.1198 102.035C50.8794 103.401 50.5153 105.466 49.6268 108.696C49.5872 108.841 49.5477 108.982 49.5101 109.119C49.0817 110.658 48.7987 111.674 49.2815 112.171C49.798 112.703 50.9358 112.426 52.036 112.158C53.242 111.864 54.4896 111.56 55.1307 112.276C55.5582 112.752 55.4088 113.332 55.2495 113.948C55.0941 114.546 54.919 115.225 55.1723 116.013C55.5206 117.094 56.411 117.501 57.5389 118.014C58.5392 118.47 59.673 118.987 60.7702 120.094C62.371 121.709 62.8063 123.49 63.5959 126.724C64.238 129.354 65.3124 133.758 63.5068 134.863C62.4244 135.526 60.5852 134.8 59.5018 133.747C58.5253 132.798 58.2898 131.672 58.0613 130.584C57.0907 125.955 56.5574 123.41 56.3853 122.981C56.315 122.807 54.6252 118.7 50.4698 117.45C47.1168 116.442 43.0831 117.518 41.4773 119.849C40.7204 120.949 40.5967 122.147 40.4968 123.109C40.3979 124.065 40.3128 124.89 39.6044 125.171C38.8218 125.481 38.1065 124.832 37.2784 124.08C36.3939 123.277 35.3896 122.364 34.0906 122.412C31.9486 122.489 29.6779 125.191 29.3277 128.082C29.1922 129.202 29.3 130.947 30.5842 132.902C32.2622 135.456 35.0345 136.538 36.6907 137.185C37.6484 137.559 38.1282 137.747 38.0402 138.109C37.9521 138.468 37.4485 138.415 36.4463 138.306C34.8544 138.135 32.19 137.848 29.5028 138.938C27.6517 139.69 24.5302 141.623 24.5747 144.1C24.6133 146.219 26.9512 147.914 28.3265 148.581C29.7917 149.291 31.1492 149.362 32.2395 149.417C33.2714 149.47 34.0856 149.512 34.3656 150.167C34.6624 150.862 34.0807 151.642 33.5177 152.396C32.9835 153.112 32.4314 153.852 32.6807 154.425C32.8736 154.867 33.4366 154.967 34.0886 155.083C34.8257 155.214 35.6607 155.361 36.1317 156.079C36.6927 156.936 36.3028 157.921 35.9249 158.873C35.5796 159.745 35.2531 160.568 35.6419 161.24C35.9249 161.729 36.5789 162.114 37.4357 162.296C38.8307 162.592 40.386 162.309 41.3972 161.575C42.2183 160.98 42.4667 160.244 42.7081 159.532C42.9564 158.797 43.2137 158.037 44.0853 157.505C45.4665 156.663 47.1781 157.202 50.5865 158.278C53.8287 159.301 55.4553 159.813 55.5779 160.921C55.668 161.736 54.9071 162.239 52.0745 164.114C51.4859 164.504 50.818 164.946 50.0433 165.466C46.3124 167.97 45.6515 168.555 45.0331 169.292C43.277 171.383 41.9492 174.436 42.8515 175.473C43.1038 175.763 43.4185 175.762 44.1704 175.73C44.7205 175.706 45.4734 175.673 46.4915 175.804C48.774 176.096 52.0271 177.144 52.1121 178.563C52.2012 180.056 48.8027 181.3 48.4148 181.436C47.3997 181.794 46.7091 181.849 46.0987 181.897C45.4388 181.95 44.9164 181.991 44.1892 182.412C42.8812 183.168 41.6356 184.663 41.9047 185.759C42.0482 186.344 42.5894 186.582 43.4847 186.978C44.2644 187.322 45.3319 187.793 46.5845 188.717C47.8568 189.656 49.9315 191.384 49.5239 192.416C49.2588 193.088 48.2427 193.038 46.9565 192.973C45.4328 192.898 43.5382 192.804 42.5567 193.957C41.8523 194.785 41.7672 196.014 41.9077 196.815C42.0185 197.444 42.2787 197.929 42.6032 198.114C43.0019 198.341 43.4966 198.095 44.0705 197.81C44.5691 197.563 45.1162 197.291 45.7019 197.291V197.28ZM52.959 197.49C52.9927 197.499 53.2935 197.58 53.5626 197.628C54.8933 197.868 57.7754 197.161 61.6785 195.642L61.7497 195.614C62.1266 195.468 64.3082 194.892 69.0879 193.629L69.1008 193.626C73.645 192.426 74.022 192.389 74.2465 192.366C74.3514 192.355 74.4098 192.349 75.139 192.141L75.322 192.089C76.3717 191.788 77.7717 191.387 79.3498 191.26C79.6159 190.751 79.7297 190.369 79.5882 190.167C79.3023 189.759 77.7925 190.137 74.6542 191.036C71.4288 191.959 69.0365 192.711 69.0127 192.718C66.6966 193.446 65.8507 193.68 64.8712 193.951C63.9392 194.208 62.8835 194.499 60.2953 195.295C59.9203 195.409 59.5829 195.514 59.2752 195.609C57.0858 196.286 56.4248 196.491 55.202 196.591C53.7654 196.708 52.502 196.603 51.6659 196.533C51.288 196.502 50.9001 196.47 50.7003 196.482C50.9852 196.733 51.9568 197.216 52.96 197.491L52.959 197.49ZM83.3696 192.341C83.525 193.619 83.4775 194.86 83.3825 196.219C83.4211 195.968 83.4775 195.703 83.5378 195.422C83.7565 194.395 84.0038 193.232 83.4517 192.445C83.426 192.408 83.3983 192.374 83.3696 192.341ZM95.4816 74.2716C94.4002 75.5518 92.5283 78.1885 91.53 81.6771C91.3628 82.2618 91.2312 82.8317 91.1046 83.3818C90.7642 84.8589 90.413 86.3855 89.3346 88.3861C88.9903 89.0252 88.6064 89.6535 88.2532 90.158C88.4432 89.9473 88.642 89.7494 88.8429 89.5486C89.5157 88.8788 90.2112 88.1852 90.8286 86.8228C91.1917 86.0214 91.2392 85.6217 91.3045 85.0677C91.3777 84.4444 91.4697 83.6687 92.0099 82.0214C92.5857 80.2672 93.21 78.9335 93.9995 77.2447C94.6179 75.9219 95.1215 74.9483 95.4806 74.2706L95.4816 74.2716Z" stroke="#CA9C28" stroke-width="0.791504"/>
</svg>
